M48
; DRILL file {KiCad (5.1.9)-1} date 05/04/21 17:18:04
; FORMAT={-:-/ absolute / inch / decimal}
; #@! TF.CreationDate,2021-05-04T17:18:04+07:00
; #@! TF.GenerationSoftware,Kicad,Pcbnew,(5.1.9)-1
; #@! TF.FileFunction,Plated,1,2,PTH
FMAT,2
INCH
T1C0.0118
T2C0.0236
T3C0.0394
%
G90
G05
T1
X3.6122Y-2.5134
X3.6417Y-2.3165
X3.6587Y-2.5449
X3.6673Y-2.2858
X3.6685Y-2.3165
X3.6902Y-2.5461
X3.6902Y-2.6787
X3.6953Y-2.7177
X3.698Y-2.2858
X3.698Y-2.3165
X3.7201Y-2.6795
X3.7268Y-2.3165
X3.7276Y-2.2858
X3.7565Y-2.6795
X3.7736Y-2.2795
X3.8075Y-2.4677
X3.8091Y-2.4331
X3.9382Y-2.3717
X3.9598Y-2.3217
X3.9827Y-2.3713
X4.0547Y-2.7197
X4.0551Y-2.6795
X4.0555Y-2.7559
X4.0921Y-2.6799
X4.0925Y-2.7201
X4.0929Y-2.7571
T3
X3.5902Y-3.0756
X3.6902Y-3.0756
X3.7902Y-3.0756
X3.8902Y-3.0756
X3.9902Y-3.0756
X4.0902Y-3.0756
T2
G00X3.6701Y-2.002
M15
G01X3.6701Y-1.9783
M16
G05
G00X3.6701Y-2.1764
M15
G01X3.6701Y-2.1331
M16
G05
G00X4.0102Y-2.002
M15
G01X4.0102Y-1.9783
M16
G05
G00X4.0102Y-2.1764
M15
G01X4.0102Y-2.1331
M16
G05
T0
M30
