%TF.GenerationSoftware,KiCad,Pcbnew,(5.1.9)-1*%
%TF.CreationDate,2021-05-04T17:18:08+07:00*%
%TF.ProjectId,usb_debug,7573625f-6465-4627-9567-2e6b69636164,rev?*%
%TF.SameCoordinates,Original*%
%TF.FileFunction,Legend,Top*%
%TF.FilePolarity,Positive*%
%FSLAX46Y46*%
G04 Gerber Fmt 4.6, Leading zero omitted, Abs format (unit mm)*
G04 Created by KiCad (PCBNEW (5.1.9)-1) date 2021-05-04 17:18:08*
%MOMM*%
%LPD*%
G01*
G04 APERTURE LIST*
%ADD10C,0.120000*%
%ADD11C,0.150000*%
G04 APERTURE END LIST*
D10*
%TO.C,D3*%
X90742500Y-75915000D02*
X93027500Y-75915000D01*
X90742500Y-74445000D02*
X90742500Y-75915000D01*
X93027500Y-74445000D02*
X90742500Y-74445000D01*
%TO.C,D2*%
X93742500Y-66395000D02*
X91457500Y-66395000D01*
X93742500Y-67865000D02*
X93742500Y-66395000D01*
X91457500Y-67865000D02*
X93742500Y-67865000D01*
%TO.C,D1*%
X93745000Y-64865000D02*
X91460000Y-64865000D01*
X93745000Y-66335000D02*
X93745000Y-64865000D01*
X91460000Y-66335000D02*
X93745000Y-66335000D01*
%TO.C,U2*%
X92045000Y-64000000D02*
X91570000Y-64000000D01*
X91570000Y-64000000D02*
X91570000Y-63525000D01*
X95315000Y-59780000D02*
X95790000Y-59780000D01*
X95790000Y-59780000D02*
X95790000Y-60255000D01*
X92045000Y-59780000D02*
X91570000Y-59780000D01*
X91570000Y-59780000D02*
X91570000Y-60255000D01*
X95315000Y-64000000D02*
X95790000Y-64000000D01*
%TO.C,U1*%
X96260000Y-68530000D02*
X96260000Y-69790000D01*
X96260000Y-75350000D02*
X96260000Y-74090000D01*
X100020000Y-68530000D02*
X96260000Y-68530000D01*
X102270000Y-75350000D02*
X96260000Y-75350000D01*
%TO.C,R8*%
X102397742Y-58457500D02*
X102872258Y-58457500D01*
X102397742Y-59502500D02*
X102872258Y-59502500D01*
%TO.C,R7*%
X98792258Y-59492500D02*
X98317742Y-59492500D01*
X98792258Y-58447500D02*
X98317742Y-58447500D01*
%TO.C,R6*%
X92447500Y-73122258D02*
X92447500Y-72647742D01*
X93492500Y-73122258D02*
X93492500Y-72647742D01*
%TO.C,R5*%
X90812500Y-62227742D02*
X90812500Y-62702258D01*
X89767500Y-62227742D02*
X89767500Y-62702258D01*
%TO.C,R4*%
X95552258Y-66112500D02*
X95077742Y-66112500D01*
X95552258Y-65067500D02*
X95077742Y-65067500D01*
%TO.C,R3*%
X95077742Y-66607500D02*
X95552258Y-66607500D01*
X95077742Y-67652500D02*
X95552258Y-67652500D01*
%TO.C,R2*%
X92447500Y-70062258D02*
X92447500Y-69587742D01*
X93492500Y-70062258D02*
X93492500Y-69587742D01*
%TO.C,R1*%
X90917500Y-70062258D02*
X90917500Y-69587742D01*
X91962500Y-70062258D02*
X91962500Y-69587742D01*
%TO.C,Q2*%
X103970000Y-60710000D02*
X103040000Y-60710000D01*
X100810000Y-60710000D02*
X101740000Y-60710000D01*
X100810000Y-60710000D02*
X100810000Y-62870000D01*
X103970000Y-60710000D02*
X103970000Y-62170000D01*
%TO.C,Q1*%
X100400000Y-60710000D02*
X99470000Y-60710000D01*
X97240000Y-60710000D02*
X98170000Y-60710000D01*
X97240000Y-60710000D02*
X97240000Y-62870000D01*
X100400000Y-60710000D02*
X100400000Y-62170000D01*
%TO.C,J2*%
X105220000Y-79450000D02*
X105220000Y-76790000D01*
X92460000Y-79450000D02*
X105220000Y-79450000D01*
X92460000Y-76790000D02*
X105220000Y-76790000D01*
X92460000Y-79450000D02*
X92460000Y-76790000D01*
X91190000Y-79450000D02*
X89860000Y-79450000D01*
X89860000Y-79450000D02*
X89860000Y-78120000D01*
%TO.C,J1*%
X102240000Y-49600000D02*
X102240000Y-47700000D01*
X102240000Y-53500000D02*
X102240000Y-51500000D01*
X92840000Y-49600000D02*
X92840000Y-47700000D01*
X92840000Y-53500000D02*
X92840000Y-51500000D01*
X102240000Y-47700000D02*
X92840000Y-47700000D01*
%TO.C,C3*%
X91960000Y-72744420D02*
X91960000Y-73025580D01*
X90940000Y-72744420D02*
X90940000Y-73025580D01*
%TO.C,C2*%
X100980000Y-66895580D02*
X100980000Y-66614420D01*
X102000000Y-66895580D02*
X102000000Y-66614420D01*
%TO.C,C1*%
X100460000Y-65223748D02*
X100460000Y-66646252D01*
X97740000Y-65223748D02*
X97740000Y-66646252D01*
%TO.C,D3*%
D11*
X91489404Y-74202380D02*
X91489404Y-73202380D01*
X91727500Y-73202380D01*
X91870357Y-73250000D01*
X91965595Y-73345238D01*
X92013214Y-73440476D01*
X92060833Y-73630952D01*
X92060833Y-73773809D01*
X92013214Y-73964285D01*
X91965595Y-74059523D01*
X91870357Y-74154761D01*
X91727500Y-74202380D01*
X91489404Y-74202380D01*
X92394166Y-73202380D02*
X93013214Y-73202380D01*
X92679880Y-73583333D01*
X92822738Y-73583333D01*
X92917976Y-73630952D01*
X92965595Y-73678571D01*
X93013214Y-73773809D01*
X93013214Y-74011904D01*
X92965595Y-74107142D01*
X92917976Y-74154761D01*
X92822738Y-74202380D01*
X92537023Y-74202380D01*
X92441785Y-74154761D01*
X92394166Y-74107142D01*
%TO.C,D2*%
X91519404Y-69012380D02*
X91519404Y-68012380D01*
X91757500Y-68012380D01*
X91900357Y-68060000D01*
X91995595Y-68155238D01*
X92043214Y-68250476D01*
X92090833Y-68440952D01*
X92090833Y-68583809D01*
X92043214Y-68774285D01*
X91995595Y-68869523D01*
X91900357Y-68964761D01*
X91757500Y-69012380D01*
X91519404Y-69012380D01*
X92471785Y-68107619D02*
X92519404Y-68060000D01*
X92614642Y-68012380D01*
X92852738Y-68012380D01*
X92947976Y-68060000D01*
X92995595Y-68107619D01*
X93043214Y-68202857D01*
X93043214Y-68298095D01*
X92995595Y-68440952D01*
X92424166Y-69012380D01*
X93043214Y-69012380D01*
%TO.C,D1*%
X91521904Y-67482380D02*
X91521904Y-66482380D01*
X91760000Y-66482380D01*
X91902857Y-66530000D01*
X91998095Y-66625238D01*
X92045714Y-66720476D01*
X92093333Y-66910952D01*
X92093333Y-67053809D01*
X92045714Y-67244285D01*
X91998095Y-67339523D01*
X91902857Y-67434761D01*
X91760000Y-67482380D01*
X91521904Y-67482380D01*
X93045714Y-67482380D02*
X92474285Y-67482380D01*
X92760000Y-67482380D02*
X92760000Y-66482380D01*
X92664761Y-66625238D01*
X92569523Y-66720476D01*
X92474285Y-66768095D01*
%TO.C,U2*%
X92918095Y-64642380D02*
X92918095Y-65451904D01*
X92965714Y-65547142D01*
X93013333Y-65594761D01*
X93108571Y-65642380D01*
X93299047Y-65642380D01*
X93394285Y-65594761D01*
X93441904Y-65547142D01*
X93489523Y-65451904D01*
X93489523Y-64642380D01*
X93918095Y-64737619D02*
X93965714Y-64690000D01*
X94060952Y-64642380D01*
X94299047Y-64642380D01*
X94394285Y-64690000D01*
X94441904Y-64737619D01*
X94489523Y-64832857D01*
X94489523Y-64928095D01*
X94441904Y-65070952D01*
X93870476Y-65642380D01*
X94489523Y-65642380D01*
%TO.C,U1*%
X97408095Y-75892380D02*
X97408095Y-76701904D01*
X97455714Y-76797142D01*
X97503333Y-76844761D01*
X97598571Y-76892380D01*
X97789047Y-76892380D01*
X97884285Y-76844761D01*
X97931904Y-76797142D01*
X97979523Y-76701904D01*
X97979523Y-75892380D01*
X98979523Y-76892380D02*
X98408095Y-76892380D01*
X98693809Y-76892380D02*
X98693809Y-75892380D01*
X98598571Y-76035238D01*
X98503333Y-76130476D01*
X98408095Y-76178095D01*
%TO.C,R8*%
X102468333Y-58002380D02*
X102135000Y-57526190D01*
X101896904Y-58002380D02*
X101896904Y-57002380D01*
X102277857Y-57002380D01*
X102373095Y-57050000D01*
X102420714Y-57097619D01*
X102468333Y-57192857D01*
X102468333Y-57335714D01*
X102420714Y-57430952D01*
X102373095Y-57478571D01*
X102277857Y-57526190D01*
X101896904Y-57526190D01*
X103039761Y-57430952D02*
X102944523Y-57383333D01*
X102896904Y-57335714D01*
X102849285Y-57240476D01*
X102849285Y-57192857D01*
X102896904Y-57097619D01*
X102944523Y-57050000D01*
X103039761Y-57002380D01*
X103230238Y-57002380D01*
X103325476Y-57050000D01*
X103373095Y-57097619D01*
X103420714Y-57192857D01*
X103420714Y-57240476D01*
X103373095Y-57335714D01*
X103325476Y-57383333D01*
X103230238Y-57430952D01*
X103039761Y-57430952D01*
X102944523Y-57478571D01*
X102896904Y-57526190D01*
X102849285Y-57621428D01*
X102849285Y-57811904D01*
X102896904Y-57907142D01*
X102944523Y-57954761D01*
X103039761Y-58002380D01*
X103230238Y-58002380D01*
X103325476Y-57954761D01*
X103373095Y-57907142D01*
X103420714Y-57811904D01*
X103420714Y-57621428D01*
X103373095Y-57526190D01*
X103325476Y-57478571D01*
X103230238Y-57430952D01*
%TO.C,R7*%
X98388333Y-60852380D02*
X98055000Y-60376190D01*
X97816904Y-60852380D02*
X97816904Y-59852380D01*
X98197857Y-59852380D01*
X98293095Y-59900000D01*
X98340714Y-59947619D01*
X98388333Y-60042857D01*
X98388333Y-60185714D01*
X98340714Y-60280952D01*
X98293095Y-60328571D01*
X98197857Y-60376190D01*
X97816904Y-60376190D01*
X98721666Y-59852380D02*
X99388333Y-59852380D01*
X98959761Y-60852380D01*
%TO.C,R6*%
X91992380Y-73051666D02*
X91516190Y-73385000D01*
X91992380Y-73623095D02*
X90992380Y-73623095D01*
X90992380Y-73242142D01*
X91040000Y-73146904D01*
X91087619Y-73099285D01*
X91182857Y-73051666D01*
X91325714Y-73051666D01*
X91420952Y-73099285D01*
X91468571Y-73146904D01*
X91516190Y-73242142D01*
X91516190Y-73623095D01*
X90992380Y-72194523D02*
X90992380Y-72385000D01*
X91040000Y-72480238D01*
X91087619Y-72527857D01*
X91230476Y-72623095D01*
X91420952Y-72670714D01*
X91801904Y-72670714D01*
X91897142Y-72623095D01*
X91944761Y-72575476D01*
X91992380Y-72480238D01*
X91992380Y-72289761D01*
X91944761Y-72194523D01*
X91897142Y-72146904D01*
X91801904Y-72099285D01*
X91563809Y-72099285D01*
X91468571Y-72146904D01*
X91420952Y-72194523D01*
X91373333Y-72289761D01*
X91373333Y-72480238D01*
X91420952Y-72575476D01*
X91468571Y-72623095D01*
X91563809Y-72670714D01*
%TO.C,R5*%
X92172380Y-62631666D02*
X91696190Y-62965000D01*
X92172380Y-63203095D02*
X91172380Y-63203095D01*
X91172380Y-62822142D01*
X91220000Y-62726904D01*
X91267619Y-62679285D01*
X91362857Y-62631666D01*
X91505714Y-62631666D01*
X91600952Y-62679285D01*
X91648571Y-62726904D01*
X91696190Y-62822142D01*
X91696190Y-63203095D01*
X91172380Y-61726904D02*
X91172380Y-62203095D01*
X91648571Y-62250714D01*
X91600952Y-62203095D01*
X91553333Y-62107857D01*
X91553333Y-61869761D01*
X91600952Y-61774523D01*
X91648571Y-61726904D01*
X91743809Y-61679285D01*
X91981904Y-61679285D01*
X92077142Y-61726904D01*
X92124761Y-61774523D01*
X92172380Y-61869761D01*
X92172380Y-62107857D01*
X92124761Y-62203095D01*
X92077142Y-62250714D01*
%TO.C,R4*%
X95148333Y-67472380D02*
X94815000Y-66996190D01*
X94576904Y-67472380D02*
X94576904Y-66472380D01*
X94957857Y-66472380D01*
X95053095Y-66520000D01*
X95100714Y-66567619D01*
X95148333Y-66662857D01*
X95148333Y-66805714D01*
X95100714Y-66900952D01*
X95053095Y-66948571D01*
X94957857Y-66996190D01*
X94576904Y-66996190D01*
X96005476Y-66805714D02*
X96005476Y-67472380D01*
X95767380Y-66424761D02*
X95529285Y-67139047D01*
X96148333Y-67139047D01*
%TO.C,R3*%
X95148333Y-66152380D02*
X94815000Y-65676190D01*
X94576904Y-66152380D02*
X94576904Y-65152380D01*
X94957857Y-65152380D01*
X95053095Y-65200000D01*
X95100714Y-65247619D01*
X95148333Y-65342857D01*
X95148333Y-65485714D01*
X95100714Y-65580952D01*
X95053095Y-65628571D01*
X94957857Y-65676190D01*
X94576904Y-65676190D01*
X95481666Y-65152380D02*
X96100714Y-65152380D01*
X95767380Y-65533333D01*
X95910238Y-65533333D01*
X96005476Y-65580952D01*
X96053095Y-65628571D01*
X96100714Y-65723809D01*
X96100714Y-65961904D01*
X96053095Y-66057142D01*
X96005476Y-66104761D01*
X95910238Y-66152380D01*
X95624523Y-66152380D01*
X95529285Y-66104761D01*
X95481666Y-66057142D01*
%TO.C,R2*%
X91992380Y-69991666D02*
X91516190Y-70325000D01*
X91992380Y-70563095D02*
X90992380Y-70563095D01*
X90992380Y-70182142D01*
X91040000Y-70086904D01*
X91087619Y-70039285D01*
X91182857Y-69991666D01*
X91325714Y-69991666D01*
X91420952Y-70039285D01*
X91468571Y-70086904D01*
X91516190Y-70182142D01*
X91516190Y-70563095D01*
X91087619Y-69610714D02*
X91040000Y-69563095D01*
X90992380Y-69467857D01*
X90992380Y-69229761D01*
X91040000Y-69134523D01*
X91087619Y-69086904D01*
X91182857Y-69039285D01*
X91278095Y-69039285D01*
X91420952Y-69086904D01*
X91992380Y-69658333D01*
X91992380Y-69039285D01*
%TO.C,R1*%
X90462380Y-69991666D02*
X89986190Y-70325000D01*
X90462380Y-70563095D02*
X89462380Y-70563095D01*
X89462380Y-70182142D01*
X89510000Y-70086904D01*
X89557619Y-70039285D01*
X89652857Y-69991666D01*
X89795714Y-69991666D01*
X89890952Y-70039285D01*
X89938571Y-70086904D01*
X89986190Y-70182142D01*
X89986190Y-70563095D01*
X90462380Y-69039285D02*
X90462380Y-69610714D01*
X90462380Y-69325000D02*
X89462380Y-69325000D01*
X89605238Y-69420238D01*
X89700476Y-69515476D01*
X89748095Y-69610714D01*
%TO.C,Q2*%
X100437619Y-61565238D02*
X100390000Y-61660476D01*
X100294761Y-61755714D01*
X100151904Y-61898571D01*
X100104285Y-61993809D01*
X100104285Y-62089047D01*
X100342380Y-62041428D02*
X100294761Y-62136666D01*
X100199523Y-62231904D01*
X100009047Y-62279523D01*
X99675714Y-62279523D01*
X99485238Y-62231904D01*
X99390000Y-62136666D01*
X99342380Y-62041428D01*
X99342380Y-61850952D01*
X99390000Y-61755714D01*
X99485238Y-61660476D01*
X99675714Y-61612857D01*
X100009047Y-61612857D01*
X100199523Y-61660476D01*
X100294761Y-61755714D01*
X100342380Y-61850952D01*
X100342380Y-62041428D01*
X99437619Y-61231904D02*
X99390000Y-61184285D01*
X99342380Y-61089047D01*
X99342380Y-60850952D01*
X99390000Y-60755714D01*
X99437619Y-60708095D01*
X99532857Y-60660476D01*
X99628095Y-60660476D01*
X99770952Y-60708095D01*
X100342380Y-61279523D01*
X100342380Y-60660476D01*
%TO.C,Q1*%
X96867619Y-61565238D02*
X96820000Y-61660476D01*
X96724761Y-61755714D01*
X96581904Y-61898571D01*
X96534285Y-61993809D01*
X96534285Y-62089047D01*
X96772380Y-62041428D02*
X96724761Y-62136666D01*
X96629523Y-62231904D01*
X96439047Y-62279523D01*
X96105714Y-62279523D01*
X95915238Y-62231904D01*
X95820000Y-62136666D01*
X95772380Y-62041428D01*
X95772380Y-61850952D01*
X95820000Y-61755714D01*
X95915238Y-61660476D01*
X96105714Y-61612857D01*
X96439047Y-61612857D01*
X96629523Y-61660476D01*
X96724761Y-61755714D01*
X96772380Y-61850952D01*
X96772380Y-62041428D01*
X96772380Y-60660476D02*
X96772380Y-61231904D01*
X96772380Y-60946190D02*
X95772380Y-60946190D01*
X95915238Y-61041428D01*
X96010476Y-61136666D01*
X96058095Y-61231904D01*
%TO.C,J2*%
X88312380Y-78453333D02*
X89026666Y-78453333D01*
X89169523Y-78500952D01*
X89264761Y-78596190D01*
X89312380Y-78739047D01*
X89312380Y-78834285D01*
X88407619Y-78024761D02*
X88360000Y-77977142D01*
X88312380Y-77881904D01*
X88312380Y-77643809D01*
X88360000Y-77548571D01*
X88407619Y-77500952D01*
X88502857Y-77453333D01*
X88598095Y-77453333D01*
X88740952Y-77500952D01*
X89312380Y-78072380D01*
X89312380Y-77453333D01*
%TO.C,J1*%
X97206666Y-56697380D02*
X97206666Y-57411666D01*
X97159047Y-57554523D01*
X97063809Y-57649761D01*
X96920952Y-57697380D01*
X96825714Y-57697380D01*
X98206666Y-57697380D02*
X97635238Y-57697380D01*
X97920952Y-57697380D02*
X97920952Y-56697380D01*
X97825714Y-56840238D01*
X97730476Y-56935476D01*
X97635238Y-56983095D01*
%TO.C,C3*%
X93237142Y-73051666D02*
X93284761Y-73099285D01*
X93332380Y-73242142D01*
X93332380Y-73337380D01*
X93284761Y-73480238D01*
X93189523Y-73575476D01*
X93094285Y-73623095D01*
X92903809Y-73670714D01*
X92760952Y-73670714D01*
X92570476Y-73623095D01*
X92475238Y-73575476D01*
X92380000Y-73480238D01*
X92332380Y-73337380D01*
X92332380Y-73242142D01*
X92380000Y-73099285D01*
X92427619Y-73051666D01*
X92332380Y-72718333D02*
X92332380Y-72099285D01*
X92713333Y-72432619D01*
X92713333Y-72289761D01*
X92760952Y-72194523D01*
X92808571Y-72146904D01*
X92903809Y-72099285D01*
X93141904Y-72099285D01*
X93237142Y-72146904D01*
X93284761Y-72194523D01*
X93332380Y-72289761D01*
X93332380Y-72575476D01*
X93284761Y-72670714D01*
X93237142Y-72718333D01*
%TO.C,C2*%
X100417142Y-66921666D02*
X100464761Y-66969285D01*
X100512380Y-67112142D01*
X100512380Y-67207380D01*
X100464761Y-67350238D01*
X100369523Y-67445476D01*
X100274285Y-67493095D01*
X100083809Y-67540714D01*
X99940952Y-67540714D01*
X99750476Y-67493095D01*
X99655238Y-67445476D01*
X99560000Y-67350238D01*
X99512380Y-67207380D01*
X99512380Y-67112142D01*
X99560000Y-66969285D01*
X99607619Y-66921666D01*
X99607619Y-66540714D02*
X99560000Y-66493095D01*
X99512380Y-66397857D01*
X99512380Y-66159761D01*
X99560000Y-66064523D01*
X99607619Y-66016904D01*
X99702857Y-65969285D01*
X99798095Y-65969285D01*
X99940952Y-66016904D01*
X100512380Y-66588333D01*
X100512380Y-65969285D01*
%TO.C,C1*%
X101757142Y-66101666D02*
X101804761Y-66149285D01*
X101852380Y-66292142D01*
X101852380Y-66387380D01*
X101804761Y-66530238D01*
X101709523Y-66625476D01*
X101614285Y-66673095D01*
X101423809Y-66720714D01*
X101280952Y-66720714D01*
X101090476Y-66673095D01*
X100995238Y-66625476D01*
X100900000Y-66530238D01*
X100852380Y-66387380D01*
X100852380Y-66292142D01*
X100900000Y-66149285D01*
X100947619Y-66101666D01*
X101852380Y-65149285D02*
X101852380Y-65720714D01*
X101852380Y-65435000D02*
X100852380Y-65435000D01*
X100995238Y-65530238D01*
X101090476Y-65625476D01*
X101138095Y-65720714D01*
%TD*%
M02*
