%TF.GenerationSoftware,KiCad,Pcbnew,(5.1.9)-1*%
%TF.CreationDate,2021-05-04T17:18:08+07:00*%
%TF.ProjectId,usb_debug,7573625f-6465-4627-9567-2e6b69636164,rev?*%
%TF.SameCoordinates,Original*%
%TF.FileFunction,Copper,L1,Top*%
%TF.FilePolarity,Positive*%
%FSLAX46Y46*%
G04 Gerber Fmt 4.6, Leading zero omitted, Abs format (unit mm)*
G04 Created by KiCad (PCBNEW (5.1.9)-1) date 2021-05-04 17:18:08*
%MOMM*%
%LPD*%
G01*
G04 APERTURE LIST*
%TA.AperFunction,SMDPad,CuDef*%
%ADD10R,2.600000X2.600000*%
%TD*%
%TA.AperFunction,SMDPad,CuDef*%
%ADD11R,2.000000X1.500000*%
%TD*%
%TA.AperFunction,SMDPad,CuDef*%
%ADD12R,2.000000X3.800000*%
%TD*%
%TA.AperFunction,SMDPad,CuDef*%
%ADD13R,0.800000X0.900000*%
%TD*%
%TA.AperFunction,ComponentPad*%
%ADD14O,1.700000X1.700000*%
%TD*%
%TA.AperFunction,ComponentPad*%
%ADD15R,1.700000X1.700000*%
%TD*%
%TA.AperFunction,SMDPad,CuDef*%
%ADD16R,0.600000X1.450000*%
%TD*%
%TA.AperFunction,SMDPad,CuDef*%
%ADD17R,0.300000X1.450000*%
%TD*%
%TA.AperFunction,ComponentPad*%
%ADD18O,1.000000X2.100000*%
%TD*%
%TA.AperFunction,ComponentPad*%
%ADD19O,1.000000X1.600000*%
%TD*%
%TA.AperFunction,ViaPad*%
%ADD20C,0.400000*%
%TD*%
%TA.AperFunction,Conductor*%
%ADD21C,0.250000*%
%TD*%
%TA.AperFunction,Conductor*%
%ADD22C,0.800000*%
%TD*%
%TA.AperFunction,Conductor*%
%ADD23C,0.400000*%
%TD*%
%TA.AperFunction,Conductor*%
%ADD24C,1.000000*%
%TD*%
%TA.AperFunction,Conductor*%
%ADD25C,0.254000*%
%TD*%
%TA.AperFunction,Conductor*%
%ADD26C,0.100000*%
%TD*%
G04 APERTURE END LIST*
%TO.P,D3,2*%
%TO.N,Net-(D3-Pad2)*%
%TA.AperFunction,SMDPad,CuDef*%
G36*
G01*
X92577500Y-75436250D02*
X92577500Y-74923750D01*
G75*
G02*
X92796250Y-74705000I218750J0D01*
G01*
X93233750Y-74705000D01*
G75*
G02*
X93452500Y-74923750I0J-218750D01*
G01*
X93452500Y-75436250D01*
G75*
G02*
X93233750Y-75655000I-218750J0D01*
G01*
X92796250Y-75655000D01*
G75*
G02*
X92577500Y-75436250I0J218750D01*
G01*
G37*
%TD.AperFunction*%
%TO.P,D3,1*%
%TO.N,GND*%
%TA.AperFunction,SMDPad,CuDef*%
G36*
G01*
X91002500Y-75436250D02*
X91002500Y-74923750D01*
G75*
G02*
X91221250Y-74705000I218750J0D01*
G01*
X91658750Y-74705000D01*
G75*
G02*
X91877500Y-74923750I0J-218750D01*
G01*
X91877500Y-75436250D01*
G75*
G02*
X91658750Y-75655000I-218750J0D01*
G01*
X91221250Y-75655000D01*
G75*
G02*
X91002500Y-75436250I0J218750D01*
G01*
G37*
%TD.AperFunction*%
%TD*%
%TO.P,D2,2*%
%TO.N,Net-(D2-Pad2)*%
%TA.AperFunction,SMDPad,CuDef*%
G36*
G01*
X91907500Y-66873750D02*
X91907500Y-67386250D01*
G75*
G02*
X91688750Y-67605000I-218750J0D01*
G01*
X91251250Y-67605000D01*
G75*
G02*
X91032500Y-67386250I0J218750D01*
G01*
X91032500Y-66873750D01*
G75*
G02*
X91251250Y-66655000I218750J0D01*
G01*
X91688750Y-66655000D01*
G75*
G02*
X91907500Y-66873750I0J-218750D01*
G01*
G37*
%TD.AperFunction*%
%TO.P,D2,1*%
%TO.N,TX0*%
%TA.AperFunction,SMDPad,CuDef*%
G36*
G01*
X93482500Y-66873750D02*
X93482500Y-67386250D01*
G75*
G02*
X93263750Y-67605000I-218750J0D01*
G01*
X92826250Y-67605000D01*
G75*
G02*
X92607500Y-67386250I0J218750D01*
G01*
X92607500Y-66873750D01*
G75*
G02*
X92826250Y-66655000I218750J0D01*
G01*
X93263750Y-66655000D01*
G75*
G02*
X93482500Y-66873750I0J-218750D01*
G01*
G37*
%TD.AperFunction*%
%TD*%
%TO.P,D1,2*%
%TO.N,Net-(D1-Pad2)*%
%TA.AperFunction,SMDPad,CuDef*%
G36*
G01*
X91910000Y-65343750D02*
X91910000Y-65856250D01*
G75*
G02*
X91691250Y-66075000I-218750J0D01*
G01*
X91253750Y-66075000D01*
G75*
G02*
X91035000Y-65856250I0J218750D01*
G01*
X91035000Y-65343750D01*
G75*
G02*
X91253750Y-65125000I218750J0D01*
G01*
X91691250Y-65125000D01*
G75*
G02*
X91910000Y-65343750I0J-218750D01*
G01*
G37*
%TD.AperFunction*%
%TO.P,D1,1*%
%TO.N,RX0*%
%TA.AperFunction,SMDPad,CuDef*%
G36*
G01*
X93485000Y-65343750D02*
X93485000Y-65856250D01*
G75*
G02*
X93266250Y-66075000I-218750J0D01*
G01*
X92828750Y-66075000D01*
G75*
G02*
X92610000Y-65856250I0J218750D01*
G01*
X92610000Y-65343750D01*
G75*
G02*
X92828750Y-65125000I218750J0D01*
G01*
X93266250Y-65125000D01*
G75*
G02*
X93485000Y-65343750I0J-218750D01*
G01*
G37*
%TD.AperFunction*%
%TD*%
D10*
%TO.P,U2,25*%
%TO.N,Net-(U2-Pad25)*%
X93680000Y-61890000D03*
%TO.P,U2,24*%
%TO.N,Net-(U2-Pad24)*%
%TA.AperFunction,SMDPad,CuDef*%
G36*
G01*
X95055000Y-63477500D02*
X95055000Y-64177500D01*
G75*
G02*
X94992500Y-64240000I-62500J0D01*
G01*
X94867500Y-64240000D01*
G75*
G02*
X94805000Y-64177500I0J62500D01*
G01*
X94805000Y-63477500D01*
G75*
G02*
X94867500Y-63415000I62500J0D01*
G01*
X94992500Y-63415000D01*
G75*
G02*
X95055000Y-63477500I0J-62500D01*
G01*
G37*
%TD.AperFunction*%
%TO.P,U2,23*%
%TO.N,DTR*%
%TA.AperFunction,SMDPad,CuDef*%
G36*
G01*
X94555000Y-63477500D02*
X94555000Y-64177500D01*
G75*
G02*
X94492500Y-64240000I-62500J0D01*
G01*
X94367500Y-64240000D01*
G75*
G02*
X94305000Y-64177500I0J62500D01*
G01*
X94305000Y-63477500D01*
G75*
G02*
X94367500Y-63415000I62500J0D01*
G01*
X94492500Y-63415000D01*
G75*
G02*
X94555000Y-63477500I0J-62500D01*
G01*
G37*
%TD.AperFunction*%
%TO.P,U2,22*%
%TO.N,Net-(U2-Pad22)*%
%TA.AperFunction,SMDPad,CuDef*%
G36*
G01*
X94055000Y-63477500D02*
X94055000Y-64177500D01*
G75*
G02*
X93992500Y-64240000I-62500J0D01*
G01*
X93867500Y-64240000D01*
G75*
G02*
X93805000Y-64177500I0J62500D01*
G01*
X93805000Y-63477500D01*
G75*
G02*
X93867500Y-63415000I62500J0D01*
G01*
X93992500Y-63415000D01*
G75*
G02*
X94055000Y-63477500I0J-62500D01*
G01*
G37*
%TD.AperFunction*%
%TO.P,U2,21*%
%TO.N,Net-(R3-Pad2)*%
%TA.AperFunction,SMDPad,CuDef*%
G36*
G01*
X93555000Y-63477500D02*
X93555000Y-64177500D01*
G75*
G02*
X93492500Y-64240000I-62500J0D01*
G01*
X93367500Y-64240000D01*
G75*
G02*
X93305000Y-64177500I0J62500D01*
G01*
X93305000Y-63477500D01*
G75*
G02*
X93367500Y-63415000I62500J0D01*
G01*
X93492500Y-63415000D01*
G75*
G02*
X93555000Y-63477500I0J-62500D01*
G01*
G37*
%TD.AperFunction*%
%TO.P,U2,20*%
%TO.N,Net-(R4-Pad1)*%
%TA.AperFunction,SMDPad,CuDef*%
G36*
G01*
X93055000Y-63477500D02*
X93055000Y-64177500D01*
G75*
G02*
X92992500Y-64240000I-62500J0D01*
G01*
X92867500Y-64240000D01*
G75*
G02*
X92805000Y-64177500I0J62500D01*
G01*
X92805000Y-63477500D01*
G75*
G02*
X92867500Y-63415000I62500J0D01*
G01*
X92992500Y-63415000D01*
G75*
G02*
X93055000Y-63477500I0J-62500D01*
G01*
G37*
%TD.AperFunction*%
%TO.P,U2,19*%
%TO.N,RTS*%
%TA.AperFunction,SMDPad,CuDef*%
G36*
G01*
X92555000Y-63477500D02*
X92555000Y-64177500D01*
G75*
G02*
X92492500Y-64240000I-62500J0D01*
G01*
X92367500Y-64240000D01*
G75*
G02*
X92305000Y-64177500I0J62500D01*
G01*
X92305000Y-63477500D01*
G75*
G02*
X92367500Y-63415000I62500J0D01*
G01*
X92492500Y-63415000D01*
G75*
G02*
X92555000Y-63477500I0J-62500D01*
G01*
G37*
%TD.AperFunction*%
%TO.P,U2,18*%
%TO.N,Net-(U2-Pad18)*%
%TA.AperFunction,SMDPad,CuDef*%
G36*
G01*
X92155000Y-63077500D02*
X92155000Y-63202500D01*
G75*
G02*
X92092500Y-63265000I-62500J0D01*
G01*
X91392500Y-63265000D01*
G75*
G02*
X91330000Y-63202500I0J62500D01*
G01*
X91330000Y-63077500D01*
G75*
G02*
X91392500Y-63015000I62500J0D01*
G01*
X92092500Y-63015000D01*
G75*
G02*
X92155000Y-63077500I0J-62500D01*
G01*
G37*
%TD.AperFunction*%
%TO.P,U2,17*%
%TO.N,Net-(U2-Pad17)*%
%TA.AperFunction,SMDPad,CuDef*%
G36*
G01*
X92155000Y-62577500D02*
X92155000Y-62702500D01*
G75*
G02*
X92092500Y-62765000I-62500J0D01*
G01*
X91392500Y-62765000D01*
G75*
G02*
X91330000Y-62702500I0J62500D01*
G01*
X91330000Y-62577500D01*
G75*
G02*
X91392500Y-62515000I62500J0D01*
G01*
X92092500Y-62515000D01*
G75*
G02*
X92155000Y-62577500I0J-62500D01*
G01*
G37*
%TD.AperFunction*%
%TO.P,U2,16*%
%TO.N,Net-(U2-Pad16)*%
%TA.AperFunction,SMDPad,CuDef*%
G36*
G01*
X92155000Y-62077500D02*
X92155000Y-62202500D01*
G75*
G02*
X92092500Y-62265000I-62500J0D01*
G01*
X91392500Y-62265000D01*
G75*
G02*
X91330000Y-62202500I0J62500D01*
G01*
X91330000Y-62077500D01*
G75*
G02*
X91392500Y-62015000I62500J0D01*
G01*
X92092500Y-62015000D01*
G75*
G02*
X92155000Y-62077500I0J-62500D01*
G01*
G37*
%TD.AperFunction*%
%TO.P,U2,15*%
%TO.N,SU-*%
%TA.AperFunction,SMDPad,CuDef*%
G36*
G01*
X92155000Y-61577500D02*
X92155000Y-61702500D01*
G75*
G02*
X92092500Y-61765000I-62500J0D01*
G01*
X91392500Y-61765000D01*
G75*
G02*
X91330000Y-61702500I0J62500D01*
G01*
X91330000Y-61577500D01*
G75*
G02*
X91392500Y-61515000I62500J0D01*
G01*
X92092500Y-61515000D01*
G75*
G02*
X92155000Y-61577500I0J-62500D01*
G01*
G37*
%TD.AperFunction*%
%TO.P,U2,14*%
%TO.N,Net-(U2-Pad14)*%
%TA.AperFunction,SMDPad,CuDef*%
G36*
G01*
X92155000Y-61077500D02*
X92155000Y-61202500D01*
G75*
G02*
X92092500Y-61265000I-62500J0D01*
G01*
X91392500Y-61265000D01*
G75*
G02*
X91330000Y-61202500I0J62500D01*
G01*
X91330000Y-61077500D01*
G75*
G02*
X91392500Y-61015000I62500J0D01*
G01*
X92092500Y-61015000D01*
G75*
G02*
X92155000Y-61077500I0J-62500D01*
G01*
G37*
%TD.AperFunction*%
%TO.P,U2,13*%
%TO.N,Net-(U2-Pad13)*%
%TA.AperFunction,SMDPad,CuDef*%
G36*
G01*
X92155000Y-60577500D02*
X92155000Y-60702500D01*
G75*
G02*
X92092500Y-60765000I-62500J0D01*
G01*
X91392500Y-60765000D01*
G75*
G02*
X91330000Y-60702500I0J62500D01*
G01*
X91330000Y-60577500D01*
G75*
G02*
X91392500Y-60515000I62500J0D01*
G01*
X92092500Y-60515000D01*
G75*
G02*
X92155000Y-60577500I0J-62500D01*
G01*
G37*
%TD.AperFunction*%
%TO.P,U2,12*%
%TO.N,Net-(U2-Pad12)*%
%TA.AperFunction,SMDPad,CuDef*%
G36*
G01*
X92555000Y-59602500D02*
X92555000Y-60302500D01*
G75*
G02*
X92492500Y-60365000I-62500J0D01*
G01*
X92367500Y-60365000D01*
G75*
G02*
X92305000Y-60302500I0J62500D01*
G01*
X92305000Y-59602500D01*
G75*
G02*
X92367500Y-59540000I62500J0D01*
G01*
X92492500Y-59540000D01*
G75*
G02*
X92555000Y-59602500I0J-62500D01*
G01*
G37*
%TD.AperFunction*%
%TO.P,U2,11*%
%TO.N,Net-(U2-Pad11)*%
%TA.AperFunction,SMDPad,CuDef*%
G36*
G01*
X93055000Y-59602500D02*
X93055000Y-60302500D01*
G75*
G02*
X92992500Y-60365000I-62500J0D01*
G01*
X92867500Y-60365000D01*
G75*
G02*
X92805000Y-60302500I0J62500D01*
G01*
X92805000Y-59602500D01*
G75*
G02*
X92867500Y-59540000I62500J0D01*
G01*
X92992500Y-59540000D01*
G75*
G02*
X93055000Y-59602500I0J-62500D01*
G01*
G37*
%TD.AperFunction*%
%TO.P,U2,10*%
%TO.N,Net-(U2-Pad10)*%
%TA.AperFunction,SMDPad,CuDef*%
G36*
G01*
X93555000Y-59602500D02*
X93555000Y-60302500D01*
G75*
G02*
X93492500Y-60365000I-62500J0D01*
G01*
X93367500Y-60365000D01*
G75*
G02*
X93305000Y-60302500I0J62500D01*
G01*
X93305000Y-59602500D01*
G75*
G02*
X93367500Y-59540000I62500J0D01*
G01*
X93492500Y-59540000D01*
G75*
G02*
X93555000Y-59602500I0J-62500D01*
G01*
G37*
%TD.AperFunction*%
%TO.P,U2,9*%
%TO.N,Net-(U2-Pad9)*%
%TA.AperFunction,SMDPad,CuDef*%
G36*
G01*
X94055000Y-59602500D02*
X94055000Y-60302500D01*
G75*
G02*
X93992500Y-60365000I-62500J0D01*
G01*
X93867500Y-60365000D01*
G75*
G02*
X93805000Y-60302500I0J62500D01*
G01*
X93805000Y-59602500D01*
G75*
G02*
X93867500Y-59540000I62500J0D01*
G01*
X93992500Y-59540000D01*
G75*
G02*
X94055000Y-59602500I0J-62500D01*
G01*
G37*
%TD.AperFunction*%
%TO.P,U2,8*%
%TO.N,+5V*%
%TA.AperFunction,SMDPad,CuDef*%
G36*
G01*
X94555000Y-59602500D02*
X94555000Y-60302500D01*
G75*
G02*
X94492500Y-60365000I-62500J0D01*
G01*
X94367500Y-60365000D01*
G75*
G02*
X94305000Y-60302500I0J62500D01*
G01*
X94305000Y-59602500D01*
G75*
G02*
X94367500Y-59540000I62500J0D01*
G01*
X94492500Y-59540000D01*
G75*
G02*
X94555000Y-59602500I0J-62500D01*
G01*
G37*
%TD.AperFunction*%
%TO.P,U2,7*%
%TA.AperFunction,SMDPad,CuDef*%
G36*
G01*
X95055000Y-59602500D02*
X95055000Y-60302500D01*
G75*
G02*
X94992500Y-60365000I-62500J0D01*
G01*
X94867500Y-60365000D01*
G75*
G02*
X94805000Y-60302500I0J62500D01*
G01*
X94805000Y-59602500D01*
G75*
G02*
X94867500Y-59540000I62500J0D01*
G01*
X94992500Y-59540000D01*
G75*
G02*
X95055000Y-59602500I0J-62500D01*
G01*
G37*
%TD.AperFunction*%
%TO.P,U2,6*%
%TO.N,Net-(U2-Pad6)*%
%TA.AperFunction,SMDPad,CuDef*%
G36*
G01*
X96030000Y-60577500D02*
X96030000Y-60702500D01*
G75*
G02*
X95967500Y-60765000I-62500J0D01*
G01*
X95267500Y-60765000D01*
G75*
G02*
X95205000Y-60702500I0J62500D01*
G01*
X95205000Y-60577500D01*
G75*
G02*
X95267500Y-60515000I62500J0D01*
G01*
X95967500Y-60515000D01*
G75*
G02*
X96030000Y-60577500I0J-62500D01*
G01*
G37*
%TD.AperFunction*%
%TO.P,U2,5*%
%TO.N,Net-(U2-Pad5)*%
%TA.AperFunction,SMDPad,CuDef*%
G36*
G01*
X96030000Y-61077500D02*
X96030000Y-61202500D01*
G75*
G02*
X95967500Y-61265000I-62500J0D01*
G01*
X95267500Y-61265000D01*
G75*
G02*
X95205000Y-61202500I0J62500D01*
G01*
X95205000Y-61077500D01*
G75*
G02*
X95267500Y-61015000I62500J0D01*
G01*
X95967500Y-61015000D01*
G75*
G02*
X96030000Y-61077500I0J-62500D01*
G01*
G37*
%TD.AperFunction*%
%TO.P,U2,4*%
%TO.N,D-*%
%TA.AperFunction,SMDPad,CuDef*%
G36*
G01*
X96030000Y-61577500D02*
X96030000Y-61702500D01*
G75*
G02*
X95967500Y-61765000I-62500J0D01*
G01*
X95267500Y-61765000D01*
G75*
G02*
X95205000Y-61702500I0J62500D01*
G01*
X95205000Y-61577500D01*
G75*
G02*
X95267500Y-61515000I62500J0D01*
G01*
X95967500Y-61515000D01*
G75*
G02*
X96030000Y-61577500I0J-62500D01*
G01*
G37*
%TD.AperFunction*%
%TO.P,U2,3*%
%TO.N,D+*%
%TA.AperFunction,SMDPad,CuDef*%
G36*
G01*
X96030000Y-62077500D02*
X96030000Y-62202500D01*
G75*
G02*
X95967500Y-62265000I-62500J0D01*
G01*
X95267500Y-62265000D01*
G75*
G02*
X95205000Y-62202500I0J62500D01*
G01*
X95205000Y-62077500D01*
G75*
G02*
X95267500Y-62015000I62500J0D01*
G01*
X95967500Y-62015000D01*
G75*
G02*
X96030000Y-62077500I0J-62500D01*
G01*
G37*
%TD.AperFunction*%
%TO.P,U2,2*%
%TO.N,GND*%
%TA.AperFunction,SMDPad,CuDef*%
G36*
G01*
X96030000Y-62577500D02*
X96030000Y-62702500D01*
G75*
G02*
X95967500Y-62765000I-62500J0D01*
G01*
X95267500Y-62765000D01*
G75*
G02*
X95205000Y-62702500I0J62500D01*
G01*
X95205000Y-62577500D01*
G75*
G02*
X95267500Y-62515000I62500J0D01*
G01*
X95967500Y-62515000D01*
G75*
G02*
X96030000Y-62577500I0J-62500D01*
G01*
G37*
%TD.AperFunction*%
%TO.P,U2,1*%
%TO.N,Net-(U2-Pad1)*%
%TA.AperFunction,SMDPad,CuDef*%
G36*
G01*
X96030000Y-63077500D02*
X96030000Y-63202500D01*
G75*
G02*
X95967500Y-63265000I-62500J0D01*
G01*
X95267500Y-63265000D01*
G75*
G02*
X95205000Y-63202500I0J62500D01*
G01*
X95205000Y-63077500D01*
G75*
G02*
X95267500Y-63015000I62500J0D01*
G01*
X95967500Y-63015000D01*
G75*
G02*
X96030000Y-63077500I0J-62500D01*
G01*
G37*
%TD.AperFunction*%
%TD*%
D11*
%TO.P,U1,1*%
%TO.N,GND*%
X101320000Y-74240000D03*
%TO.P,U1,3*%
%TO.N,+5V*%
X101320000Y-69640000D03*
%TO.P,U1,2*%
%TO.N,+3V3*%
X101320000Y-71940000D03*
D12*
X95020000Y-71940000D03*
%TD*%
%TO.P,R8,2*%
%TO.N,Net-(Q2-Pad1)*%
%TA.AperFunction,SMDPad,CuDef*%
G36*
G01*
X103060000Y-59255000D02*
X103060000Y-58705000D01*
G75*
G02*
X103260000Y-58505000I200000J0D01*
G01*
X103660000Y-58505000D01*
G75*
G02*
X103860000Y-58705000I0J-200000D01*
G01*
X103860000Y-59255000D01*
G75*
G02*
X103660000Y-59455000I-200000J0D01*
G01*
X103260000Y-59455000D01*
G75*
G02*
X103060000Y-59255000I0J200000D01*
G01*
G37*
%TD.AperFunction*%
%TO.P,R8,1*%
%TO.N,DTR*%
%TA.AperFunction,SMDPad,CuDef*%
G36*
G01*
X101410000Y-59255000D02*
X101410000Y-58705000D01*
G75*
G02*
X101610000Y-58505000I200000J0D01*
G01*
X102010000Y-58505000D01*
G75*
G02*
X102210000Y-58705000I0J-200000D01*
G01*
X102210000Y-59255000D01*
G75*
G02*
X102010000Y-59455000I-200000J0D01*
G01*
X101610000Y-59455000D01*
G75*
G02*
X101410000Y-59255000I0J200000D01*
G01*
G37*
%TD.AperFunction*%
%TD*%
%TO.P,R7,2*%
%TO.N,Net-(Q1-Pad1)*%
%TA.AperFunction,SMDPad,CuDef*%
G36*
G01*
X98130000Y-58695000D02*
X98130000Y-59245000D01*
G75*
G02*
X97930000Y-59445000I-200000J0D01*
G01*
X97530000Y-59445000D01*
G75*
G02*
X97330000Y-59245000I0J200000D01*
G01*
X97330000Y-58695000D01*
G75*
G02*
X97530000Y-58495000I200000J0D01*
G01*
X97930000Y-58495000D01*
G75*
G02*
X98130000Y-58695000I0J-200000D01*
G01*
G37*
%TD.AperFunction*%
%TO.P,R7,1*%
%TO.N,RTS*%
%TA.AperFunction,SMDPad,CuDef*%
G36*
G01*
X99780000Y-58695000D02*
X99780000Y-59245000D01*
G75*
G02*
X99580000Y-59445000I-200000J0D01*
G01*
X99180000Y-59445000D01*
G75*
G02*
X98980000Y-59245000I0J200000D01*
G01*
X98980000Y-58695000D01*
G75*
G02*
X99180000Y-58495000I200000J0D01*
G01*
X99580000Y-58495000D01*
G75*
G02*
X99780000Y-58695000I0J-200000D01*
G01*
G37*
%TD.AperFunction*%
%TD*%
%TO.P,R6,2*%
%TO.N,+3V3*%
%TA.AperFunction,SMDPad,CuDef*%
G36*
G01*
X93245000Y-72460000D02*
X92695000Y-72460000D01*
G75*
G02*
X92495000Y-72260000I0J200000D01*
G01*
X92495000Y-71860000D01*
G75*
G02*
X92695000Y-71660000I200000J0D01*
G01*
X93245000Y-71660000D01*
G75*
G02*
X93445000Y-71860000I0J-200000D01*
G01*
X93445000Y-72260000D01*
G75*
G02*
X93245000Y-72460000I-200000J0D01*
G01*
G37*
%TD.AperFunction*%
%TO.P,R6,1*%
%TO.N,Net-(D3-Pad2)*%
%TA.AperFunction,SMDPad,CuDef*%
G36*
G01*
X93245000Y-74110000D02*
X92695000Y-74110000D01*
G75*
G02*
X92495000Y-73910000I0J200000D01*
G01*
X92495000Y-73510000D01*
G75*
G02*
X92695000Y-73310000I200000J0D01*
G01*
X93245000Y-73310000D01*
G75*
G02*
X93445000Y-73510000I0J-200000D01*
G01*
X93445000Y-73910000D01*
G75*
G02*
X93245000Y-74110000I-200000J0D01*
G01*
G37*
%TD.AperFunction*%
%TD*%
%TO.P,R5,2*%
%TO.N,GND*%
%TA.AperFunction,SMDPad,CuDef*%
G36*
G01*
X90015000Y-62890000D02*
X90565000Y-62890000D01*
G75*
G02*
X90765000Y-63090000I0J-200000D01*
G01*
X90765000Y-63490000D01*
G75*
G02*
X90565000Y-63690000I-200000J0D01*
G01*
X90015000Y-63690000D01*
G75*
G02*
X89815000Y-63490000I0J200000D01*
G01*
X89815000Y-63090000D01*
G75*
G02*
X90015000Y-62890000I200000J0D01*
G01*
G37*
%TD.AperFunction*%
%TO.P,R5,1*%
%TO.N,SU-*%
%TA.AperFunction,SMDPad,CuDef*%
G36*
G01*
X90015000Y-61240000D02*
X90565000Y-61240000D01*
G75*
G02*
X90765000Y-61440000I0J-200000D01*
G01*
X90765000Y-61840000D01*
G75*
G02*
X90565000Y-62040000I-200000J0D01*
G01*
X90015000Y-62040000D01*
G75*
G02*
X89815000Y-61840000I0J200000D01*
G01*
X89815000Y-61440000D01*
G75*
G02*
X90015000Y-61240000I200000J0D01*
G01*
G37*
%TD.AperFunction*%
%TD*%
%TO.P,R4,2*%
%TO.N,RX0*%
%TA.AperFunction,SMDPad,CuDef*%
G36*
G01*
X94890000Y-65315000D02*
X94890000Y-65865000D01*
G75*
G02*
X94690000Y-66065000I-200000J0D01*
G01*
X94290000Y-66065000D01*
G75*
G02*
X94090000Y-65865000I0J200000D01*
G01*
X94090000Y-65315000D01*
G75*
G02*
X94290000Y-65115000I200000J0D01*
G01*
X94690000Y-65115000D01*
G75*
G02*
X94890000Y-65315000I0J-200000D01*
G01*
G37*
%TD.AperFunction*%
%TO.P,R4,1*%
%TO.N,Net-(R4-Pad1)*%
%TA.AperFunction,SMDPad,CuDef*%
G36*
G01*
X96540000Y-65315000D02*
X96540000Y-65865000D01*
G75*
G02*
X96340000Y-66065000I-200000J0D01*
G01*
X95940000Y-66065000D01*
G75*
G02*
X95740000Y-65865000I0J200000D01*
G01*
X95740000Y-65315000D01*
G75*
G02*
X95940000Y-65115000I200000J0D01*
G01*
X96340000Y-65115000D01*
G75*
G02*
X96540000Y-65315000I0J-200000D01*
G01*
G37*
%TD.AperFunction*%
%TD*%
%TO.P,R3,2*%
%TO.N,Net-(R3-Pad2)*%
%TA.AperFunction,SMDPad,CuDef*%
G36*
G01*
X95740000Y-67405000D02*
X95740000Y-66855000D01*
G75*
G02*
X95940000Y-66655000I200000J0D01*
G01*
X96340000Y-66655000D01*
G75*
G02*
X96540000Y-66855000I0J-200000D01*
G01*
X96540000Y-67405000D01*
G75*
G02*
X96340000Y-67605000I-200000J0D01*
G01*
X95940000Y-67605000D01*
G75*
G02*
X95740000Y-67405000I0J200000D01*
G01*
G37*
%TD.AperFunction*%
%TO.P,R3,1*%
%TO.N,TX0*%
%TA.AperFunction,SMDPad,CuDef*%
G36*
G01*
X94090000Y-67405000D02*
X94090000Y-66855000D01*
G75*
G02*
X94290000Y-66655000I200000J0D01*
G01*
X94690000Y-66655000D01*
G75*
G02*
X94890000Y-66855000I0J-200000D01*
G01*
X94890000Y-67405000D01*
G75*
G02*
X94690000Y-67605000I-200000J0D01*
G01*
X94290000Y-67605000D01*
G75*
G02*
X94090000Y-67405000I0J200000D01*
G01*
G37*
%TD.AperFunction*%
%TD*%
%TO.P,R2,2*%
%TO.N,Net-(D2-Pad2)*%
%TA.AperFunction,SMDPad,CuDef*%
G36*
G01*
X93245000Y-69400000D02*
X92695000Y-69400000D01*
G75*
G02*
X92495000Y-69200000I0J200000D01*
G01*
X92495000Y-68800000D01*
G75*
G02*
X92695000Y-68600000I200000J0D01*
G01*
X93245000Y-68600000D01*
G75*
G02*
X93445000Y-68800000I0J-200000D01*
G01*
X93445000Y-69200000D01*
G75*
G02*
X93245000Y-69400000I-200000J0D01*
G01*
G37*
%TD.AperFunction*%
%TO.P,R2,1*%
%TO.N,+3V3*%
%TA.AperFunction,SMDPad,CuDef*%
G36*
G01*
X93245000Y-71050000D02*
X92695000Y-71050000D01*
G75*
G02*
X92495000Y-70850000I0J200000D01*
G01*
X92495000Y-70450000D01*
G75*
G02*
X92695000Y-70250000I200000J0D01*
G01*
X93245000Y-70250000D01*
G75*
G02*
X93445000Y-70450000I0J-200000D01*
G01*
X93445000Y-70850000D01*
G75*
G02*
X93245000Y-71050000I-200000J0D01*
G01*
G37*
%TD.AperFunction*%
%TD*%
%TO.P,R1,2*%
%TO.N,Net-(D1-Pad2)*%
%TA.AperFunction,SMDPad,CuDef*%
G36*
G01*
X91715000Y-69400000D02*
X91165000Y-69400000D01*
G75*
G02*
X90965000Y-69200000I0J200000D01*
G01*
X90965000Y-68800000D01*
G75*
G02*
X91165000Y-68600000I200000J0D01*
G01*
X91715000Y-68600000D01*
G75*
G02*
X91915000Y-68800000I0J-200000D01*
G01*
X91915000Y-69200000D01*
G75*
G02*
X91715000Y-69400000I-200000J0D01*
G01*
G37*
%TD.AperFunction*%
%TO.P,R1,1*%
%TO.N,+3V3*%
%TA.AperFunction,SMDPad,CuDef*%
G36*
G01*
X91715000Y-71050000D02*
X91165000Y-71050000D01*
G75*
G02*
X90965000Y-70850000I0J200000D01*
G01*
X90965000Y-70450000D01*
G75*
G02*
X91165000Y-70250000I200000J0D01*
G01*
X91715000Y-70250000D01*
G75*
G02*
X91915000Y-70450000I0J-200000D01*
G01*
X91915000Y-70850000D01*
G75*
G02*
X91715000Y-71050000I-200000J0D01*
G01*
G37*
%TD.AperFunction*%
%TD*%
D13*
%TO.P,Q2,3*%
%TO.N,RTS*%
X102390000Y-60470000D03*
%TO.P,Q2,2*%
%TO.N,EN*%
X103340000Y-62470000D03*
%TO.P,Q2,1*%
%TO.N,Net-(Q2-Pad1)*%
X101440000Y-62470000D03*
%TD*%
%TO.P,Q1,3*%
%TO.N,DTR*%
X98820000Y-60470000D03*
%TO.P,Q1,2*%
%TO.N,IO0*%
X99770000Y-62470000D03*
%TO.P,Q1,1*%
%TO.N,Net-(Q1-Pad1)*%
X97870000Y-62470000D03*
%TD*%
D14*
%TO.P,J2,6*%
%TO.N,EN*%
X103890000Y-78120000D03*
%TO.P,J2,5*%
%TO.N,IO0*%
X101350000Y-78120000D03*
%TO.P,J2,4*%
%TO.N,RX0*%
X98810000Y-78120000D03*
%TO.P,J2,3*%
%TO.N,TX0*%
X96270000Y-78120000D03*
%TO.P,J2,2*%
%TO.N,GND*%
X93730000Y-78120000D03*
D15*
%TO.P,J2,1*%
%TO.N,+3V3*%
X91190000Y-78120000D03*
%TD*%
D16*
%TO.P,J1,B1*%
%TO.N,GND*%
X94290000Y-55645000D03*
%TO.P,J1,A9*%
%TO.N,+5V*%
X95090000Y-55645000D03*
%TO.P,J1,B9*%
X99990000Y-55645000D03*
%TO.P,J1,B12*%
%TO.N,GND*%
X100790000Y-55645000D03*
%TO.P,J1,A1*%
X100790000Y-55645000D03*
%TO.P,J1,A4*%
%TO.N,+5V*%
X99990000Y-55645000D03*
%TO.P,J1,B4*%
X95090000Y-55645000D03*
%TO.P,J1,A12*%
%TO.N,GND*%
X94290000Y-55645000D03*
D17*
%TO.P,J1,B8*%
%TO.N,Net-(J1-PadB8)*%
X99290000Y-55645000D03*
%TO.P,J1,A5*%
%TO.N,Net-(J1-PadA5)*%
X98790000Y-55645000D03*
%TO.P,J1,B7*%
%TO.N,D-*%
X98290000Y-55645000D03*
%TO.P,J1,A7*%
X97290000Y-55645000D03*
%TO.P,J1,B6*%
%TO.N,D+*%
X96790000Y-55645000D03*
%TO.P,J1,A8*%
%TO.N,Net-(J1-PadA8)*%
X96290000Y-55645000D03*
%TO.P,J1,B5*%
%TO.N,Net-(J1-PadB5)*%
X95790000Y-55645000D03*
%TO.P,J1,A6*%
%TO.N,D+*%
X97790000Y-55645000D03*
D18*
%TO.P,J1,S1*%
%TO.N,GND*%
X93220000Y-54730000D03*
X101860000Y-54730000D03*
D19*
X101860000Y-50550000D03*
X93220000Y-50550000D03*
%TD*%
%TO.P,C3,2*%
%TO.N,GND*%
%TA.AperFunction,SMDPad,CuDef*%
G36*
G01*
X91200000Y-73210000D02*
X91700000Y-73210000D01*
G75*
G02*
X91925000Y-73435000I0J-225000D01*
G01*
X91925000Y-73885000D01*
G75*
G02*
X91700000Y-74110000I-225000J0D01*
G01*
X91200000Y-74110000D01*
G75*
G02*
X90975000Y-73885000I0J225000D01*
G01*
X90975000Y-73435000D01*
G75*
G02*
X91200000Y-73210000I225000J0D01*
G01*
G37*
%TD.AperFunction*%
%TO.P,C3,1*%
%TO.N,+3V3*%
%TA.AperFunction,SMDPad,CuDef*%
G36*
G01*
X91200000Y-71660000D02*
X91700000Y-71660000D01*
G75*
G02*
X91925000Y-71885000I0J-225000D01*
G01*
X91925000Y-72335000D01*
G75*
G02*
X91700000Y-72560000I-225000J0D01*
G01*
X91200000Y-72560000D01*
G75*
G02*
X90975000Y-72335000I0J225000D01*
G01*
X90975000Y-71885000D01*
G75*
G02*
X91200000Y-71660000I225000J0D01*
G01*
G37*
%TD.AperFunction*%
%TD*%
%TO.P,C2,2*%
%TO.N,GND*%
%TA.AperFunction,SMDPad,CuDef*%
G36*
G01*
X101740000Y-66430000D02*
X101240000Y-66430000D01*
G75*
G02*
X101015000Y-66205000I0J225000D01*
G01*
X101015000Y-65755000D01*
G75*
G02*
X101240000Y-65530000I225000J0D01*
G01*
X101740000Y-65530000D01*
G75*
G02*
X101965000Y-65755000I0J-225000D01*
G01*
X101965000Y-66205000D01*
G75*
G02*
X101740000Y-66430000I-225000J0D01*
G01*
G37*
%TD.AperFunction*%
%TO.P,C2,1*%
%TO.N,+5V*%
%TA.AperFunction,SMDPad,CuDef*%
G36*
G01*
X101740000Y-67980000D02*
X101240000Y-67980000D01*
G75*
G02*
X101015000Y-67755000I0J225000D01*
G01*
X101015000Y-67305000D01*
G75*
G02*
X101240000Y-67080000I225000J0D01*
G01*
X101740000Y-67080000D01*
G75*
G02*
X101965000Y-67305000I0J-225000D01*
G01*
X101965000Y-67755000D01*
G75*
G02*
X101740000Y-67980000I-225000J0D01*
G01*
G37*
%TD.AperFunction*%
%TD*%
%TO.P,C1,2*%
%TO.N,+5V*%
%TA.AperFunction,SMDPad,CuDef*%
G36*
G01*
X97999999Y-66835000D02*
X100200001Y-66835000D01*
G75*
G02*
X100450000Y-67084999I0J-249999D01*
G01*
X100450000Y-67735001D01*
G75*
G02*
X100200001Y-67985000I-249999J0D01*
G01*
X97999999Y-67985000D01*
G75*
G02*
X97750000Y-67735001I0J249999D01*
G01*
X97750000Y-67084999D01*
G75*
G02*
X97999999Y-66835000I249999J0D01*
G01*
G37*
%TD.AperFunction*%
%TO.P,C1,1*%
%TO.N,GND*%
%TA.AperFunction,SMDPad,CuDef*%
G36*
G01*
X97999999Y-63885000D02*
X100200001Y-63885000D01*
G75*
G02*
X100450000Y-64134999I0J-249999D01*
G01*
X100450000Y-64785001D01*
G75*
G02*
X100200001Y-65035000I-249999J0D01*
G01*
X97999999Y-65035000D01*
G75*
G02*
X97750000Y-64785001I0J249999D01*
G01*
X97750000Y-64134999D01*
G75*
G02*
X97999999Y-63885000I249999J0D01*
G01*
G37*
%TD.AperFunction*%
%TD*%
D20*
%TO.N,+5V*%
X92500000Y-58839990D03*
X93180010Y-58839990D03*
X93930010Y-58839990D03*
X94660010Y-58839990D03*
X93150000Y-58060000D03*
X93930000Y-58060000D03*
X94680000Y-58060000D03*
X103000000Y-68060000D03*
X103010000Y-70000000D03*
X103960000Y-70030000D03*
X103940000Y-68070000D03*
X103950000Y-69090000D03*
X102990000Y-69080000D03*
%TO.N,GND*%
X96710000Y-62680000D03*
X100030000Y-60240000D03*
X101160000Y-60230000D03*
%TO.N,RX0*%
X95414990Y-68060000D03*
%TO.N,TX0*%
X94490000Y-68060000D03*
%TO.N,D+*%
X95850000Y-57900000D03*
X96750000Y-61800000D03*
%TO.N,RTS*%
X100580000Y-58970000D03*
X91750000Y-63840000D03*
%TO.N,Net-(R3-Pad2)*%
X93730000Y-64670000D03*
X93730000Y-68040000D03*
%TO.N,Net-(R4-Pad1)*%
X92930000Y-64640000D03*
X93860000Y-69030000D03*
%TD*%
D21*
%TO.N,+5V*%
X94930000Y-59952500D02*
X94430000Y-59952500D01*
D22*
X93440000Y-58310000D02*
X94630000Y-58310000D01*
X94930000Y-59952500D02*
X94930000Y-59020000D01*
D23*
X93860000Y-57890000D02*
X93829998Y-57920002D01*
D22*
X94930000Y-59020000D02*
X94930000Y-58430000D01*
D24*
X94749990Y-58839990D02*
X94660010Y-58839990D01*
X92500000Y-58839990D02*
X92500000Y-58839990D01*
X93180010Y-58839990D02*
X92500000Y-58839990D01*
X93930010Y-58839990D02*
X93180010Y-58839990D01*
X94660010Y-58839990D02*
X93930010Y-58839990D01*
D22*
X94930000Y-59952500D02*
X94655010Y-59952500D01*
D24*
X103010000Y-68070000D02*
X103000000Y-68060000D01*
X103010000Y-70000000D02*
X103010000Y-68070000D01*
X103960000Y-68090000D02*
X103940000Y-68070000D01*
X103960000Y-70030000D02*
X103960000Y-68090000D01*
X101710000Y-70030000D02*
X101320000Y-69640000D01*
X103960000Y-70030000D02*
X101710000Y-70030000D01*
X99760000Y-68070000D02*
X99100000Y-67410000D01*
X103940000Y-68070000D02*
X99760000Y-68070000D01*
X103400000Y-67530000D02*
X103940000Y-68070000D01*
X101490000Y-67530000D02*
X103400000Y-67530000D01*
X101370000Y-67410000D02*
X101490000Y-67530000D01*
X99100000Y-67410000D02*
X101370000Y-67410000D01*
D23*
X95090000Y-57680000D02*
X93930010Y-58839990D01*
X95090000Y-55645000D02*
X95090000Y-57680000D01*
X95090000Y-54833002D02*
X95090000Y-55645000D01*
X96071003Y-53851999D02*
X95090000Y-54833002D01*
X99008997Y-53851999D02*
X96071003Y-53851999D01*
X99990000Y-54833002D02*
X99008997Y-53851999D01*
X99990000Y-55645000D02*
X99990000Y-54833002D01*
D24*
X93150000Y-58060000D02*
X94680000Y-58060000D01*
X93400000Y-57810000D02*
X93150000Y-58060000D01*
X94949999Y-57810000D02*
X93400000Y-57810000D01*
X94949999Y-58550001D02*
X94949999Y-57810000D01*
X94660010Y-58839990D02*
X94949999Y-58550001D01*
X92500000Y-58839990D02*
X91799990Y-58839990D01*
X92829980Y-57810000D02*
X93400000Y-57810000D01*
X91799990Y-58839990D02*
X92829980Y-57810000D01*
%TO.N,+3V3*%
X101320000Y-71940000D02*
X95020000Y-71940000D01*
X92920000Y-72110000D02*
X92970000Y-72060000D01*
X91450000Y-72110000D02*
X92920000Y-72110000D01*
X91440000Y-72100000D02*
X91450000Y-72110000D01*
X91440000Y-70650000D02*
X91440000Y-72100000D01*
X91440000Y-70650000D02*
X92970000Y-70650000D01*
X92970000Y-70650000D02*
X92970000Y-72060000D01*
X92730000Y-71940000D02*
X91440000Y-70650000D01*
X95020000Y-71940000D02*
X92730000Y-71940000D01*
D22*
X90374990Y-77304990D02*
X91190000Y-78120000D01*
X90374990Y-72710010D02*
X90374990Y-77304990D01*
X90975000Y-72110000D02*
X90374990Y-72710010D01*
X91450000Y-72110000D02*
X90975000Y-72110000D01*
D21*
%TO.N,Net-(D1-Pad2)*%
X90707490Y-68267490D02*
X91440000Y-69000000D01*
X90707490Y-66365010D02*
X90707490Y-68267490D01*
X91472500Y-65600000D02*
X90707490Y-66365010D01*
%TO.N,RX0*%
X94480000Y-65600000D02*
X94490000Y-65590000D01*
X93047500Y-65600000D02*
X94480000Y-65600000D01*
X94490000Y-65590000D02*
X95414990Y-66514990D01*
X95414990Y-68104990D02*
X95414990Y-68104990D01*
X95414990Y-68060000D02*
X95414990Y-66514990D01*
%TO.N,Net-(D2-Pad2)*%
X91470000Y-67500000D02*
X92970000Y-69000000D01*
X91470000Y-67130000D02*
X91470000Y-67500000D01*
%TO.N,TX0*%
X93045000Y-67130000D02*
X94490000Y-67130000D01*
X94490000Y-67130000D02*
X94490000Y-68060000D01*
X94490000Y-68060000D02*
X94490000Y-68060000D01*
%TO.N,Net-(D3-Pad2)*%
X92970000Y-75135000D02*
X93015000Y-75180000D01*
X92970000Y-73710000D02*
X92970000Y-75135000D01*
%TO.N,D-*%
X97270000Y-55154998D02*
X97270000Y-56115000D01*
X96132998Y-61640000D02*
X95617500Y-61640000D01*
X96375001Y-61397997D02*
X96132998Y-61640000D01*
X96375001Y-58011409D02*
X96375001Y-61397997D01*
X97290000Y-57096410D02*
X96375001Y-58011409D01*
X97290000Y-55645000D02*
X97290000Y-57096410D01*
X97290000Y-56605002D02*
X97290000Y-55645000D01*
X97379999Y-56695001D02*
X97290000Y-56605002D01*
X98214999Y-56695001D02*
X97379999Y-56695001D01*
X98290000Y-56620000D02*
X98214999Y-56695001D01*
X98290000Y-55645000D02*
X98290000Y-56620000D01*
%TO.N,D+*%
X96700000Y-61850000D02*
X96700000Y-61850000D01*
X96410000Y-62140000D02*
X95617500Y-62140000D01*
X96750000Y-61800000D02*
X96750000Y-61800000D01*
X96750000Y-61800000D02*
X96750000Y-61800000D01*
X96750000Y-61800000D02*
X96410000Y-62140000D01*
X95850000Y-57900000D02*
X96770000Y-56980000D01*
X96584999Y-57165001D02*
X96770000Y-56980000D01*
X96790000Y-56960000D02*
X96770000Y-56980000D01*
X96790000Y-55645000D02*
X96790000Y-56960000D01*
X97790000Y-54684998D02*
X97790000Y-55645000D01*
X97700001Y-54594999D02*
X97790000Y-54684998D01*
X96879999Y-54594999D02*
X97700001Y-54594999D01*
X96790000Y-54684998D02*
X96879999Y-54594999D01*
X96790000Y-55645000D02*
X96790000Y-54684998D01*
%TO.N,Net-(J1-PadA8)*%
X96270000Y-56115000D02*
X96270000Y-55154998D01*
%TO.N,EN*%
X103340000Y-62470000D02*
X103340000Y-65453590D01*
X105370010Y-76639990D02*
X103890000Y-78120000D01*
X105370010Y-67483600D02*
X105370010Y-76639990D01*
X103340000Y-65453590D02*
X105370010Y-67483600D01*
%TO.N,IO0*%
X99770000Y-62470000D02*
X99770000Y-62520000D01*
X101555001Y-63245001D02*
X100545001Y-63245001D01*
X102889990Y-64579990D02*
X101555001Y-63245001D01*
X102889990Y-65639990D02*
X102889990Y-64579990D01*
X104920000Y-74550000D02*
X104920000Y-67670000D01*
X100545001Y-63245001D02*
X99770000Y-62470000D01*
X104920000Y-67670000D02*
X102889990Y-65639990D01*
X101350000Y-78120000D02*
X104920000Y-74550000D01*
%TO.N,DTR*%
X100999990Y-58169990D02*
X101810000Y-58980000D01*
X98962532Y-58169990D02*
X100999990Y-58169990D01*
X98654990Y-58477532D02*
X98962532Y-58169990D01*
X98654990Y-60304990D02*
X98654990Y-58477532D01*
X98820000Y-60470000D02*
X98654990Y-60304990D01*
X98820000Y-62955002D02*
X98820000Y-60470000D01*
X98530001Y-63245001D02*
X98820000Y-62955002D01*
X97064999Y-63245001D02*
X98530001Y-63245001D01*
X95744990Y-64565010D02*
X97064999Y-63245001D01*
X94706988Y-64565010D02*
X95744990Y-64565010D01*
X94430000Y-64288022D02*
X94706988Y-64565010D01*
X94430000Y-63827500D02*
X94430000Y-64288022D01*
%TO.N,Net-(Q1-Pad1)*%
X97730000Y-62330000D02*
X97870000Y-62470000D01*
X97730000Y-58970000D02*
X97730000Y-62330000D01*
%TO.N,RTS*%
X102535010Y-60324990D02*
X102390000Y-60470000D01*
X99380000Y-58970000D02*
X100580000Y-58970000D01*
X102080000Y-60470000D02*
X102390000Y-60470000D01*
X100580000Y-58970000D02*
X102080000Y-60470000D01*
X100580000Y-58970000D02*
X100580000Y-58970000D01*
X91762500Y-63827500D02*
X91750000Y-63840000D01*
X92430000Y-63827500D02*
X91762500Y-63827500D01*
%TO.N,Net-(Q2-Pad1)*%
X101904998Y-62470000D02*
X101440000Y-62470000D01*
X103460000Y-60914998D02*
X101904998Y-62470000D01*
X103460000Y-58980000D02*
X103460000Y-60914998D01*
%TO.N,Net-(R3-Pad2)*%
X93430000Y-63827500D02*
X93430000Y-64288022D01*
X96140000Y-68111992D02*
X95666991Y-68585001D01*
X96140000Y-67130000D02*
X96140000Y-68111992D01*
X93430000Y-63827500D02*
X93430000Y-64370000D01*
X93430000Y-64370000D02*
X93730000Y-64670000D01*
X93730000Y-64670000D02*
X93730000Y-64670000D01*
X93730000Y-68322842D02*
X93730000Y-68040000D01*
X93992159Y-68585001D02*
X93730000Y-68322842D01*
X95666991Y-68585001D02*
X93992159Y-68585001D01*
%TO.N,Net-(R4-Pad1)*%
X96865010Y-66315010D02*
X96865010Y-68023392D01*
X96865010Y-68023392D02*
X96865010Y-68023392D01*
X96140000Y-65590000D02*
X96865010Y-66315010D01*
X92930000Y-63827500D02*
X92930000Y-64640000D01*
X92930000Y-64640000D02*
X92930000Y-64640000D01*
X95853391Y-69035011D02*
X93860000Y-69035011D01*
X96865010Y-68023392D02*
X95853391Y-69035011D01*
%TO.N,SU-*%
X91742500Y-61640000D02*
X90290000Y-61640000D01*
%TD*%
D25*
%TO.N,GND*%
X102925672Y-54081248D02*
X102926292Y-54087544D01*
X102964836Y-54547492D01*
X102967129Y-54560000D01*
X102969068Y-54572550D01*
X102969609Y-54574601D01*
X103111172Y-55096348D01*
X103116066Y-55109244D01*
X103120767Y-55122175D01*
X103121697Y-55124083D01*
X103361903Y-55608394D01*
X103369213Y-55620101D01*
X103376333Y-55631867D01*
X103377615Y-55633558D01*
X103707318Y-56061991D01*
X103716771Y-56072064D01*
X103726032Y-56082213D01*
X103727618Y-56083623D01*
X104134259Y-56439856D01*
X104145458Y-56447879D01*
X104156544Y-56456058D01*
X104158374Y-56457133D01*
X104626462Y-56727598D01*
X104639005Y-56733293D01*
X104651469Y-56739163D01*
X104653473Y-56739862D01*
X105165181Y-56914258D01*
X105178598Y-56917410D01*
X105191959Y-56920746D01*
X105194060Y-56921042D01*
X105648347Y-56981815D01*
X105648347Y-67122713D01*
X103792000Y-65266367D01*
X103792000Y-63243460D01*
X103804103Y-63242268D01*
X103865743Y-63223570D01*
X103922550Y-63193206D01*
X103972343Y-63152343D01*
X104013206Y-63102550D01*
X104043570Y-63045743D01*
X104062268Y-62984103D01*
X104068582Y-62920000D01*
X104068582Y-62020000D01*
X104062268Y-61955897D01*
X104043570Y-61894257D01*
X104013206Y-61837450D01*
X103972343Y-61787657D01*
X103922550Y-61746794D01*
X103865743Y-61716430D01*
X103804103Y-61697732D01*
X103740000Y-61691418D01*
X103322804Y-61691418D01*
X103763905Y-61250317D01*
X103781159Y-61236157D01*
X103837643Y-61167331D01*
X103879614Y-61088808D01*
X103905460Y-61003605D01*
X103905697Y-61001204D01*
X103914187Y-60914998D01*
X103912000Y-60892793D01*
X103912000Y-59716770D01*
X103953664Y-59694500D01*
X104033764Y-59628764D01*
X104099500Y-59548664D01*
X104148346Y-59457280D01*
X104178425Y-59358121D01*
X104188582Y-59255000D01*
X104188582Y-58705000D01*
X104178425Y-58601879D01*
X104148346Y-58502720D01*
X104099500Y-58411336D01*
X104033764Y-58331236D01*
X103953664Y-58265500D01*
X103862280Y-58216654D01*
X103763121Y-58186575D01*
X103660000Y-58176418D01*
X103260000Y-58176418D01*
X103156879Y-58186575D01*
X103057720Y-58216654D01*
X102966336Y-58265500D01*
X102886236Y-58331236D01*
X102820500Y-58411336D01*
X102771654Y-58502720D01*
X102741575Y-58601879D01*
X102731418Y-58705000D01*
X102731418Y-59255000D01*
X102741575Y-59358121D01*
X102771654Y-59457280D01*
X102820500Y-59548664D01*
X102886236Y-59628764D01*
X102966336Y-59694500D01*
X103008000Y-59716770D01*
X103008000Y-59775887D01*
X102972550Y-59746794D01*
X102915743Y-59716430D01*
X102854103Y-59697732D01*
X102790000Y-59691418D01*
X102307419Y-59691418D01*
X102383764Y-59628764D01*
X102449500Y-59548664D01*
X102498346Y-59457280D01*
X102528425Y-59358121D01*
X102538582Y-59255000D01*
X102538582Y-58705000D01*
X102528425Y-58601879D01*
X102498346Y-58502720D01*
X102449500Y-58411336D01*
X102383764Y-58331236D01*
X102303664Y-58265500D01*
X102212280Y-58216654D01*
X102113121Y-58186575D01*
X102010000Y-58176418D01*
X101645642Y-58176418D01*
X101335313Y-57866090D01*
X101321149Y-57848831D01*
X101252323Y-57792347D01*
X101173800Y-57750376D01*
X101088597Y-57724530D01*
X101022195Y-57717990D01*
X100999990Y-57715803D01*
X100977785Y-57717990D01*
X98984736Y-57717990D01*
X98962531Y-57715803D01*
X98873924Y-57724530D01*
X98839512Y-57734969D01*
X98788722Y-57750376D01*
X98710199Y-57792347D01*
X98641373Y-57848831D01*
X98627217Y-57866080D01*
X98351085Y-58142214D01*
X98333832Y-58156373D01*
X98290192Y-58209549D01*
X98277348Y-58225199D01*
X98249721Y-58276885D01*
X98223664Y-58255500D01*
X98132280Y-58206654D01*
X98033121Y-58176575D01*
X97930000Y-58166418D01*
X97530000Y-58166418D01*
X97426879Y-58176575D01*
X97327720Y-58206654D01*
X97236336Y-58255500D01*
X97156236Y-58321236D01*
X97090500Y-58401336D01*
X97041654Y-58492720D01*
X97011575Y-58591879D01*
X97001418Y-58695000D01*
X97001418Y-59245000D01*
X97011575Y-59348121D01*
X97041654Y-59447280D01*
X97090500Y-59538664D01*
X97156236Y-59618764D01*
X97236336Y-59684500D01*
X97278000Y-59706770D01*
X97278001Y-61754549D01*
X97277000Y-61755370D01*
X97277000Y-61748095D01*
X97256748Y-61646280D01*
X97217021Y-61550372D01*
X97159348Y-61464057D01*
X97085943Y-61390652D01*
X96999628Y-61332979D01*
X96903720Y-61293252D01*
X96827001Y-61277992D01*
X96827001Y-58198632D01*
X97593905Y-57431729D01*
X97611159Y-57417569D01*
X97667643Y-57348743D01*
X97709614Y-57270220D01*
X97727174Y-57212333D01*
X97735460Y-57185018D01*
X97739204Y-57147001D01*
X98192794Y-57147001D01*
X98214999Y-57149188D01*
X98237204Y-57147001D01*
X98303606Y-57140461D01*
X98388809Y-57114615D01*
X98467332Y-57072644D01*
X98536158Y-57016160D01*
X98550321Y-56998902D01*
X98593903Y-56955320D01*
X98611159Y-56941159D01*
X98667643Y-56872333D01*
X98709614Y-56793810D01*
X98735460Y-56708607D01*
X98736447Y-56698582D01*
X98940000Y-56698582D01*
X99004103Y-56692268D01*
X99040000Y-56681379D01*
X99075897Y-56692268D01*
X99140000Y-56698582D01*
X99440000Y-56698582D01*
X99504103Y-56692268D01*
X99565000Y-56673795D01*
X99625897Y-56692268D01*
X99690000Y-56698582D01*
X100290000Y-56698582D01*
X100354103Y-56692268D01*
X100415743Y-56673570D01*
X100472550Y-56643206D01*
X100522343Y-56602343D01*
X100563206Y-56552550D01*
X100593570Y-56495743D01*
X100612268Y-56434103D01*
X100618582Y-56370000D01*
X100618582Y-54920000D01*
X100612268Y-54855897D01*
X100604435Y-54830076D01*
X100620181Y-54826944D01*
X100738838Y-54777795D01*
X100845626Y-54706442D01*
X100936442Y-54615626D01*
X101007795Y-54508838D01*
X101056944Y-54390181D01*
X101082000Y-54264216D01*
X101082000Y-54135784D01*
X101056944Y-54009819D01*
X101007795Y-53891162D01*
X100936442Y-53784374D01*
X100845626Y-53693558D01*
X100738838Y-53622205D01*
X100620181Y-53573056D01*
X100494216Y-53548000D01*
X100365784Y-53548000D01*
X100239819Y-53573056D01*
X100121162Y-53622205D01*
X100014374Y-53693558D01*
X99923558Y-53784374D01*
X99852205Y-53891162D01*
X99834996Y-53932708D01*
X99399952Y-53497665D01*
X99383445Y-53477551D01*
X99303199Y-53411695D01*
X99211647Y-53362760D01*
X99112307Y-53332625D01*
X99034878Y-53324999D01*
X99008997Y-53322450D01*
X98983116Y-53324999D01*
X96096884Y-53324999D01*
X96071003Y-53322450D01*
X96045122Y-53324999D01*
X95967693Y-53332625D01*
X95868353Y-53362760D01*
X95776801Y-53411695D01*
X95696555Y-53477551D01*
X95680056Y-53497655D01*
X95245004Y-53932708D01*
X95227795Y-53891162D01*
X95156442Y-53784374D01*
X95065626Y-53693558D01*
X94958838Y-53622205D01*
X94840181Y-53573056D01*
X94714216Y-53548000D01*
X94585784Y-53548000D01*
X94459819Y-53573056D01*
X94341162Y-53622205D01*
X94234374Y-53693558D01*
X94143558Y-53784374D01*
X94072205Y-53891162D01*
X94023056Y-54009819D01*
X93998000Y-54135784D01*
X93998000Y-54264216D01*
X94023056Y-54390181D01*
X94072205Y-54508838D01*
X94143558Y-54615626D01*
X94234374Y-54706442D01*
X94341162Y-54777795D01*
X94459819Y-54826944D01*
X94475565Y-54830076D01*
X94467732Y-54855897D01*
X94461418Y-54920000D01*
X94461418Y-56370000D01*
X94467732Y-56434103D01*
X94486430Y-56495743D01*
X94516794Y-56552550D01*
X94557657Y-56602343D01*
X94563000Y-56606728D01*
X94563001Y-56983000D01*
X93440610Y-56983000D01*
X93399999Y-56979000D01*
X93359388Y-56983000D01*
X92870594Y-56983000D01*
X92829980Y-56979000D01*
X92789366Y-56983000D01*
X92789356Y-56983000D01*
X92667860Y-56994966D01*
X92511970Y-57042255D01*
X92452230Y-57074187D01*
X92368300Y-57119048D01*
X92273928Y-57196498D01*
X92242374Y-57222394D01*
X92216479Y-57253947D01*
X91243942Y-58226485D01*
X91212384Y-58252384D01*
X91109038Y-58378311D01*
X91032245Y-58521980D01*
X90984956Y-58677870D01*
X90968989Y-58839990D01*
X90984956Y-59002110D01*
X91032245Y-59158000D01*
X91109038Y-59301669D01*
X91212384Y-59427596D01*
X91338311Y-59530942D01*
X91481980Y-59607735D01*
X91637870Y-59655024D01*
X91759366Y-59666990D01*
X91759376Y-59666990D01*
X91799990Y-59670990D01*
X91840604Y-59666990D01*
X91976418Y-59666990D01*
X91976418Y-60186418D01*
X91392500Y-60186418D01*
X91316204Y-60193933D01*
X91242839Y-60216187D01*
X91175226Y-60252327D01*
X91115963Y-60300963D01*
X91067327Y-60360226D01*
X91031187Y-60427839D01*
X91008933Y-60501204D01*
X91001418Y-60577500D01*
X91001418Y-60702500D01*
X91008933Y-60778796D01*
X91031187Y-60852161D01*
X91051412Y-60890000D01*
X91031187Y-60927839D01*
X91008933Y-61001204D01*
X91001418Y-61077500D01*
X91001418Y-61142581D01*
X90938764Y-61066236D01*
X90858664Y-61000500D01*
X90767280Y-60951654D01*
X90668121Y-60921575D01*
X90565000Y-60911418D01*
X90015000Y-60911418D01*
X89911879Y-60921575D01*
X89812720Y-60951654D01*
X89721336Y-61000500D01*
X89641236Y-61066236D01*
X89575500Y-61146336D01*
X89526654Y-61237720D01*
X89496575Y-61336879D01*
X89486418Y-61440000D01*
X89486418Y-61840000D01*
X89496575Y-61943121D01*
X89526654Y-62042280D01*
X89575500Y-62133664D01*
X89641236Y-62213764D01*
X89721336Y-62279500D01*
X89812720Y-62328346D01*
X89911879Y-62358425D01*
X90015000Y-62368582D01*
X90565000Y-62368582D01*
X90668121Y-62358425D01*
X90767280Y-62328346D01*
X90858664Y-62279500D01*
X90938764Y-62213764D01*
X91001418Y-62137419D01*
X91001418Y-62202500D01*
X91008933Y-62278796D01*
X91031187Y-62352161D01*
X91051412Y-62390000D01*
X91031187Y-62427839D01*
X91008933Y-62501204D01*
X91001418Y-62577500D01*
X91001418Y-62702500D01*
X91008933Y-62778796D01*
X91031187Y-62852161D01*
X91051412Y-62890000D01*
X91031187Y-62927839D01*
X91008933Y-63001204D01*
X91001418Y-63077500D01*
X91001418Y-63202500D01*
X91008933Y-63278796D01*
X91031187Y-63352161D01*
X91067327Y-63419774D01*
X91115963Y-63479037D01*
X91175226Y-63527673D01*
X91242839Y-63563813D01*
X91290970Y-63578413D01*
X91282979Y-63590372D01*
X91243252Y-63686280D01*
X91223000Y-63788095D01*
X91223000Y-63891905D01*
X91243252Y-63993720D01*
X91282979Y-64089628D01*
X91340652Y-64175943D01*
X91414057Y-64249348D01*
X91500372Y-64307021D01*
X91596280Y-64346748D01*
X91698095Y-64367000D01*
X91801905Y-64367000D01*
X91903720Y-64346748D01*
X91999628Y-64307021D01*
X92000002Y-64306771D01*
X92006187Y-64327161D01*
X92042327Y-64394774D01*
X92090963Y-64454037D01*
X92150226Y-64502673D01*
X92217839Y-64538813D01*
X92291204Y-64561067D01*
X92367500Y-64568582D01*
X92406881Y-64568582D01*
X92403000Y-64588095D01*
X92403000Y-64691905D01*
X92423252Y-64793720D01*
X92462979Y-64889628D01*
X92484409Y-64921701D01*
X92441728Y-64956728D01*
X92373660Y-65039669D01*
X92323081Y-65134295D01*
X92291935Y-65236971D01*
X92281418Y-65343750D01*
X92281418Y-65856250D01*
X92291935Y-65963029D01*
X92323081Y-66065705D01*
X92373660Y-66160331D01*
X92441728Y-66243272D01*
X92524669Y-66311340D01*
X92619295Y-66361919D01*
X92628202Y-66364621D01*
X92616795Y-66368081D01*
X92522169Y-66418660D01*
X92439228Y-66486728D01*
X92371160Y-66569669D01*
X92320581Y-66664295D01*
X92289435Y-66766971D01*
X92278918Y-66873750D01*
X92278918Y-67386250D01*
X92289435Y-67493029D01*
X92320581Y-67595705D01*
X92371160Y-67690331D01*
X92439228Y-67773272D01*
X92522169Y-67841340D01*
X92616795Y-67891919D01*
X92719471Y-67923065D01*
X92826250Y-67933582D01*
X93213843Y-67933582D01*
X93203000Y-67988095D01*
X93203000Y-68091905D01*
X93223252Y-68193720D01*
X93255880Y-68272490D01*
X93245000Y-68271418D01*
X92880642Y-68271418D01*
X92196865Y-67587641D01*
X92225565Y-67493029D01*
X92236082Y-67386250D01*
X92236082Y-66873750D01*
X92225565Y-66766971D01*
X92194419Y-66664295D01*
X92143840Y-66569669D01*
X92075772Y-66486728D01*
X91992831Y-66418660D01*
X91898205Y-66368081D01*
X91889298Y-66365379D01*
X91900705Y-66361919D01*
X91995331Y-66311340D01*
X92078272Y-66243272D01*
X92146340Y-66160331D01*
X92196919Y-66065705D01*
X92228065Y-65963029D01*
X92238582Y-65856250D01*
X92238582Y-65343750D01*
X92228065Y-65236971D01*
X92196919Y-65134295D01*
X92146340Y-65039669D01*
X92078272Y-64956728D01*
X91995331Y-64888660D01*
X91900705Y-64838081D01*
X91798029Y-64806935D01*
X91691250Y-64796418D01*
X91253750Y-64796418D01*
X91146971Y-64806935D01*
X91044295Y-64838081D01*
X90949669Y-64888660D01*
X90866728Y-64956728D01*
X90798660Y-65039669D01*
X90748081Y-65134295D01*
X90716935Y-65236971D01*
X90706418Y-65343750D01*
X90706418Y-65726859D01*
X90403590Y-66029687D01*
X90386331Y-66043851D01*
X90329847Y-66112678D01*
X90305267Y-66158664D01*
X90287876Y-66191201D01*
X90262030Y-66276403D01*
X90253303Y-66365010D01*
X90255490Y-66387215D01*
X90255491Y-68245275D01*
X90253303Y-68267490D01*
X90262030Y-68356097D01*
X90287876Y-68441299D01*
X90329848Y-68519823D01*
X90386332Y-68588649D01*
X90403586Y-68602809D01*
X90636418Y-68835641D01*
X90636418Y-69200000D01*
X90646575Y-69303121D01*
X90676654Y-69402280D01*
X90725500Y-69493664D01*
X90791236Y-69573764D01*
X90871336Y-69639500D01*
X90962720Y-69688346D01*
X91061879Y-69718425D01*
X91165000Y-69728582D01*
X91715000Y-69728582D01*
X91818121Y-69718425D01*
X91917280Y-69688346D01*
X92008664Y-69639500D01*
X92088764Y-69573764D01*
X92154500Y-69493664D01*
X92203346Y-69402280D01*
X92205000Y-69396827D01*
X92206654Y-69402280D01*
X92255500Y-69493664D01*
X92321236Y-69573764D01*
X92401336Y-69639500D01*
X92492720Y-69688346D01*
X92591879Y-69718425D01*
X92695000Y-69728582D01*
X93245000Y-69728582D01*
X93348121Y-69718425D01*
X93447280Y-69688346D01*
X93538664Y-69639500D01*
X93618764Y-69573764D01*
X93663638Y-69519085D01*
X93706280Y-69536748D01*
X93808095Y-69557000D01*
X93911905Y-69557000D01*
X94013720Y-69536748D01*
X94109628Y-69497021D01*
X94124609Y-69487011D01*
X95831186Y-69487011D01*
X95853391Y-69489198D01*
X95875596Y-69487011D01*
X95941998Y-69480471D01*
X96027201Y-69454625D01*
X96105724Y-69412654D01*
X96174550Y-69356170D01*
X96188714Y-69338911D01*
X97168920Y-68358707D01*
X97186169Y-68344551D01*
X97242653Y-68275725D01*
X97284624Y-68197202D01*
X97310470Y-68111999D01*
X97313026Y-68086051D01*
X97319197Y-68023393D01*
X97317010Y-68001188D01*
X97317010Y-66337215D01*
X97319197Y-66315010D01*
X97310470Y-66226402D01*
X97284624Y-66141200D01*
X97244271Y-66065705D01*
X97242653Y-66062677D01*
X97186169Y-65993851D01*
X97168916Y-65979692D01*
X96868582Y-65679358D01*
X96868582Y-65315000D01*
X96858425Y-65211879D01*
X96828346Y-65112720D01*
X96779500Y-65021336D01*
X96713764Y-64941236D01*
X96633664Y-64875500D01*
X96542280Y-64826654D01*
X96443121Y-64796575D01*
X96340000Y-64786418D01*
X96162805Y-64786418D01*
X97252223Y-63697001D01*
X98507796Y-63697001D01*
X98530001Y-63699188D01*
X98552206Y-63697001D01*
X98618608Y-63690461D01*
X98703811Y-63664615D01*
X98782334Y-63622644D01*
X98851160Y-63566160D01*
X98865324Y-63548901D01*
X99123901Y-63290324D01*
X99141159Y-63276161D01*
X99197643Y-63207335D01*
X99201252Y-63200583D01*
X99244257Y-63223570D01*
X99305897Y-63242268D01*
X99370000Y-63248582D01*
X99909358Y-63248582D01*
X100209682Y-63548906D01*
X100223842Y-63566160D01*
X100292668Y-63622644D01*
X100371191Y-63664615D01*
X100456393Y-63690461D01*
X100545001Y-63699188D01*
X100567206Y-63697001D01*
X101367778Y-63697001D01*
X102437991Y-64767215D01*
X102437990Y-65617785D01*
X102435803Y-65639990D01*
X102442297Y-65705923D01*
X102444530Y-65728596D01*
X102470376Y-65813799D01*
X102512347Y-65892322D01*
X102568831Y-65961149D01*
X102586090Y-65975313D01*
X103313777Y-66703000D01*
X101801655Y-66703000D01*
X101688010Y-66642255D01*
X101532120Y-66594966D01*
X101410624Y-66583000D01*
X101410614Y-66583000D01*
X101370000Y-66579000D01*
X101329386Y-66583000D01*
X100482293Y-66583000D01*
X100421414Y-66550460D01*
X100312877Y-66517535D01*
X100200001Y-66506418D01*
X97999999Y-66506418D01*
X97887123Y-66517535D01*
X97778586Y-66550460D01*
X97678557Y-66603926D01*
X97590880Y-66675880D01*
X97518926Y-66763557D01*
X97465460Y-66863586D01*
X97432535Y-66972123D01*
X97421418Y-67084999D01*
X97421418Y-67735001D01*
X97432535Y-67847877D01*
X97465460Y-67956414D01*
X97518926Y-68056443D01*
X97590880Y-68144120D01*
X97678557Y-68216074D01*
X97778586Y-68269540D01*
X97887123Y-68302465D01*
X97999999Y-68313582D01*
X98834029Y-68313582D01*
X99146497Y-68626051D01*
X99172394Y-68657606D01*
X99203947Y-68683501D01*
X99203948Y-68683502D01*
X99298320Y-68760952D01*
X99334653Y-68780372D01*
X99441990Y-68837745D01*
X99597880Y-68885034D01*
X99719376Y-68897000D01*
X99719386Y-68897000D01*
X99760000Y-68901000D01*
X99800614Y-68897000D01*
X99991418Y-68897000D01*
X99991418Y-70390000D01*
X99997732Y-70454103D01*
X100016430Y-70515743D01*
X100046794Y-70572550D01*
X100087657Y-70622343D01*
X100137450Y-70663206D01*
X100194257Y-70693570D01*
X100255897Y-70712268D01*
X100320000Y-70718582D01*
X101245432Y-70718582D01*
X101248320Y-70720952D01*
X101325113Y-70761998D01*
X101391990Y-70797745D01*
X101547880Y-70845034D01*
X101669376Y-70857000D01*
X101669388Y-70857000D01*
X101709999Y-70861000D01*
X101750610Y-70857000D01*
X103919376Y-70857000D01*
X103960000Y-70861001D01*
X104000624Y-70857000D01*
X104122120Y-70845034D01*
X104278010Y-70797745D01*
X104421679Y-70720952D01*
X104468001Y-70682937D01*
X104468000Y-74362775D01*
X101798838Y-77031939D01*
X101693318Y-76988231D01*
X101465924Y-76943000D01*
X101234076Y-76943000D01*
X101006682Y-76988231D01*
X100792481Y-77076956D01*
X100599706Y-77205764D01*
X100435764Y-77369706D01*
X100306956Y-77562481D01*
X100218231Y-77776682D01*
X100173000Y-78004076D01*
X100173000Y-78235924D01*
X100218231Y-78463318D01*
X100306956Y-78677519D01*
X100435764Y-78870294D01*
X100599706Y-79034236D01*
X100792481Y-79163044D01*
X101006682Y-79251769D01*
X101234076Y-79297000D01*
X101465924Y-79297000D01*
X101693318Y-79251769D01*
X101907519Y-79163044D01*
X102100294Y-79034236D01*
X102264236Y-78870294D01*
X102393044Y-78677519D01*
X102481769Y-78463318D01*
X102527000Y-78235924D01*
X102527000Y-78004076D01*
X102481769Y-77776682D01*
X102438061Y-77671162D01*
X104918011Y-75191214D01*
X104918011Y-76452764D01*
X104338837Y-77031939D01*
X104233318Y-76988231D01*
X104005924Y-76943000D01*
X103774076Y-76943000D01*
X103546682Y-76988231D01*
X103332481Y-77076956D01*
X103139706Y-77205764D01*
X102975764Y-77369706D01*
X102846956Y-77562481D01*
X102758231Y-77776682D01*
X102713000Y-78004076D01*
X102713000Y-78235924D01*
X102758231Y-78463318D01*
X102846956Y-78677519D01*
X102975764Y-78870294D01*
X103139706Y-79034236D01*
X103332481Y-79163044D01*
X103546682Y-79251769D01*
X103774076Y-79297000D01*
X104005924Y-79297000D01*
X104233318Y-79251769D01*
X104447519Y-79163044D01*
X104640294Y-79034236D01*
X104804236Y-78870294D01*
X104933044Y-78677519D01*
X105021769Y-78463318D01*
X105067000Y-78235924D01*
X105067000Y-78004076D01*
X105021769Y-77776682D01*
X104978061Y-77671163D01*
X105648346Y-77000879D01*
X105648346Y-79882472D01*
X105647848Y-79887481D01*
X105646494Y-79887622D01*
X89432692Y-79887622D01*
X89432378Y-79879100D01*
X89432260Y-72710010D01*
X89644473Y-72710010D01*
X89647990Y-72745718D01*
X89647991Y-77269272D01*
X89644473Y-77304990D01*
X89658510Y-77447507D01*
X89700080Y-77584546D01*
X89700081Y-77584547D01*
X89767588Y-77710843D01*
X89858437Y-77821544D01*
X89886179Y-77844311D01*
X90011418Y-77969550D01*
X90011418Y-78970000D01*
X90017732Y-79034103D01*
X90036430Y-79095743D01*
X90066794Y-79152550D01*
X90107657Y-79202343D01*
X90157450Y-79243206D01*
X90214257Y-79273570D01*
X90275897Y-79292268D01*
X90340000Y-79298582D01*
X92040000Y-79298582D01*
X92104103Y-79292268D01*
X92165743Y-79273570D01*
X92222550Y-79243206D01*
X92272343Y-79202343D01*
X92313206Y-79152550D01*
X92343570Y-79095743D01*
X92362268Y-79034103D01*
X92368582Y-78970000D01*
X92368582Y-78004076D01*
X95093000Y-78004076D01*
X95093000Y-78235924D01*
X95138231Y-78463318D01*
X95226956Y-78677519D01*
X95355764Y-78870294D01*
X95519706Y-79034236D01*
X95712481Y-79163044D01*
X95926682Y-79251769D01*
X96154076Y-79297000D01*
X96385924Y-79297000D01*
X96613318Y-79251769D01*
X96827519Y-79163044D01*
X97020294Y-79034236D01*
X97184236Y-78870294D01*
X97313044Y-78677519D01*
X97401769Y-78463318D01*
X97447000Y-78235924D01*
X97447000Y-78004076D01*
X97633000Y-78004076D01*
X97633000Y-78235924D01*
X97678231Y-78463318D01*
X97766956Y-78677519D01*
X97895764Y-78870294D01*
X98059706Y-79034236D01*
X98252481Y-79163044D01*
X98466682Y-79251769D01*
X98694076Y-79297000D01*
X98925924Y-79297000D01*
X99153318Y-79251769D01*
X99367519Y-79163044D01*
X99560294Y-79034236D01*
X99724236Y-78870294D01*
X99853044Y-78677519D01*
X99941769Y-78463318D01*
X99987000Y-78235924D01*
X99987000Y-78004076D01*
X99941769Y-77776682D01*
X99853044Y-77562481D01*
X99724236Y-77369706D01*
X99560294Y-77205764D01*
X99367519Y-77076956D01*
X99153318Y-76988231D01*
X98925924Y-76943000D01*
X98694076Y-76943000D01*
X98466682Y-76988231D01*
X98252481Y-77076956D01*
X98059706Y-77205764D01*
X97895764Y-77369706D01*
X97766956Y-77562481D01*
X97678231Y-77776682D01*
X97633000Y-78004076D01*
X97447000Y-78004076D01*
X97401769Y-77776682D01*
X97313044Y-77562481D01*
X97184236Y-77369706D01*
X97020294Y-77205764D01*
X96827519Y-77076956D01*
X96613318Y-76988231D01*
X96385924Y-76943000D01*
X96154076Y-76943000D01*
X95926682Y-76988231D01*
X95712481Y-77076956D01*
X95519706Y-77205764D01*
X95355764Y-77369706D01*
X95226956Y-77562481D01*
X95138231Y-77776682D01*
X95093000Y-78004076D01*
X92368582Y-78004076D01*
X92368582Y-77270000D01*
X92362268Y-77205897D01*
X92343570Y-77144257D01*
X92313206Y-77087450D01*
X92272343Y-77037657D01*
X92222550Y-76996794D01*
X92165743Y-76966430D01*
X92104103Y-76947732D01*
X92040000Y-76941418D01*
X91101990Y-76941418D01*
X91101990Y-73011142D01*
X91211322Y-72901810D01*
X91287880Y-72925034D01*
X91409376Y-72937000D01*
X91409385Y-72937000D01*
X91449999Y-72941000D01*
X91490613Y-72937000D01*
X92879386Y-72937000D01*
X92920000Y-72941000D01*
X92960614Y-72937000D01*
X92960624Y-72937000D01*
X93082120Y-72925034D01*
X93238010Y-72877745D01*
X93381679Y-72800952D01*
X93423049Y-72767000D01*
X93691418Y-72767000D01*
X93691418Y-73229279D01*
X93684500Y-73216336D01*
X93618764Y-73136236D01*
X93538664Y-73070500D01*
X93447280Y-73021654D01*
X93348121Y-72991575D01*
X93245000Y-72981418D01*
X92695000Y-72981418D01*
X92591879Y-72991575D01*
X92492720Y-73021654D01*
X92401336Y-73070500D01*
X92321236Y-73136236D01*
X92255500Y-73216336D01*
X92206654Y-73307720D01*
X92176575Y-73406879D01*
X92166418Y-73510000D01*
X92166418Y-73910000D01*
X92176575Y-74013121D01*
X92206654Y-74112280D01*
X92255500Y-74203664D01*
X92321236Y-74283764D01*
X92401336Y-74349500D01*
X92492720Y-74398346D01*
X92518000Y-74406015D01*
X92518001Y-74454853D01*
X92492169Y-74468660D01*
X92409228Y-74536728D01*
X92341160Y-74619669D01*
X92290581Y-74714295D01*
X92259435Y-74816971D01*
X92248918Y-74923750D01*
X92248918Y-75436250D01*
X92259435Y-75543029D01*
X92290581Y-75645705D01*
X92341160Y-75740331D01*
X92409228Y-75823272D01*
X92492169Y-75891340D01*
X92586795Y-75941919D01*
X92689471Y-75973065D01*
X92796250Y-75983582D01*
X93233750Y-75983582D01*
X93340529Y-75973065D01*
X93443205Y-75941919D01*
X93537831Y-75891340D01*
X93620772Y-75823272D01*
X93688840Y-75740331D01*
X93739419Y-75645705D01*
X93770565Y-75543029D01*
X93781082Y-75436250D01*
X93781082Y-74923750D01*
X93770565Y-74816971D01*
X93739419Y-74714295D01*
X93688840Y-74619669D01*
X93620772Y-74536728D01*
X93537831Y-74468660D01*
X93443205Y-74418081D01*
X93422000Y-74411649D01*
X93422000Y-74406014D01*
X93447280Y-74398346D01*
X93538664Y-74349500D01*
X93618764Y-74283764D01*
X93684500Y-74203664D01*
X93733346Y-74112280D01*
X93756848Y-74034802D01*
X93787657Y-74072343D01*
X93837450Y-74113206D01*
X93894257Y-74143570D01*
X93955897Y-74162268D01*
X94020000Y-74168582D01*
X96020000Y-74168582D01*
X96084103Y-74162268D01*
X96145743Y-74143570D01*
X96202550Y-74113206D01*
X96252343Y-74072343D01*
X96293206Y-74022550D01*
X96323570Y-73965743D01*
X96342268Y-73904103D01*
X96348582Y-73840000D01*
X96348582Y-72767000D01*
X100001644Y-72767000D01*
X100016430Y-72815743D01*
X100046794Y-72872550D01*
X100087657Y-72922343D01*
X100137450Y-72963206D01*
X100194257Y-72993570D01*
X100255897Y-73012268D01*
X100320000Y-73018582D01*
X102320000Y-73018582D01*
X102384103Y-73012268D01*
X102445743Y-72993570D01*
X102502550Y-72963206D01*
X102552343Y-72922343D01*
X102593206Y-72872550D01*
X102623570Y-72815743D01*
X102642268Y-72754103D01*
X102648582Y-72690000D01*
X102648582Y-71190000D01*
X102642268Y-71125897D01*
X102623570Y-71064257D01*
X102593206Y-71007450D01*
X102552343Y-70957657D01*
X102502550Y-70916794D01*
X102445743Y-70886430D01*
X102384103Y-70867732D01*
X102320000Y-70861418D01*
X100320000Y-70861418D01*
X100255897Y-70867732D01*
X100194257Y-70886430D01*
X100137450Y-70916794D01*
X100087657Y-70957657D01*
X100046794Y-71007450D01*
X100016430Y-71064257D01*
X100001644Y-71113000D01*
X96348582Y-71113000D01*
X96348582Y-70040000D01*
X96342268Y-69975897D01*
X96323570Y-69914257D01*
X96293206Y-69857450D01*
X96252343Y-69807657D01*
X96202550Y-69766794D01*
X96145743Y-69736430D01*
X96084103Y-69717732D01*
X96020000Y-69711418D01*
X94020000Y-69711418D01*
X93955897Y-69717732D01*
X93894257Y-69736430D01*
X93837450Y-69766794D01*
X93787657Y-69807657D01*
X93746794Y-69857450D01*
X93716430Y-69914257D01*
X93697732Y-69975897D01*
X93691418Y-70040000D01*
X93691418Y-70169279D01*
X93684500Y-70156336D01*
X93618764Y-70076236D01*
X93538664Y-70010500D01*
X93447280Y-69961654D01*
X93422481Y-69954131D01*
X93288010Y-69882255D01*
X93132120Y-69834966D01*
X93010624Y-69823000D01*
X92970000Y-69818999D01*
X92929376Y-69823000D01*
X91480624Y-69823000D01*
X91440000Y-69818999D01*
X91399376Y-69823000D01*
X91277880Y-69834966D01*
X91121990Y-69882255D01*
X90987519Y-69954131D01*
X90962720Y-69961654D01*
X90871336Y-70010500D01*
X90791236Y-70076236D01*
X90725500Y-70156336D01*
X90676654Y-70247720D01*
X90646575Y-70346879D01*
X90636418Y-70450000D01*
X90636418Y-70450128D01*
X90624966Y-70487880D01*
X90608999Y-70650000D01*
X90613000Y-70690624D01*
X90613001Y-71479157D01*
X90569147Y-71502597D01*
X90458446Y-71593446D01*
X90435678Y-71621189D01*
X89886179Y-72170689D01*
X89858436Y-72193457D01*
X89767587Y-72304158D01*
X89701386Y-72428010D01*
X89700080Y-72430454D01*
X89658510Y-72567493D01*
X89644473Y-72710010D01*
X89432260Y-72710010D01*
X89432000Y-56983164D01*
X89812428Y-56950551D01*
X89825071Y-56948207D01*
X89837760Y-56946198D01*
X89839809Y-56945649D01*
X90361008Y-56802087D01*
X90373879Y-56797146D01*
X90386799Y-56792392D01*
X90388703Y-56791455D01*
X90872092Y-56549393D01*
X90883789Y-56542027D01*
X90895509Y-56534873D01*
X90897195Y-56533585D01*
X91324360Y-56202242D01*
X91334396Y-56192751D01*
X91344510Y-56183451D01*
X91345914Y-56181859D01*
X91700586Y-55773855D01*
X91708568Y-55762623D01*
X91716703Y-55751508D01*
X91717770Y-55749674D01*
X91986439Y-55280552D01*
X91992100Y-55267956D01*
X91997908Y-55255500D01*
X91998599Y-55253494D01*
X92171032Y-54741122D01*
X92174139Y-54727662D01*
X92177417Y-54714319D01*
X92177705Y-54712217D01*
X92245711Y-54188598D01*
X92246399Y-54186330D01*
X92248599Y-54163995D01*
X92248599Y-49572000D01*
X102925673Y-49572000D01*
X102925672Y-54081248D01*
%TA.AperFunction,Conductor*%
D26*
G36*
X102925672Y-54081248D02*
G01*
X102926292Y-54087544D01*
X102964836Y-54547492D01*
X102967129Y-54560000D01*
X102969068Y-54572550D01*
X102969609Y-54574601D01*
X103111172Y-55096348D01*
X103116066Y-55109244D01*
X103120767Y-55122175D01*
X103121697Y-55124083D01*
X103361903Y-55608394D01*
X103369213Y-55620101D01*
X103376333Y-55631867D01*
X103377615Y-55633558D01*
X103707318Y-56061991D01*
X103716771Y-56072064D01*
X103726032Y-56082213D01*
X103727618Y-56083623D01*
X104134259Y-56439856D01*
X104145458Y-56447879D01*
X104156544Y-56456058D01*
X104158374Y-56457133D01*
X104626462Y-56727598D01*
X104639005Y-56733293D01*
X104651469Y-56739163D01*
X104653473Y-56739862D01*
X105165181Y-56914258D01*
X105178598Y-56917410D01*
X105191959Y-56920746D01*
X105194060Y-56921042D01*
X105648347Y-56981815D01*
X105648347Y-67122713D01*
X103792000Y-65266367D01*
X103792000Y-63243460D01*
X103804103Y-63242268D01*
X103865743Y-63223570D01*
X103922550Y-63193206D01*
X103972343Y-63152343D01*
X104013206Y-63102550D01*
X104043570Y-63045743D01*
X104062268Y-62984103D01*
X104068582Y-62920000D01*
X104068582Y-62020000D01*
X104062268Y-61955897D01*
X104043570Y-61894257D01*
X104013206Y-61837450D01*
X103972343Y-61787657D01*
X103922550Y-61746794D01*
X103865743Y-61716430D01*
X103804103Y-61697732D01*
X103740000Y-61691418D01*
X103322804Y-61691418D01*
X103763905Y-61250317D01*
X103781159Y-61236157D01*
X103837643Y-61167331D01*
X103879614Y-61088808D01*
X103905460Y-61003605D01*
X103905697Y-61001204D01*
X103914187Y-60914998D01*
X103912000Y-60892793D01*
X103912000Y-59716770D01*
X103953664Y-59694500D01*
X104033764Y-59628764D01*
X104099500Y-59548664D01*
X104148346Y-59457280D01*
X104178425Y-59358121D01*
X104188582Y-59255000D01*
X104188582Y-58705000D01*
X104178425Y-58601879D01*
X104148346Y-58502720D01*
X104099500Y-58411336D01*
X104033764Y-58331236D01*
X103953664Y-58265500D01*
X103862280Y-58216654D01*
X103763121Y-58186575D01*
X103660000Y-58176418D01*
X103260000Y-58176418D01*
X103156879Y-58186575D01*
X103057720Y-58216654D01*
X102966336Y-58265500D01*
X102886236Y-58331236D01*
X102820500Y-58411336D01*
X102771654Y-58502720D01*
X102741575Y-58601879D01*
X102731418Y-58705000D01*
X102731418Y-59255000D01*
X102741575Y-59358121D01*
X102771654Y-59457280D01*
X102820500Y-59548664D01*
X102886236Y-59628764D01*
X102966336Y-59694500D01*
X103008000Y-59716770D01*
X103008000Y-59775887D01*
X102972550Y-59746794D01*
X102915743Y-59716430D01*
X102854103Y-59697732D01*
X102790000Y-59691418D01*
X102307419Y-59691418D01*
X102383764Y-59628764D01*
X102449500Y-59548664D01*
X102498346Y-59457280D01*
X102528425Y-59358121D01*
X102538582Y-59255000D01*
X102538582Y-58705000D01*
X102528425Y-58601879D01*
X102498346Y-58502720D01*
X102449500Y-58411336D01*
X102383764Y-58331236D01*
X102303664Y-58265500D01*
X102212280Y-58216654D01*
X102113121Y-58186575D01*
X102010000Y-58176418D01*
X101645642Y-58176418D01*
X101335313Y-57866090D01*
X101321149Y-57848831D01*
X101252323Y-57792347D01*
X101173800Y-57750376D01*
X101088597Y-57724530D01*
X101022195Y-57717990D01*
X100999990Y-57715803D01*
X100977785Y-57717990D01*
X98984736Y-57717990D01*
X98962531Y-57715803D01*
X98873924Y-57724530D01*
X98839512Y-57734969D01*
X98788722Y-57750376D01*
X98710199Y-57792347D01*
X98641373Y-57848831D01*
X98627217Y-57866080D01*
X98351085Y-58142214D01*
X98333832Y-58156373D01*
X98290192Y-58209549D01*
X98277348Y-58225199D01*
X98249721Y-58276885D01*
X98223664Y-58255500D01*
X98132280Y-58206654D01*
X98033121Y-58176575D01*
X97930000Y-58166418D01*
X97530000Y-58166418D01*
X97426879Y-58176575D01*
X97327720Y-58206654D01*
X97236336Y-58255500D01*
X97156236Y-58321236D01*
X97090500Y-58401336D01*
X97041654Y-58492720D01*
X97011575Y-58591879D01*
X97001418Y-58695000D01*
X97001418Y-59245000D01*
X97011575Y-59348121D01*
X97041654Y-59447280D01*
X97090500Y-59538664D01*
X97156236Y-59618764D01*
X97236336Y-59684500D01*
X97278000Y-59706770D01*
X97278001Y-61754549D01*
X97277000Y-61755370D01*
X97277000Y-61748095D01*
X97256748Y-61646280D01*
X97217021Y-61550372D01*
X97159348Y-61464057D01*
X97085943Y-61390652D01*
X96999628Y-61332979D01*
X96903720Y-61293252D01*
X96827001Y-61277992D01*
X96827001Y-58198632D01*
X97593905Y-57431729D01*
X97611159Y-57417569D01*
X97667643Y-57348743D01*
X97709614Y-57270220D01*
X97727174Y-57212333D01*
X97735460Y-57185018D01*
X97739204Y-57147001D01*
X98192794Y-57147001D01*
X98214999Y-57149188D01*
X98237204Y-57147001D01*
X98303606Y-57140461D01*
X98388809Y-57114615D01*
X98467332Y-57072644D01*
X98536158Y-57016160D01*
X98550321Y-56998902D01*
X98593903Y-56955320D01*
X98611159Y-56941159D01*
X98667643Y-56872333D01*
X98709614Y-56793810D01*
X98735460Y-56708607D01*
X98736447Y-56698582D01*
X98940000Y-56698582D01*
X99004103Y-56692268D01*
X99040000Y-56681379D01*
X99075897Y-56692268D01*
X99140000Y-56698582D01*
X99440000Y-56698582D01*
X99504103Y-56692268D01*
X99565000Y-56673795D01*
X99625897Y-56692268D01*
X99690000Y-56698582D01*
X100290000Y-56698582D01*
X100354103Y-56692268D01*
X100415743Y-56673570D01*
X100472550Y-56643206D01*
X100522343Y-56602343D01*
X100563206Y-56552550D01*
X100593570Y-56495743D01*
X100612268Y-56434103D01*
X100618582Y-56370000D01*
X100618582Y-54920000D01*
X100612268Y-54855897D01*
X100604435Y-54830076D01*
X100620181Y-54826944D01*
X100738838Y-54777795D01*
X100845626Y-54706442D01*
X100936442Y-54615626D01*
X101007795Y-54508838D01*
X101056944Y-54390181D01*
X101082000Y-54264216D01*
X101082000Y-54135784D01*
X101056944Y-54009819D01*
X101007795Y-53891162D01*
X100936442Y-53784374D01*
X100845626Y-53693558D01*
X100738838Y-53622205D01*
X100620181Y-53573056D01*
X100494216Y-53548000D01*
X100365784Y-53548000D01*
X100239819Y-53573056D01*
X100121162Y-53622205D01*
X100014374Y-53693558D01*
X99923558Y-53784374D01*
X99852205Y-53891162D01*
X99834996Y-53932708D01*
X99399952Y-53497665D01*
X99383445Y-53477551D01*
X99303199Y-53411695D01*
X99211647Y-53362760D01*
X99112307Y-53332625D01*
X99034878Y-53324999D01*
X99008997Y-53322450D01*
X98983116Y-53324999D01*
X96096884Y-53324999D01*
X96071003Y-53322450D01*
X96045122Y-53324999D01*
X95967693Y-53332625D01*
X95868353Y-53362760D01*
X95776801Y-53411695D01*
X95696555Y-53477551D01*
X95680056Y-53497655D01*
X95245004Y-53932708D01*
X95227795Y-53891162D01*
X95156442Y-53784374D01*
X95065626Y-53693558D01*
X94958838Y-53622205D01*
X94840181Y-53573056D01*
X94714216Y-53548000D01*
X94585784Y-53548000D01*
X94459819Y-53573056D01*
X94341162Y-53622205D01*
X94234374Y-53693558D01*
X94143558Y-53784374D01*
X94072205Y-53891162D01*
X94023056Y-54009819D01*
X93998000Y-54135784D01*
X93998000Y-54264216D01*
X94023056Y-54390181D01*
X94072205Y-54508838D01*
X94143558Y-54615626D01*
X94234374Y-54706442D01*
X94341162Y-54777795D01*
X94459819Y-54826944D01*
X94475565Y-54830076D01*
X94467732Y-54855897D01*
X94461418Y-54920000D01*
X94461418Y-56370000D01*
X94467732Y-56434103D01*
X94486430Y-56495743D01*
X94516794Y-56552550D01*
X94557657Y-56602343D01*
X94563000Y-56606728D01*
X94563001Y-56983000D01*
X93440610Y-56983000D01*
X93399999Y-56979000D01*
X93359388Y-56983000D01*
X92870594Y-56983000D01*
X92829980Y-56979000D01*
X92789366Y-56983000D01*
X92789356Y-56983000D01*
X92667860Y-56994966D01*
X92511970Y-57042255D01*
X92452230Y-57074187D01*
X92368300Y-57119048D01*
X92273928Y-57196498D01*
X92242374Y-57222394D01*
X92216479Y-57253947D01*
X91243942Y-58226485D01*
X91212384Y-58252384D01*
X91109038Y-58378311D01*
X91032245Y-58521980D01*
X90984956Y-58677870D01*
X90968989Y-58839990D01*
X90984956Y-59002110D01*
X91032245Y-59158000D01*
X91109038Y-59301669D01*
X91212384Y-59427596D01*
X91338311Y-59530942D01*
X91481980Y-59607735D01*
X91637870Y-59655024D01*
X91759366Y-59666990D01*
X91759376Y-59666990D01*
X91799990Y-59670990D01*
X91840604Y-59666990D01*
X91976418Y-59666990D01*
X91976418Y-60186418D01*
X91392500Y-60186418D01*
X91316204Y-60193933D01*
X91242839Y-60216187D01*
X91175226Y-60252327D01*
X91115963Y-60300963D01*
X91067327Y-60360226D01*
X91031187Y-60427839D01*
X91008933Y-60501204D01*
X91001418Y-60577500D01*
X91001418Y-60702500D01*
X91008933Y-60778796D01*
X91031187Y-60852161D01*
X91051412Y-60890000D01*
X91031187Y-60927839D01*
X91008933Y-61001204D01*
X91001418Y-61077500D01*
X91001418Y-61142581D01*
X90938764Y-61066236D01*
X90858664Y-61000500D01*
X90767280Y-60951654D01*
X90668121Y-60921575D01*
X90565000Y-60911418D01*
X90015000Y-60911418D01*
X89911879Y-60921575D01*
X89812720Y-60951654D01*
X89721336Y-61000500D01*
X89641236Y-61066236D01*
X89575500Y-61146336D01*
X89526654Y-61237720D01*
X89496575Y-61336879D01*
X89486418Y-61440000D01*
X89486418Y-61840000D01*
X89496575Y-61943121D01*
X89526654Y-62042280D01*
X89575500Y-62133664D01*
X89641236Y-62213764D01*
X89721336Y-62279500D01*
X89812720Y-62328346D01*
X89911879Y-62358425D01*
X90015000Y-62368582D01*
X90565000Y-62368582D01*
X90668121Y-62358425D01*
X90767280Y-62328346D01*
X90858664Y-62279500D01*
X90938764Y-62213764D01*
X91001418Y-62137419D01*
X91001418Y-62202500D01*
X91008933Y-62278796D01*
X91031187Y-62352161D01*
X91051412Y-62390000D01*
X91031187Y-62427839D01*
X91008933Y-62501204D01*
X91001418Y-62577500D01*
X91001418Y-62702500D01*
X91008933Y-62778796D01*
X91031187Y-62852161D01*
X91051412Y-62890000D01*
X91031187Y-62927839D01*
X91008933Y-63001204D01*
X91001418Y-63077500D01*
X91001418Y-63202500D01*
X91008933Y-63278796D01*
X91031187Y-63352161D01*
X91067327Y-63419774D01*
X91115963Y-63479037D01*
X91175226Y-63527673D01*
X91242839Y-63563813D01*
X91290970Y-63578413D01*
X91282979Y-63590372D01*
X91243252Y-63686280D01*
X91223000Y-63788095D01*
X91223000Y-63891905D01*
X91243252Y-63993720D01*
X91282979Y-64089628D01*
X91340652Y-64175943D01*
X91414057Y-64249348D01*
X91500372Y-64307021D01*
X91596280Y-64346748D01*
X91698095Y-64367000D01*
X91801905Y-64367000D01*
X91903720Y-64346748D01*
X91999628Y-64307021D01*
X92000002Y-64306771D01*
X92006187Y-64327161D01*
X92042327Y-64394774D01*
X92090963Y-64454037D01*
X92150226Y-64502673D01*
X92217839Y-64538813D01*
X92291204Y-64561067D01*
X92367500Y-64568582D01*
X92406881Y-64568582D01*
X92403000Y-64588095D01*
X92403000Y-64691905D01*
X92423252Y-64793720D01*
X92462979Y-64889628D01*
X92484409Y-64921701D01*
X92441728Y-64956728D01*
X92373660Y-65039669D01*
X92323081Y-65134295D01*
X92291935Y-65236971D01*
X92281418Y-65343750D01*
X92281418Y-65856250D01*
X92291935Y-65963029D01*
X92323081Y-66065705D01*
X92373660Y-66160331D01*
X92441728Y-66243272D01*
X92524669Y-66311340D01*
X92619295Y-66361919D01*
X92628202Y-66364621D01*
X92616795Y-66368081D01*
X92522169Y-66418660D01*
X92439228Y-66486728D01*
X92371160Y-66569669D01*
X92320581Y-66664295D01*
X92289435Y-66766971D01*
X92278918Y-66873750D01*
X92278918Y-67386250D01*
X92289435Y-67493029D01*
X92320581Y-67595705D01*
X92371160Y-67690331D01*
X92439228Y-67773272D01*
X92522169Y-67841340D01*
X92616795Y-67891919D01*
X92719471Y-67923065D01*
X92826250Y-67933582D01*
X93213843Y-67933582D01*
X93203000Y-67988095D01*
X93203000Y-68091905D01*
X93223252Y-68193720D01*
X93255880Y-68272490D01*
X93245000Y-68271418D01*
X92880642Y-68271418D01*
X92196865Y-67587641D01*
X92225565Y-67493029D01*
X92236082Y-67386250D01*
X92236082Y-66873750D01*
X92225565Y-66766971D01*
X92194419Y-66664295D01*
X92143840Y-66569669D01*
X92075772Y-66486728D01*
X91992831Y-66418660D01*
X91898205Y-66368081D01*
X91889298Y-66365379D01*
X91900705Y-66361919D01*
X91995331Y-66311340D01*
X92078272Y-66243272D01*
X92146340Y-66160331D01*
X92196919Y-66065705D01*
X92228065Y-65963029D01*
X92238582Y-65856250D01*
X92238582Y-65343750D01*
X92228065Y-65236971D01*
X92196919Y-65134295D01*
X92146340Y-65039669D01*
X92078272Y-64956728D01*
X91995331Y-64888660D01*
X91900705Y-64838081D01*
X91798029Y-64806935D01*
X91691250Y-64796418D01*
X91253750Y-64796418D01*
X91146971Y-64806935D01*
X91044295Y-64838081D01*
X90949669Y-64888660D01*
X90866728Y-64956728D01*
X90798660Y-65039669D01*
X90748081Y-65134295D01*
X90716935Y-65236971D01*
X90706418Y-65343750D01*
X90706418Y-65726859D01*
X90403590Y-66029687D01*
X90386331Y-66043851D01*
X90329847Y-66112678D01*
X90305267Y-66158664D01*
X90287876Y-66191201D01*
X90262030Y-66276403D01*
X90253303Y-66365010D01*
X90255490Y-66387215D01*
X90255491Y-68245275D01*
X90253303Y-68267490D01*
X90262030Y-68356097D01*
X90287876Y-68441299D01*
X90329848Y-68519823D01*
X90386332Y-68588649D01*
X90403586Y-68602809D01*
X90636418Y-68835641D01*
X90636418Y-69200000D01*
X90646575Y-69303121D01*
X90676654Y-69402280D01*
X90725500Y-69493664D01*
X90791236Y-69573764D01*
X90871336Y-69639500D01*
X90962720Y-69688346D01*
X91061879Y-69718425D01*
X91165000Y-69728582D01*
X91715000Y-69728582D01*
X91818121Y-69718425D01*
X91917280Y-69688346D01*
X92008664Y-69639500D01*
X92088764Y-69573764D01*
X92154500Y-69493664D01*
X92203346Y-69402280D01*
X92205000Y-69396827D01*
X92206654Y-69402280D01*
X92255500Y-69493664D01*
X92321236Y-69573764D01*
X92401336Y-69639500D01*
X92492720Y-69688346D01*
X92591879Y-69718425D01*
X92695000Y-69728582D01*
X93245000Y-69728582D01*
X93348121Y-69718425D01*
X93447280Y-69688346D01*
X93538664Y-69639500D01*
X93618764Y-69573764D01*
X93663638Y-69519085D01*
X93706280Y-69536748D01*
X93808095Y-69557000D01*
X93911905Y-69557000D01*
X94013720Y-69536748D01*
X94109628Y-69497021D01*
X94124609Y-69487011D01*
X95831186Y-69487011D01*
X95853391Y-69489198D01*
X95875596Y-69487011D01*
X95941998Y-69480471D01*
X96027201Y-69454625D01*
X96105724Y-69412654D01*
X96174550Y-69356170D01*
X96188714Y-69338911D01*
X97168920Y-68358707D01*
X97186169Y-68344551D01*
X97242653Y-68275725D01*
X97284624Y-68197202D01*
X97310470Y-68111999D01*
X97313026Y-68086051D01*
X97319197Y-68023393D01*
X97317010Y-68001188D01*
X97317010Y-66337215D01*
X97319197Y-66315010D01*
X97310470Y-66226402D01*
X97284624Y-66141200D01*
X97244271Y-66065705D01*
X97242653Y-66062677D01*
X97186169Y-65993851D01*
X97168916Y-65979692D01*
X96868582Y-65679358D01*
X96868582Y-65315000D01*
X96858425Y-65211879D01*
X96828346Y-65112720D01*
X96779500Y-65021336D01*
X96713764Y-64941236D01*
X96633664Y-64875500D01*
X96542280Y-64826654D01*
X96443121Y-64796575D01*
X96340000Y-64786418D01*
X96162805Y-64786418D01*
X97252223Y-63697001D01*
X98507796Y-63697001D01*
X98530001Y-63699188D01*
X98552206Y-63697001D01*
X98618608Y-63690461D01*
X98703811Y-63664615D01*
X98782334Y-63622644D01*
X98851160Y-63566160D01*
X98865324Y-63548901D01*
X99123901Y-63290324D01*
X99141159Y-63276161D01*
X99197643Y-63207335D01*
X99201252Y-63200583D01*
X99244257Y-63223570D01*
X99305897Y-63242268D01*
X99370000Y-63248582D01*
X99909358Y-63248582D01*
X100209682Y-63548906D01*
X100223842Y-63566160D01*
X100292668Y-63622644D01*
X100371191Y-63664615D01*
X100456393Y-63690461D01*
X100545001Y-63699188D01*
X100567206Y-63697001D01*
X101367778Y-63697001D01*
X102437991Y-64767215D01*
X102437990Y-65617785D01*
X102435803Y-65639990D01*
X102442297Y-65705923D01*
X102444530Y-65728596D01*
X102470376Y-65813799D01*
X102512347Y-65892322D01*
X102568831Y-65961149D01*
X102586090Y-65975313D01*
X103313777Y-66703000D01*
X101801655Y-66703000D01*
X101688010Y-66642255D01*
X101532120Y-66594966D01*
X101410624Y-66583000D01*
X101410614Y-66583000D01*
X101370000Y-66579000D01*
X101329386Y-66583000D01*
X100482293Y-66583000D01*
X100421414Y-66550460D01*
X100312877Y-66517535D01*
X100200001Y-66506418D01*
X97999999Y-66506418D01*
X97887123Y-66517535D01*
X97778586Y-66550460D01*
X97678557Y-66603926D01*
X97590880Y-66675880D01*
X97518926Y-66763557D01*
X97465460Y-66863586D01*
X97432535Y-66972123D01*
X97421418Y-67084999D01*
X97421418Y-67735001D01*
X97432535Y-67847877D01*
X97465460Y-67956414D01*
X97518926Y-68056443D01*
X97590880Y-68144120D01*
X97678557Y-68216074D01*
X97778586Y-68269540D01*
X97887123Y-68302465D01*
X97999999Y-68313582D01*
X98834029Y-68313582D01*
X99146497Y-68626051D01*
X99172394Y-68657606D01*
X99203947Y-68683501D01*
X99203948Y-68683502D01*
X99298320Y-68760952D01*
X99334653Y-68780372D01*
X99441990Y-68837745D01*
X99597880Y-68885034D01*
X99719376Y-68897000D01*
X99719386Y-68897000D01*
X99760000Y-68901000D01*
X99800614Y-68897000D01*
X99991418Y-68897000D01*
X99991418Y-70390000D01*
X99997732Y-70454103D01*
X100016430Y-70515743D01*
X100046794Y-70572550D01*
X100087657Y-70622343D01*
X100137450Y-70663206D01*
X100194257Y-70693570D01*
X100255897Y-70712268D01*
X100320000Y-70718582D01*
X101245432Y-70718582D01*
X101248320Y-70720952D01*
X101325113Y-70761998D01*
X101391990Y-70797745D01*
X101547880Y-70845034D01*
X101669376Y-70857000D01*
X101669388Y-70857000D01*
X101709999Y-70861000D01*
X101750610Y-70857000D01*
X103919376Y-70857000D01*
X103960000Y-70861001D01*
X104000624Y-70857000D01*
X104122120Y-70845034D01*
X104278010Y-70797745D01*
X104421679Y-70720952D01*
X104468001Y-70682937D01*
X104468000Y-74362775D01*
X101798838Y-77031939D01*
X101693318Y-76988231D01*
X101465924Y-76943000D01*
X101234076Y-76943000D01*
X101006682Y-76988231D01*
X100792481Y-77076956D01*
X100599706Y-77205764D01*
X100435764Y-77369706D01*
X100306956Y-77562481D01*
X100218231Y-77776682D01*
X100173000Y-78004076D01*
X100173000Y-78235924D01*
X100218231Y-78463318D01*
X100306956Y-78677519D01*
X100435764Y-78870294D01*
X100599706Y-79034236D01*
X100792481Y-79163044D01*
X101006682Y-79251769D01*
X101234076Y-79297000D01*
X101465924Y-79297000D01*
X101693318Y-79251769D01*
X101907519Y-79163044D01*
X102100294Y-79034236D01*
X102264236Y-78870294D01*
X102393044Y-78677519D01*
X102481769Y-78463318D01*
X102527000Y-78235924D01*
X102527000Y-78004076D01*
X102481769Y-77776682D01*
X102438061Y-77671162D01*
X104918011Y-75191214D01*
X104918011Y-76452764D01*
X104338837Y-77031939D01*
X104233318Y-76988231D01*
X104005924Y-76943000D01*
X103774076Y-76943000D01*
X103546682Y-76988231D01*
X103332481Y-77076956D01*
X103139706Y-77205764D01*
X102975764Y-77369706D01*
X102846956Y-77562481D01*
X102758231Y-77776682D01*
X102713000Y-78004076D01*
X102713000Y-78235924D01*
X102758231Y-78463318D01*
X102846956Y-78677519D01*
X102975764Y-78870294D01*
X103139706Y-79034236D01*
X103332481Y-79163044D01*
X103546682Y-79251769D01*
X103774076Y-79297000D01*
X104005924Y-79297000D01*
X104233318Y-79251769D01*
X104447519Y-79163044D01*
X104640294Y-79034236D01*
X104804236Y-78870294D01*
X104933044Y-78677519D01*
X105021769Y-78463318D01*
X105067000Y-78235924D01*
X105067000Y-78004076D01*
X105021769Y-77776682D01*
X104978061Y-77671163D01*
X105648346Y-77000879D01*
X105648346Y-79882472D01*
X105647848Y-79887481D01*
X105646494Y-79887622D01*
X89432692Y-79887622D01*
X89432378Y-79879100D01*
X89432260Y-72710010D01*
X89644473Y-72710010D01*
X89647990Y-72745718D01*
X89647991Y-77269272D01*
X89644473Y-77304990D01*
X89658510Y-77447507D01*
X89700080Y-77584546D01*
X89700081Y-77584547D01*
X89767588Y-77710843D01*
X89858437Y-77821544D01*
X89886179Y-77844311D01*
X90011418Y-77969550D01*
X90011418Y-78970000D01*
X90017732Y-79034103D01*
X90036430Y-79095743D01*
X90066794Y-79152550D01*
X90107657Y-79202343D01*
X90157450Y-79243206D01*
X90214257Y-79273570D01*
X90275897Y-79292268D01*
X90340000Y-79298582D01*
X92040000Y-79298582D01*
X92104103Y-79292268D01*
X92165743Y-79273570D01*
X92222550Y-79243206D01*
X92272343Y-79202343D01*
X92313206Y-79152550D01*
X92343570Y-79095743D01*
X92362268Y-79034103D01*
X92368582Y-78970000D01*
X92368582Y-78004076D01*
X95093000Y-78004076D01*
X95093000Y-78235924D01*
X95138231Y-78463318D01*
X95226956Y-78677519D01*
X95355764Y-78870294D01*
X95519706Y-79034236D01*
X95712481Y-79163044D01*
X95926682Y-79251769D01*
X96154076Y-79297000D01*
X96385924Y-79297000D01*
X96613318Y-79251769D01*
X96827519Y-79163044D01*
X97020294Y-79034236D01*
X97184236Y-78870294D01*
X97313044Y-78677519D01*
X97401769Y-78463318D01*
X97447000Y-78235924D01*
X97447000Y-78004076D01*
X97633000Y-78004076D01*
X97633000Y-78235924D01*
X97678231Y-78463318D01*
X97766956Y-78677519D01*
X97895764Y-78870294D01*
X98059706Y-79034236D01*
X98252481Y-79163044D01*
X98466682Y-79251769D01*
X98694076Y-79297000D01*
X98925924Y-79297000D01*
X99153318Y-79251769D01*
X99367519Y-79163044D01*
X99560294Y-79034236D01*
X99724236Y-78870294D01*
X99853044Y-78677519D01*
X99941769Y-78463318D01*
X99987000Y-78235924D01*
X99987000Y-78004076D01*
X99941769Y-77776682D01*
X99853044Y-77562481D01*
X99724236Y-77369706D01*
X99560294Y-77205764D01*
X99367519Y-77076956D01*
X99153318Y-76988231D01*
X98925924Y-76943000D01*
X98694076Y-76943000D01*
X98466682Y-76988231D01*
X98252481Y-77076956D01*
X98059706Y-77205764D01*
X97895764Y-77369706D01*
X97766956Y-77562481D01*
X97678231Y-77776682D01*
X97633000Y-78004076D01*
X97447000Y-78004076D01*
X97401769Y-77776682D01*
X97313044Y-77562481D01*
X97184236Y-77369706D01*
X97020294Y-77205764D01*
X96827519Y-77076956D01*
X96613318Y-76988231D01*
X96385924Y-76943000D01*
X96154076Y-76943000D01*
X95926682Y-76988231D01*
X95712481Y-77076956D01*
X95519706Y-77205764D01*
X95355764Y-77369706D01*
X95226956Y-77562481D01*
X95138231Y-77776682D01*
X95093000Y-78004076D01*
X92368582Y-78004076D01*
X92368582Y-77270000D01*
X92362268Y-77205897D01*
X92343570Y-77144257D01*
X92313206Y-77087450D01*
X92272343Y-77037657D01*
X92222550Y-76996794D01*
X92165743Y-76966430D01*
X92104103Y-76947732D01*
X92040000Y-76941418D01*
X91101990Y-76941418D01*
X91101990Y-73011142D01*
X91211322Y-72901810D01*
X91287880Y-72925034D01*
X91409376Y-72937000D01*
X91409385Y-72937000D01*
X91449999Y-72941000D01*
X91490613Y-72937000D01*
X92879386Y-72937000D01*
X92920000Y-72941000D01*
X92960614Y-72937000D01*
X92960624Y-72937000D01*
X93082120Y-72925034D01*
X93238010Y-72877745D01*
X93381679Y-72800952D01*
X93423049Y-72767000D01*
X93691418Y-72767000D01*
X93691418Y-73229279D01*
X93684500Y-73216336D01*
X93618764Y-73136236D01*
X93538664Y-73070500D01*
X93447280Y-73021654D01*
X93348121Y-72991575D01*
X93245000Y-72981418D01*
X92695000Y-72981418D01*
X92591879Y-72991575D01*
X92492720Y-73021654D01*
X92401336Y-73070500D01*
X92321236Y-73136236D01*
X92255500Y-73216336D01*
X92206654Y-73307720D01*
X92176575Y-73406879D01*
X92166418Y-73510000D01*
X92166418Y-73910000D01*
X92176575Y-74013121D01*
X92206654Y-74112280D01*
X92255500Y-74203664D01*
X92321236Y-74283764D01*
X92401336Y-74349500D01*
X92492720Y-74398346D01*
X92518000Y-74406015D01*
X92518001Y-74454853D01*
X92492169Y-74468660D01*
X92409228Y-74536728D01*
X92341160Y-74619669D01*
X92290581Y-74714295D01*
X92259435Y-74816971D01*
X92248918Y-74923750D01*
X92248918Y-75436250D01*
X92259435Y-75543029D01*
X92290581Y-75645705D01*
X92341160Y-75740331D01*
X92409228Y-75823272D01*
X92492169Y-75891340D01*
X92586795Y-75941919D01*
X92689471Y-75973065D01*
X92796250Y-75983582D01*
X93233750Y-75983582D01*
X93340529Y-75973065D01*
X93443205Y-75941919D01*
X93537831Y-75891340D01*
X93620772Y-75823272D01*
X93688840Y-75740331D01*
X93739419Y-75645705D01*
X93770565Y-75543029D01*
X93781082Y-75436250D01*
X93781082Y-74923750D01*
X93770565Y-74816971D01*
X93739419Y-74714295D01*
X93688840Y-74619669D01*
X93620772Y-74536728D01*
X93537831Y-74468660D01*
X93443205Y-74418081D01*
X93422000Y-74411649D01*
X93422000Y-74406014D01*
X93447280Y-74398346D01*
X93538664Y-74349500D01*
X93618764Y-74283764D01*
X93684500Y-74203664D01*
X93733346Y-74112280D01*
X93756848Y-74034802D01*
X93787657Y-74072343D01*
X93837450Y-74113206D01*
X93894257Y-74143570D01*
X93955897Y-74162268D01*
X94020000Y-74168582D01*
X96020000Y-74168582D01*
X96084103Y-74162268D01*
X96145743Y-74143570D01*
X96202550Y-74113206D01*
X96252343Y-74072343D01*
X96293206Y-74022550D01*
X96323570Y-73965743D01*
X96342268Y-73904103D01*
X96348582Y-73840000D01*
X96348582Y-72767000D01*
X100001644Y-72767000D01*
X100016430Y-72815743D01*
X100046794Y-72872550D01*
X100087657Y-72922343D01*
X100137450Y-72963206D01*
X100194257Y-72993570D01*
X100255897Y-73012268D01*
X100320000Y-73018582D01*
X102320000Y-73018582D01*
X102384103Y-73012268D01*
X102445743Y-72993570D01*
X102502550Y-72963206D01*
X102552343Y-72922343D01*
X102593206Y-72872550D01*
X102623570Y-72815743D01*
X102642268Y-72754103D01*
X102648582Y-72690000D01*
X102648582Y-71190000D01*
X102642268Y-71125897D01*
X102623570Y-71064257D01*
X102593206Y-71007450D01*
X102552343Y-70957657D01*
X102502550Y-70916794D01*
X102445743Y-70886430D01*
X102384103Y-70867732D01*
X102320000Y-70861418D01*
X100320000Y-70861418D01*
X100255897Y-70867732D01*
X100194257Y-70886430D01*
X100137450Y-70916794D01*
X100087657Y-70957657D01*
X100046794Y-71007450D01*
X100016430Y-71064257D01*
X100001644Y-71113000D01*
X96348582Y-71113000D01*
X96348582Y-70040000D01*
X96342268Y-69975897D01*
X96323570Y-69914257D01*
X96293206Y-69857450D01*
X96252343Y-69807657D01*
X96202550Y-69766794D01*
X96145743Y-69736430D01*
X96084103Y-69717732D01*
X96020000Y-69711418D01*
X94020000Y-69711418D01*
X93955897Y-69717732D01*
X93894257Y-69736430D01*
X93837450Y-69766794D01*
X93787657Y-69807657D01*
X93746794Y-69857450D01*
X93716430Y-69914257D01*
X93697732Y-69975897D01*
X93691418Y-70040000D01*
X93691418Y-70169279D01*
X93684500Y-70156336D01*
X93618764Y-70076236D01*
X93538664Y-70010500D01*
X93447280Y-69961654D01*
X93422481Y-69954131D01*
X93288010Y-69882255D01*
X93132120Y-69834966D01*
X93010624Y-69823000D01*
X92970000Y-69818999D01*
X92929376Y-69823000D01*
X91480624Y-69823000D01*
X91440000Y-69818999D01*
X91399376Y-69823000D01*
X91277880Y-69834966D01*
X91121990Y-69882255D01*
X90987519Y-69954131D01*
X90962720Y-69961654D01*
X90871336Y-70010500D01*
X90791236Y-70076236D01*
X90725500Y-70156336D01*
X90676654Y-70247720D01*
X90646575Y-70346879D01*
X90636418Y-70450000D01*
X90636418Y-70450128D01*
X90624966Y-70487880D01*
X90608999Y-70650000D01*
X90613000Y-70690624D01*
X90613001Y-71479157D01*
X90569147Y-71502597D01*
X90458446Y-71593446D01*
X90435678Y-71621189D01*
X89886179Y-72170689D01*
X89858436Y-72193457D01*
X89767587Y-72304158D01*
X89701386Y-72428010D01*
X89700080Y-72430454D01*
X89658510Y-72567493D01*
X89644473Y-72710010D01*
X89432260Y-72710010D01*
X89432000Y-56983164D01*
X89812428Y-56950551D01*
X89825071Y-56948207D01*
X89837760Y-56946198D01*
X89839809Y-56945649D01*
X90361008Y-56802087D01*
X90373879Y-56797146D01*
X90386799Y-56792392D01*
X90388703Y-56791455D01*
X90872092Y-56549393D01*
X90883789Y-56542027D01*
X90895509Y-56534873D01*
X90897195Y-56533585D01*
X91324360Y-56202242D01*
X91334396Y-56192751D01*
X91344510Y-56183451D01*
X91345914Y-56181859D01*
X91700586Y-55773855D01*
X91708568Y-55762623D01*
X91716703Y-55751508D01*
X91717770Y-55749674D01*
X91986439Y-55280552D01*
X91992100Y-55267956D01*
X91997908Y-55255500D01*
X91998599Y-55253494D01*
X92171032Y-54741122D01*
X92174139Y-54727662D01*
X92177417Y-54714319D01*
X92177705Y-54712217D01*
X92245711Y-54188598D01*
X92246399Y-54186330D01*
X92248599Y-54163995D01*
X92248599Y-49572000D01*
X102925673Y-49572000D01*
X102925672Y-54081248D01*
G37*
%TD.AperFunction*%
D25*
X97141418Y-62793001D02*
X97087204Y-62793001D01*
X97064999Y-62790814D01*
X96976391Y-62799541D01*
X96891189Y-62825387D01*
X96812666Y-62867358D01*
X96743840Y-62923842D01*
X96729680Y-62941096D01*
X96333253Y-63337523D01*
X96351067Y-63278796D01*
X96358582Y-63202500D01*
X96358582Y-63077500D01*
X96351067Y-63001204D01*
X96328813Y-62927839D01*
X96292673Y-62860226D01*
X96244037Y-62800963D01*
X96184774Y-62752327D01*
X96117161Y-62716187D01*
X96043796Y-62693933D01*
X95967500Y-62686418D01*
X95308582Y-62686418D01*
X95308582Y-62593582D01*
X95967500Y-62593582D01*
X95983561Y-62592000D01*
X96387795Y-62592000D01*
X96410000Y-62594187D01*
X96432205Y-62592000D01*
X96498607Y-62585460D01*
X96583810Y-62559614D01*
X96662333Y-62517643D01*
X96731159Y-62461159D01*
X96745323Y-62443900D01*
X96877200Y-62312023D01*
X96903720Y-62306748D01*
X96999628Y-62267021D01*
X97085943Y-62209348D01*
X97141418Y-62153873D01*
X97141418Y-62793001D01*
%TA.AperFunction,Conductor*%
D26*
G36*
X97141418Y-62793001D02*
G01*
X97087204Y-62793001D01*
X97064999Y-62790814D01*
X96976391Y-62799541D01*
X96891189Y-62825387D01*
X96812666Y-62867358D01*
X96743840Y-62923842D01*
X96729680Y-62941096D01*
X96333253Y-63337523D01*
X96351067Y-63278796D01*
X96358582Y-63202500D01*
X96358582Y-63077500D01*
X96351067Y-63001204D01*
X96328813Y-62927839D01*
X96292673Y-62860226D01*
X96244037Y-62800963D01*
X96184774Y-62752327D01*
X96117161Y-62716187D01*
X96043796Y-62693933D01*
X95967500Y-62686418D01*
X95308582Y-62686418D01*
X95308582Y-62593582D01*
X95967500Y-62593582D01*
X95983561Y-62592000D01*
X96387795Y-62592000D01*
X96410000Y-62594187D01*
X96432205Y-62592000D01*
X96498607Y-62585460D01*
X96583810Y-62559614D01*
X96662333Y-62517643D01*
X96731159Y-62461159D01*
X96745323Y-62443900D01*
X96877200Y-62312023D01*
X96903720Y-62306748D01*
X96999628Y-62267021D01*
X97085943Y-62209348D01*
X97141418Y-62153873D01*
X97141418Y-62793001D01*
G37*
%TD.AperFunction*%
D25*
X100330372Y-59437021D02*
X100426280Y-59476748D01*
X100452800Y-59482023D01*
X101661418Y-60690643D01*
X101661418Y-60920000D01*
X101667732Y-60984103D01*
X101686430Y-61045743D01*
X101716794Y-61102550D01*
X101757657Y-61152343D01*
X101807450Y-61193206D01*
X101864257Y-61223570D01*
X101925897Y-61242268D01*
X101990000Y-61248582D01*
X102487192Y-61248582D01*
X102000674Y-61735101D01*
X101965743Y-61716430D01*
X101904103Y-61697732D01*
X101840000Y-61691418D01*
X101040000Y-61691418D01*
X100975897Y-61697732D01*
X100914257Y-61716430D01*
X100857450Y-61746794D01*
X100807657Y-61787657D01*
X100766794Y-61837450D01*
X100736430Y-61894257D01*
X100717732Y-61955897D01*
X100711418Y-62020000D01*
X100711418Y-62772194D01*
X100498582Y-62559358D01*
X100498582Y-62020000D01*
X100492268Y-61955897D01*
X100473570Y-61894257D01*
X100443206Y-61837450D01*
X100402343Y-61787657D01*
X100352550Y-61746794D01*
X100295743Y-61716430D01*
X100234103Y-61697732D01*
X100170000Y-61691418D01*
X99370000Y-61691418D01*
X99305897Y-61697732D01*
X99272000Y-61708014D01*
X99272000Y-61243460D01*
X99284103Y-61242268D01*
X99345743Y-61223570D01*
X99402550Y-61193206D01*
X99452343Y-61152343D01*
X99493206Y-61102550D01*
X99523570Y-61045743D01*
X99542268Y-60984103D01*
X99548582Y-60920000D01*
X99548582Y-60020000D01*
X99542268Y-59955897D01*
X99523570Y-59894257D01*
X99493206Y-59837450D01*
X99452343Y-59787657D01*
X99435192Y-59773582D01*
X99580000Y-59773582D01*
X99683121Y-59763425D01*
X99782280Y-59733346D01*
X99873664Y-59684500D01*
X99953764Y-59618764D01*
X100019500Y-59538664D01*
X100068346Y-59447280D01*
X100076014Y-59422000D01*
X100307891Y-59422000D01*
X100330372Y-59437021D01*
%TA.AperFunction,Conductor*%
D26*
G36*
X100330372Y-59437021D02*
G01*
X100426280Y-59476748D01*
X100452800Y-59482023D01*
X101661418Y-60690643D01*
X101661418Y-60920000D01*
X101667732Y-60984103D01*
X101686430Y-61045743D01*
X101716794Y-61102550D01*
X101757657Y-61152343D01*
X101807450Y-61193206D01*
X101864257Y-61223570D01*
X101925897Y-61242268D01*
X101990000Y-61248582D01*
X102487192Y-61248582D01*
X102000674Y-61735101D01*
X101965743Y-61716430D01*
X101904103Y-61697732D01*
X101840000Y-61691418D01*
X101040000Y-61691418D01*
X100975897Y-61697732D01*
X100914257Y-61716430D01*
X100857450Y-61746794D01*
X100807657Y-61787657D01*
X100766794Y-61837450D01*
X100736430Y-61894257D01*
X100717732Y-61955897D01*
X100711418Y-62020000D01*
X100711418Y-62772194D01*
X100498582Y-62559358D01*
X100498582Y-62020000D01*
X100492268Y-61955897D01*
X100473570Y-61894257D01*
X100443206Y-61837450D01*
X100402343Y-61787657D01*
X100352550Y-61746794D01*
X100295743Y-61716430D01*
X100234103Y-61697732D01*
X100170000Y-61691418D01*
X99370000Y-61691418D01*
X99305897Y-61697732D01*
X99272000Y-61708014D01*
X99272000Y-61243460D01*
X99284103Y-61242268D01*
X99345743Y-61223570D01*
X99402550Y-61193206D01*
X99452343Y-61152343D01*
X99493206Y-61102550D01*
X99523570Y-61045743D01*
X99542268Y-60984103D01*
X99548582Y-60920000D01*
X99548582Y-60020000D01*
X99542268Y-59955897D01*
X99523570Y-59894257D01*
X99493206Y-59837450D01*
X99452343Y-59787657D01*
X99435192Y-59773582D01*
X99580000Y-59773582D01*
X99683121Y-59763425D01*
X99782280Y-59733346D01*
X99873664Y-59684500D01*
X99953764Y-59618764D01*
X100019500Y-59538664D01*
X100068346Y-59447280D01*
X100076014Y-59422000D01*
X100307891Y-59422000D01*
X100330372Y-59437021D01*
G37*
%TD.AperFunction*%
%TD*%
M02*
