%TF.GenerationSoftware,KiCad,Pcbnew,(5.1.9)-1*%
%TF.CreationDate,2021-05-04T17:18:08+07:00*%
%TF.ProjectId,usb_debug,7573625f-6465-4627-9567-2e6b69636164,rev?*%
%TF.SameCoordinates,Original*%
%TF.FileFunction,Copper,L2,Bot*%
%TF.FilePolarity,Positive*%
%FSLAX46Y46*%
G04 Gerber Fmt 4.6, Leading zero omitted, Abs format (unit mm)*
G04 Created by KiCad (PCBNEW (5.1.9)-1) date 2021-05-04 17:18:08*
%MOMM*%
%LPD*%
G01*
G04 APERTURE LIST*
%TA.AperFunction,ComponentPad*%
%ADD10O,1.700000X1.700000*%
%TD*%
%TA.AperFunction,ComponentPad*%
%ADD11R,1.700000X1.700000*%
%TD*%
%TA.AperFunction,ComponentPad*%
%ADD12O,1.000000X2.100000*%
%TD*%
%TA.AperFunction,ComponentPad*%
%ADD13O,1.000000X1.600000*%
%TD*%
%TA.AperFunction,ViaPad*%
%ADD14C,0.400000*%
%TD*%
%TA.AperFunction,Conductor*%
%ADD15C,1.000000*%
%TD*%
%TA.AperFunction,Conductor*%
%ADD16C,0.250000*%
%TD*%
%TA.AperFunction,Conductor*%
%ADD17C,0.254000*%
%TD*%
%TA.AperFunction,Conductor*%
%ADD18C,0.100000*%
%TD*%
G04 APERTURE END LIST*
D10*
%TO.P,J2,6*%
%TO.N,EN*%
X103890000Y-78120000D03*
%TO.P,J2,5*%
%TO.N,IO0*%
X101350000Y-78120000D03*
%TO.P,J2,4*%
%TO.N,RX0*%
X98810000Y-78120000D03*
%TO.P,J2,3*%
%TO.N,TX0*%
X96270000Y-78120000D03*
%TO.P,J2,2*%
%TO.N,GND*%
X93730000Y-78120000D03*
D11*
%TO.P,J2,1*%
%TO.N,+3V3*%
X91190000Y-78120000D03*
%TD*%
D12*
%TO.P,J1,S1*%
%TO.N,GND*%
X93220000Y-54730000D03*
X101860000Y-54730000D03*
D13*
X101860000Y-50550000D03*
X93220000Y-50550000D03*
%TD*%
D14*
%TO.N,+5V*%
X92500000Y-58839990D03*
X93180010Y-58839990D03*
X93930010Y-58839990D03*
X94660010Y-58839990D03*
X93150000Y-58060000D03*
X93930000Y-58060000D03*
X94680000Y-58060000D03*
X103000000Y-68060000D03*
X103010000Y-70000000D03*
X103960000Y-70030000D03*
X103940000Y-68070000D03*
X103950000Y-69090000D03*
X102990000Y-69080000D03*
%TO.N,GND*%
X96710000Y-62680000D03*
X100030000Y-60240000D03*
X101160000Y-60230000D03*
%TO.N,RX0*%
X95414990Y-68060000D03*
%TO.N,TX0*%
X94490000Y-68060000D03*
%TO.N,D+*%
X95850000Y-57900000D03*
X96750000Y-61800000D03*
%TO.N,RTS*%
X100580000Y-58970000D03*
X91750000Y-63840000D03*
%TO.N,Net-(R3-Pad2)*%
X93730000Y-64670000D03*
X93730000Y-68040000D03*
%TO.N,Net-(R4-Pad1)*%
X92930000Y-64640000D03*
X93860000Y-69030000D03*
%TD*%
D15*
%TO.N,+5V*%
X92500000Y-58839990D02*
X94660010Y-58839990D01*
X93150000Y-58060000D02*
X93930000Y-58060000D01*
X94660010Y-58839990D02*
X94660010Y-58309990D01*
X93930000Y-58060000D02*
X94680000Y-58060000D01*
X104120000Y-68050000D02*
X104120000Y-68100000D01*
X104120000Y-70120000D02*
X104120000Y-70120000D01*
X103090000Y-70120000D02*
X103050000Y-70080000D01*
X103050000Y-70080000D02*
X103050000Y-69080000D01*
X103050000Y-68960000D02*
X103540000Y-68470000D01*
X103050000Y-70080000D02*
X103050000Y-69820000D01*
X103050000Y-69820000D02*
X103570000Y-69300000D01*
X92500000Y-61150000D02*
X92500000Y-58839990D01*
X99400000Y-68050000D02*
X92500000Y-61150000D01*
X103050000Y-68960000D02*
X103050000Y-68200000D01*
X102900000Y-68050000D02*
X99400000Y-68050000D01*
X103050000Y-68200000D02*
X102945000Y-68095000D01*
X104120000Y-68050000D02*
X102900000Y-68050000D01*
X102945000Y-68095000D02*
X102900000Y-68050000D01*
X103050000Y-70080000D02*
X103050000Y-70080000D01*
X104120000Y-70120000D02*
X103090000Y-70120000D01*
X104120000Y-68100000D02*
X104120000Y-69120000D01*
X104120000Y-69120000D02*
X104120000Y-70120000D01*
X103050000Y-69080000D02*
X103050000Y-68960000D01*
X104120000Y-69120000D02*
X104120000Y-68060000D01*
X92500000Y-58710000D02*
X93150000Y-58060000D01*
X92500000Y-58839990D02*
X92500000Y-58710000D01*
D16*
%TO.N,RX0*%
X98810000Y-78120000D02*
X95420000Y-74730000D01*
X95420000Y-68065010D02*
X95414990Y-68060000D01*
X95420000Y-74730000D02*
X95420000Y-68065010D01*
%TO.N,TX0*%
X96270000Y-76680000D02*
X96270000Y-78120000D01*
X94490000Y-74900000D02*
X96270000Y-76680000D01*
X94490000Y-68060000D02*
X94490000Y-74900000D01*
%TO.N,D+*%
X95850000Y-57900000D02*
X95850000Y-57900000D01*
X95850000Y-57900000D02*
X95850000Y-59120000D01*
X95850000Y-59120000D02*
X96750000Y-60020000D01*
X96750000Y-61800000D02*
X96750000Y-60020000D01*
%TO.N,RTS*%
X92808269Y-57234991D02*
X91170000Y-58873260D01*
X98844990Y-57234990D02*
X92808269Y-57234991D01*
X100580000Y-58970000D02*
X98844990Y-57234990D01*
X91170000Y-58873260D02*
X91170000Y-63260000D01*
X91750000Y-63840000D02*
X91770000Y-63860000D01*
X91750000Y-63840000D02*
X91170000Y-63260000D01*
%TO.N,Net-(R3-Pad2)*%
X93730000Y-64670000D02*
X93730000Y-68040000D01*
X93730000Y-68040000D02*
X93730000Y-68040000D01*
%TO.N,Net-(R4-Pad1)*%
X93204999Y-64914999D02*
X92930000Y-64640000D01*
X93204999Y-68374999D02*
X93204999Y-64914999D01*
X93204999Y-68374999D02*
X93860000Y-69030000D01*
%TD*%
D17*
%TO.N,GND*%
X102925672Y-54081248D02*
X102926292Y-54087544D01*
X102964836Y-54547492D01*
X102967129Y-54560000D01*
X102969068Y-54572550D01*
X102969609Y-54574601D01*
X103111172Y-55096348D01*
X103116066Y-55109244D01*
X103120767Y-55122175D01*
X103121697Y-55124083D01*
X103361903Y-55608394D01*
X103369213Y-55620101D01*
X103376333Y-55631867D01*
X103377615Y-55633558D01*
X103707318Y-56061991D01*
X103716771Y-56072064D01*
X103726032Y-56082213D01*
X103727618Y-56083623D01*
X104134259Y-56439856D01*
X104145458Y-56447879D01*
X104156544Y-56456058D01*
X104158374Y-56457133D01*
X104626462Y-56727598D01*
X104639005Y-56733293D01*
X104651469Y-56739163D01*
X104653473Y-56739862D01*
X105165181Y-56914258D01*
X105178598Y-56917410D01*
X105191959Y-56920746D01*
X105194060Y-56921042D01*
X105648347Y-56981815D01*
X105648346Y-79882472D01*
X105647848Y-79887481D01*
X105646494Y-79887622D01*
X89432692Y-79887622D01*
X89432378Y-79879100D01*
X89432335Y-77270000D01*
X90011418Y-77270000D01*
X90011418Y-78970000D01*
X90017732Y-79034103D01*
X90036430Y-79095743D01*
X90066794Y-79152550D01*
X90107657Y-79202343D01*
X90157450Y-79243206D01*
X90214257Y-79273570D01*
X90275897Y-79292268D01*
X90340000Y-79298582D01*
X92040000Y-79298582D01*
X92104103Y-79292268D01*
X92165743Y-79273570D01*
X92222550Y-79243206D01*
X92272343Y-79202343D01*
X92313206Y-79152550D01*
X92343570Y-79095743D01*
X92362268Y-79034103D01*
X92368582Y-78970000D01*
X92368582Y-77270000D01*
X92362268Y-77205897D01*
X92343570Y-77144257D01*
X92313206Y-77087450D01*
X92272343Y-77037657D01*
X92222550Y-76996794D01*
X92165743Y-76966430D01*
X92104103Y-76947732D01*
X92040000Y-76941418D01*
X90340000Y-76941418D01*
X90275897Y-76947732D01*
X90214257Y-76966430D01*
X90157450Y-76996794D01*
X90107657Y-77037657D01*
X90066794Y-77087450D01*
X90036430Y-77144257D01*
X90017732Y-77205897D01*
X90011418Y-77270000D01*
X89432335Y-77270000D01*
X89432127Y-64588095D01*
X92403000Y-64588095D01*
X92403000Y-64691905D01*
X92423252Y-64793720D01*
X92462979Y-64889628D01*
X92520652Y-64975943D01*
X92594057Y-65049348D01*
X92680372Y-65107021D01*
X92753000Y-65137105D01*
X92752999Y-68352794D01*
X92750812Y-68374999D01*
X92759539Y-68463606D01*
X92776403Y-68519197D01*
X92785385Y-68548808D01*
X92827356Y-68627331D01*
X92883840Y-68696158D01*
X92901099Y-68710322D01*
X93347977Y-69157202D01*
X93353252Y-69183720D01*
X93392979Y-69279628D01*
X93450652Y-69365943D01*
X93524057Y-69439348D01*
X93610372Y-69497021D01*
X93706280Y-69536748D01*
X93808095Y-69557000D01*
X93911905Y-69557000D01*
X94013720Y-69536748D01*
X94038000Y-69526691D01*
X94038001Y-74877785D01*
X94035813Y-74900000D01*
X94044540Y-74988607D01*
X94070386Y-75073809D01*
X94070387Y-75073810D01*
X94112358Y-75152333D01*
X94168842Y-75221159D01*
X94186096Y-75235319D01*
X95818000Y-76867225D01*
X95818000Y-77033248D01*
X95712481Y-77076956D01*
X95519706Y-77205764D01*
X95355764Y-77369706D01*
X95226956Y-77562481D01*
X95138231Y-77776682D01*
X95093000Y-78004076D01*
X95093000Y-78235924D01*
X95138231Y-78463318D01*
X95226956Y-78677519D01*
X95355764Y-78870294D01*
X95519706Y-79034236D01*
X95712481Y-79163044D01*
X95926682Y-79251769D01*
X96154076Y-79297000D01*
X96385924Y-79297000D01*
X96613318Y-79251769D01*
X96827519Y-79163044D01*
X97020294Y-79034236D01*
X97184236Y-78870294D01*
X97313044Y-78677519D01*
X97401769Y-78463318D01*
X97447000Y-78235924D01*
X97447000Y-78004076D01*
X97401769Y-77776682D01*
X97313044Y-77562481D01*
X97184236Y-77369706D01*
X97020294Y-77205764D01*
X96827519Y-77076956D01*
X96722000Y-77033249D01*
X96722000Y-76702204D01*
X96724187Y-76679999D01*
X96723467Y-76672691D01*
X97721939Y-77671162D01*
X97678231Y-77776682D01*
X97633000Y-78004076D01*
X97633000Y-78235924D01*
X97678231Y-78463318D01*
X97766956Y-78677519D01*
X97895764Y-78870294D01*
X98059706Y-79034236D01*
X98252481Y-79163044D01*
X98466682Y-79251769D01*
X98694076Y-79297000D01*
X98925924Y-79297000D01*
X99153318Y-79251769D01*
X99367519Y-79163044D01*
X99560294Y-79034236D01*
X99724236Y-78870294D01*
X99853044Y-78677519D01*
X99941769Y-78463318D01*
X99987000Y-78235924D01*
X99987000Y-78004076D01*
X100173000Y-78004076D01*
X100173000Y-78235924D01*
X100218231Y-78463318D01*
X100306956Y-78677519D01*
X100435764Y-78870294D01*
X100599706Y-79034236D01*
X100792481Y-79163044D01*
X101006682Y-79251769D01*
X101234076Y-79297000D01*
X101465924Y-79297000D01*
X101693318Y-79251769D01*
X101907519Y-79163044D01*
X102100294Y-79034236D01*
X102264236Y-78870294D01*
X102393044Y-78677519D01*
X102481769Y-78463318D01*
X102527000Y-78235924D01*
X102527000Y-78004076D01*
X102713000Y-78004076D01*
X102713000Y-78235924D01*
X102758231Y-78463318D01*
X102846956Y-78677519D01*
X102975764Y-78870294D01*
X103139706Y-79034236D01*
X103332481Y-79163044D01*
X103546682Y-79251769D01*
X103774076Y-79297000D01*
X104005924Y-79297000D01*
X104233318Y-79251769D01*
X104447519Y-79163044D01*
X104640294Y-79034236D01*
X104804236Y-78870294D01*
X104933044Y-78677519D01*
X105021769Y-78463318D01*
X105067000Y-78235924D01*
X105067000Y-78004076D01*
X105021769Y-77776682D01*
X104933044Y-77562481D01*
X104804236Y-77369706D01*
X104640294Y-77205764D01*
X104447519Y-77076956D01*
X104233318Y-76988231D01*
X104005924Y-76943000D01*
X103774076Y-76943000D01*
X103546682Y-76988231D01*
X103332481Y-77076956D01*
X103139706Y-77205764D01*
X102975764Y-77369706D01*
X102846956Y-77562481D01*
X102758231Y-77776682D01*
X102713000Y-78004076D01*
X102527000Y-78004076D01*
X102481769Y-77776682D01*
X102393044Y-77562481D01*
X102264236Y-77369706D01*
X102100294Y-77205764D01*
X101907519Y-77076956D01*
X101693318Y-76988231D01*
X101465924Y-76943000D01*
X101234076Y-76943000D01*
X101006682Y-76988231D01*
X100792481Y-77076956D01*
X100599706Y-77205764D01*
X100435764Y-77369706D01*
X100306956Y-77562481D01*
X100218231Y-77776682D01*
X100173000Y-78004076D01*
X99987000Y-78004076D01*
X99941769Y-77776682D01*
X99853044Y-77562481D01*
X99724236Y-77369706D01*
X99560294Y-77205764D01*
X99367519Y-77076956D01*
X99153318Y-76988231D01*
X98925924Y-76943000D01*
X98694076Y-76943000D01*
X98466682Y-76988231D01*
X98361162Y-77031939D01*
X95872000Y-74542777D01*
X95872000Y-68324611D01*
X95882011Y-68309628D01*
X95921738Y-68213720D01*
X95941990Y-68111905D01*
X95941990Y-68008095D01*
X95921738Y-67906280D01*
X95882011Y-67810372D01*
X95824338Y-67724057D01*
X95750933Y-67650652D01*
X95664618Y-67592979D01*
X95568710Y-67553252D01*
X95466895Y-67533000D01*
X95363085Y-67533000D01*
X95261270Y-67553252D01*
X95165362Y-67592979D01*
X95079047Y-67650652D01*
X95005642Y-67724057D01*
X94952495Y-67803598D01*
X94899348Y-67724057D01*
X94825943Y-67650652D01*
X94739628Y-67592979D01*
X94643720Y-67553252D01*
X94541905Y-67533000D01*
X94438095Y-67533000D01*
X94336280Y-67553252D01*
X94240372Y-67592979D01*
X94182000Y-67631981D01*
X94182000Y-64942109D01*
X94197021Y-64919628D01*
X94236748Y-64823720D01*
X94257000Y-64721905D01*
X94257000Y-64618095D01*
X94236748Y-64516280D01*
X94197021Y-64420372D01*
X94139348Y-64334057D01*
X94065943Y-64260652D01*
X93979628Y-64202979D01*
X93883720Y-64163252D01*
X93781905Y-64143000D01*
X93678095Y-64143000D01*
X93576280Y-64163252D01*
X93480372Y-64202979D01*
X93394057Y-64260652D01*
X93343876Y-64310833D01*
X93339348Y-64304057D01*
X93265943Y-64230652D01*
X93179628Y-64172979D01*
X93083720Y-64133252D01*
X92981905Y-64113000D01*
X92878095Y-64113000D01*
X92776280Y-64133252D01*
X92680372Y-64172979D01*
X92594057Y-64230652D01*
X92520652Y-64304057D01*
X92462979Y-64390372D01*
X92423252Y-64486280D01*
X92403000Y-64588095D01*
X89432127Y-64588095D01*
X89432032Y-58873260D01*
X90715813Y-58873260D01*
X90718000Y-58895465D01*
X90718001Y-63237785D01*
X90715813Y-63260000D01*
X90724540Y-63348607D01*
X90750386Y-63433809D01*
X90750387Y-63433810D01*
X90792358Y-63512333D01*
X90848842Y-63581159D01*
X90866096Y-63595319D01*
X91237977Y-63967201D01*
X91243252Y-63993720D01*
X91282979Y-64089628D01*
X91340652Y-64175943D01*
X91414057Y-64249348D01*
X91500372Y-64307021D01*
X91596280Y-64346748D01*
X91698095Y-64367000D01*
X91801905Y-64367000D01*
X91903720Y-64346748D01*
X91999628Y-64307021D01*
X92085943Y-64249348D01*
X92159348Y-64175943D01*
X92217021Y-64089628D01*
X92256748Y-63993720D01*
X92277000Y-63891905D01*
X92277000Y-63788095D01*
X92256748Y-63686280D01*
X92217021Y-63590372D01*
X92159348Y-63504057D01*
X92085943Y-63430652D01*
X91999628Y-63372979D01*
X91903720Y-63333252D01*
X91877201Y-63327977D01*
X91622000Y-63072777D01*
X91622000Y-59060483D01*
X91673001Y-59009482D01*
X91673000Y-61109386D01*
X91669000Y-61150000D01*
X91673000Y-61190614D01*
X91673000Y-61190623D01*
X91684966Y-61312119D01*
X91732255Y-61468009D01*
X91732256Y-61468010D01*
X91809048Y-61611679D01*
X91837445Y-61646280D01*
X91912394Y-61737606D01*
X91943952Y-61763505D01*
X98786504Y-68606059D01*
X98812394Y-68637606D01*
X98843941Y-68663496D01*
X98843948Y-68663503D01*
X98938320Y-68740952D01*
X99081989Y-68817745D01*
X99123615Y-68830372D01*
X99237880Y-68865034D01*
X99359376Y-68877000D01*
X99359386Y-68877000D01*
X99400000Y-68881000D01*
X99440614Y-68877000D01*
X102223000Y-68877000D01*
X102223000Y-68919386D01*
X102219000Y-68960000D01*
X102223000Y-69000614D01*
X102223000Y-69120623D01*
X102223001Y-69120632D01*
X102223000Y-69779373D01*
X102223000Y-69779386D01*
X102219000Y-69820000D01*
X102223000Y-69860614D01*
X102223000Y-70039376D01*
X102218999Y-70080000D01*
X102234966Y-70242120D01*
X102282255Y-70398010D01*
X102359048Y-70541679D01*
X102448766Y-70651000D01*
X102462394Y-70667606D01*
X102484364Y-70685636D01*
X102502394Y-70707606D01*
X102628321Y-70810952D01*
X102771990Y-70887745D01*
X102927880Y-70935034D01*
X103049376Y-70947000D01*
X103049386Y-70947000D01*
X103090000Y-70951000D01*
X103130614Y-70947000D01*
X104079376Y-70947000D01*
X104120000Y-70951001D01*
X104282120Y-70935034D01*
X104438010Y-70887745D01*
X104581679Y-70810952D01*
X104707606Y-70707606D01*
X104810952Y-70581679D01*
X104887745Y-70438010D01*
X104935034Y-70282120D01*
X104947000Y-70160624D01*
X104951001Y-70120000D01*
X104947000Y-70079376D01*
X104947000Y-68090624D01*
X104951001Y-68050000D01*
X104935034Y-67887880D01*
X104887745Y-67731990D01*
X104810952Y-67588321D01*
X104707606Y-67462394D01*
X104581679Y-67359048D01*
X104438010Y-67282255D01*
X104282120Y-67234966D01*
X104160624Y-67223000D01*
X104120000Y-67218999D01*
X104079376Y-67223000D01*
X102940614Y-67223000D01*
X102900000Y-67219000D01*
X102859386Y-67223000D01*
X99742555Y-67223000D01*
X93327000Y-60807447D01*
X93327000Y-59666990D01*
X94619386Y-59666990D01*
X94660010Y-59670991D01*
X94700634Y-59666990D01*
X94822130Y-59655024D01*
X94978020Y-59607735D01*
X95121689Y-59530942D01*
X95247616Y-59427596D01*
X95350962Y-59301669D01*
X95403943Y-59202548D01*
X95404540Y-59208607D01*
X95430386Y-59293809D01*
X95469502Y-59366990D01*
X95472358Y-59372333D01*
X95528842Y-59441159D01*
X95546096Y-59455319D01*
X96298001Y-60207226D01*
X96298000Y-61527891D01*
X96282979Y-61550372D01*
X96243252Y-61646280D01*
X96223000Y-61748095D01*
X96223000Y-61851905D01*
X96243252Y-61953720D01*
X96282979Y-62049628D01*
X96340652Y-62135943D01*
X96414057Y-62209348D01*
X96500372Y-62267021D01*
X96596280Y-62306748D01*
X96698095Y-62327000D01*
X96801905Y-62327000D01*
X96903720Y-62306748D01*
X96999628Y-62267021D01*
X97085943Y-62209348D01*
X97159348Y-62135943D01*
X97217021Y-62049628D01*
X97256748Y-61953720D01*
X97277000Y-61851905D01*
X97277000Y-61748095D01*
X97256748Y-61646280D01*
X97217021Y-61550372D01*
X97202000Y-61527891D01*
X97202000Y-60042204D01*
X97204187Y-60019999D01*
X97195460Y-59931392D01*
X97189444Y-59911562D01*
X97169614Y-59846190D01*
X97127643Y-59767667D01*
X97071159Y-59698841D01*
X97053910Y-59684685D01*
X96302000Y-58932777D01*
X96302000Y-58172109D01*
X96317021Y-58149628D01*
X96356748Y-58053720D01*
X96377000Y-57951905D01*
X96377000Y-57848095D01*
X96356748Y-57746280D01*
X96332189Y-57686990D01*
X98657766Y-57686989D01*
X100067977Y-59097201D01*
X100073252Y-59123720D01*
X100112979Y-59219628D01*
X100170652Y-59305943D01*
X100244057Y-59379348D01*
X100330372Y-59437021D01*
X100426280Y-59476748D01*
X100528095Y-59497000D01*
X100631905Y-59497000D01*
X100733720Y-59476748D01*
X100829628Y-59437021D01*
X100915943Y-59379348D01*
X100989348Y-59305943D01*
X101047021Y-59219628D01*
X101086748Y-59123720D01*
X101107000Y-59021905D01*
X101107000Y-58918095D01*
X101086748Y-58816280D01*
X101047021Y-58720372D01*
X100989348Y-58634057D01*
X100915943Y-58560652D01*
X100829628Y-58502979D01*
X100733720Y-58463252D01*
X100707201Y-58457977D01*
X99180308Y-56931085D01*
X99166148Y-56913831D01*
X99097322Y-56857347D01*
X99018799Y-56815376D01*
X99006602Y-56811676D01*
X98933597Y-56789530D01*
X98844990Y-56780803D01*
X98822785Y-56782990D01*
X92830483Y-56782992D01*
X92808268Y-56780804D01*
X92719661Y-56789531D01*
X92634459Y-56815378D01*
X92555935Y-56857349D01*
X92504357Y-56899678D01*
X92504353Y-56899682D01*
X92487110Y-56913833D01*
X92472959Y-56931076D01*
X90866100Y-58537937D01*
X90848841Y-58552101D01*
X90792357Y-58620928D01*
X90768366Y-58665813D01*
X90750386Y-58699451D01*
X90724540Y-58784653D01*
X90715813Y-58873260D01*
X89432032Y-58873260D01*
X89432000Y-56983164D01*
X89812428Y-56950551D01*
X89825071Y-56948207D01*
X89837760Y-56946198D01*
X89839809Y-56945649D01*
X90361008Y-56802087D01*
X90373879Y-56797146D01*
X90386799Y-56792392D01*
X90388703Y-56791455D01*
X90872092Y-56549393D01*
X90883789Y-56542027D01*
X90895509Y-56534873D01*
X90897195Y-56533585D01*
X91324360Y-56202242D01*
X91334396Y-56192751D01*
X91344510Y-56183451D01*
X91345914Y-56181859D01*
X91700586Y-55773855D01*
X91708568Y-55762623D01*
X91716703Y-55751508D01*
X91717770Y-55749674D01*
X91986439Y-55280552D01*
X91992100Y-55267956D01*
X91997908Y-55255500D01*
X91998599Y-55253494D01*
X92171032Y-54741122D01*
X92174139Y-54727662D01*
X92177417Y-54714319D01*
X92177705Y-54712217D01*
X92245711Y-54188598D01*
X92246399Y-54186330D01*
X92248599Y-54163995D01*
X92248599Y-54135784D01*
X93998000Y-54135784D01*
X93998000Y-54264216D01*
X94023056Y-54390181D01*
X94072205Y-54508838D01*
X94143558Y-54615626D01*
X94234374Y-54706442D01*
X94341162Y-54777795D01*
X94459819Y-54826944D01*
X94585784Y-54852000D01*
X94714216Y-54852000D01*
X94840181Y-54826944D01*
X94958838Y-54777795D01*
X95065626Y-54706442D01*
X95156442Y-54615626D01*
X95227795Y-54508838D01*
X95276944Y-54390181D01*
X95302000Y-54264216D01*
X95302000Y-54135784D01*
X99778000Y-54135784D01*
X99778000Y-54264216D01*
X99803056Y-54390181D01*
X99852205Y-54508838D01*
X99923558Y-54615626D01*
X100014374Y-54706442D01*
X100121162Y-54777795D01*
X100239819Y-54826944D01*
X100365784Y-54852000D01*
X100494216Y-54852000D01*
X100620181Y-54826944D01*
X100738838Y-54777795D01*
X100845626Y-54706442D01*
X100936442Y-54615626D01*
X101007795Y-54508838D01*
X101056944Y-54390181D01*
X101082000Y-54264216D01*
X101082000Y-54135784D01*
X101056944Y-54009819D01*
X101007795Y-53891162D01*
X100936442Y-53784374D01*
X100845626Y-53693558D01*
X100738838Y-53622205D01*
X100620181Y-53573056D01*
X100494216Y-53548000D01*
X100365784Y-53548000D01*
X100239819Y-53573056D01*
X100121162Y-53622205D01*
X100014374Y-53693558D01*
X99923558Y-53784374D01*
X99852205Y-53891162D01*
X99803056Y-54009819D01*
X99778000Y-54135784D01*
X95302000Y-54135784D01*
X95276944Y-54009819D01*
X95227795Y-53891162D01*
X95156442Y-53784374D01*
X95065626Y-53693558D01*
X94958838Y-53622205D01*
X94840181Y-53573056D01*
X94714216Y-53548000D01*
X94585784Y-53548000D01*
X94459819Y-53573056D01*
X94341162Y-53622205D01*
X94234374Y-53693558D01*
X94143558Y-53784374D01*
X94072205Y-53891162D01*
X94023056Y-54009819D01*
X93998000Y-54135784D01*
X92248599Y-54135784D01*
X92248599Y-49572000D01*
X102925673Y-49572000D01*
X102925672Y-54081248D01*
%TA.AperFunction,Conductor*%
D18*
G36*
X102925672Y-54081248D02*
G01*
X102926292Y-54087544D01*
X102964836Y-54547492D01*
X102967129Y-54560000D01*
X102969068Y-54572550D01*
X102969609Y-54574601D01*
X103111172Y-55096348D01*
X103116066Y-55109244D01*
X103120767Y-55122175D01*
X103121697Y-55124083D01*
X103361903Y-55608394D01*
X103369213Y-55620101D01*
X103376333Y-55631867D01*
X103377615Y-55633558D01*
X103707318Y-56061991D01*
X103716771Y-56072064D01*
X103726032Y-56082213D01*
X103727618Y-56083623D01*
X104134259Y-56439856D01*
X104145458Y-56447879D01*
X104156544Y-56456058D01*
X104158374Y-56457133D01*
X104626462Y-56727598D01*
X104639005Y-56733293D01*
X104651469Y-56739163D01*
X104653473Y-56739862D01*
X105165181Y-56914258D01*
X105178598Y-56917410D01*
X105191959Y-56920746D01*
X105194060Y-56921042D01*
X105648347Y-56981815D01*
X105648346Y-79882472D01*
X105647848Y-79887481D01*
X105646494Y-79887622D01*
X89432692Y-79887622D01*
X89432378Y-79879100D01*
X89432335Y-77270000D01*
X90011418Y-77270000D01*
X90011418Y-78970000D01*
X90017732Y-79034103D01*
X90036430Y-79095743D01*
X90066794Y-79152550D01*
X90107657Y-79202343D01*
X90157450Y-79243206D01*
X90214257Y-79273570D01*
X90275897Y-79292268D01*
X90340000Y-79298582D01*
X92040000Y-79298582D01*
X92104103Y-79292268D01*
X92165743Y-79273570D01*
X92222550Y-79243206D01*
X92272343Y-79202343D01*
X92313206Y-79152550D01*
X92343570Y-79095743D01*
X92362268Y-79034103D01*
X92368582Y-78970000D01*
X92368582Y-77270000D01*
X92362268Y-77205897D01*
X92343570Y-77144257D01*
X92313206Y-77087450D01*
X92272343Y-77037657D01*
X92222550Y-76996794D01*
X92165743Y-76966430D01*
X92104103Y-76947732D01*
X92040000Y-76941418D01*
X90340000Y-76941418D01*
X90275897Y-76947732D01*
X90214257Y-76966430D01*
X90157450Y-76996794D01*
X90107657Y-77037657D01*
X90066794Y-77087450D01*
X90036430Y-77144257D01*
X90017732Y-77205897D01*
X90011418Y-77270000D01*
X89432335Y-77270000D01*
X89432127Y-64588095D01*
X92403000Y-64588095D01*
X92403000Y-64691905D01*
X92423252Y-64793720D01*
X92462979Y-64889628D01*
X92520652Y-64975943D01*
X92594057Y-65049348D01*
X92680372Y-65107021D01*
X92753000Y-65137105D01*
X92752999Y-68352794D01*
X92750812Y-68374999D01*
X92759539Y-68463606D01*
X92776403Y-68519197D01*
X92785385Y-68548808D01*
X92827356Y-68627331D01*
X92883840Y-68696158D01*
X92901099Y-68710322D01*
X93347977Y-69157202D01*
X93353252Y-69183720D01*
X93392979Y-69279628D01*
X93450652Y-69365943D01*
X93524057Y-69439348D01*
X93610372Y-69497021D01*
X93706280Y-69536748D01*
X93808095Y-69557000D01*
X93911905Y-69557000D01*
X94013720Y-69536748D01*
X94038000Y-69526691D01*
X94038001Y-74877785D01*
X94035813Y-74900000D01*
X94044540Y-74988607D01*
X94070386Y-75073809D01*
X94070387Y-75073810D01*
X94112358Y-75152333D01*
X94168842Y-75221159D01*
X94186096Y-75235319D01*
X95818000Y-76867225D01*
X95818000Y-77033248D01*
X95712481Y-77076956D01*
X95519706Y-77205764D01*
X95355764Y-77369706D01*
X95226956Y-77562481D01*
X95138231Y-77776682D01*
X95093000Y-78004076D01*
X95093000Y-78235924D01*
X95138231Y-78463318D01*
X95226956Y-78677519D01*
X95355764Y-78870294D01*
X95519706Y-79034236D01*
X95712481Y-79163044D01*
X95926682Y-79251769D01*
X96154076Y-79297000D01*
X96385924Y-79297000D01*
X96613318Y-79251769D01*
X96827519Y-79163044D01*
X97020294Y-79034236D01*
X97184236Y-78870294D01*
X97313044Y-78677519D01*
X97401769Y-78463318D01*
X97447000Y-78235924D01*
X97447000Y-78004076D01*
X97401769Y-77776682D01*
X97313044Y-77562481D01*
X97184236Y-77369706D01*
X97020294Y-77205764D01*
X96827519Y-77076956D01*
X96722000Y-77033249D01*
X96722000Y-76702204D01*
X96724187Y-76679999D01*
X96723467Y-76672691D01*
X97721939Y-77671162D01*
X97678231Y-77776682D01*
X97633000Y-78004076D01*
X97633000Y-78235924D01*
X97678231Y-78463318D01*
X97766956Y-78677519D01*
X97895764Y-78870294D01*
X98059706Y-79034236D01*
X98252481Y-79163044D01*
X98466682Y-79251769D01*
X98694076Y-79297000D01*
X98925924Y-79297000D01*
X99153318Y-79251769D01*
X99367519Y-79163044D01*
X99560294Y-79034236D01*
X99724236Y-78870294D01*
X99853044Y-78677519D01*
X99941769Y-78463318D01*
X99987000Y-78235924D01*
X99987000Y-78004076D01*
X100173000Y-78004076D01*
X100173000Y-78235924D01*
X100218231Y-78463318D01*
X100306956Y-78677519D01*
X100435764Y-78870294D01*
X100599706Y-79034236D01*
X100792481Y-79163044D01*
X101006682Y-79251769D01*
X101234076Y-79297000D01*
X101465924Y-79297000D01*
X101693318Y-79251769D01*
X101907519Y-79163044D01*
X102100294Y-79034236D01*
X102264236Y-78870294D01*
X102393044Y-78677519D01*
X102481769Y-78463318D01*
X102527000Y-78235924D01*
X102527000Y-78004076D01*
X102713000Y-78004076D01*
X102713000Y-78235924D01*
X102758231Y-78463318D01*
X102846956Y-78677519D01*
X102975764Y-78870294D01*
X103139706Y-79034236D01*
X103332481Y-79163044D01*
X103546682Y-79251769D01*
X103774076Y-79297000D01*
X104005924Y-79297000D01*
X104233318Y-79251769D01*
X104447519Y-79163044D01*
X104640294Y-79034236D01*
X104804236Y-78870294D01*
X104933044Y-78677519D01*
X105021769Y-78463318D01*
X105067000Y-78235924D01*
X105067000Y-78004076D01*
X105021769Y-77776682D01*
X104933044Y-77562481D01*
X104804236Y-77369706D01*
X104640294Y-77205764D01*
X104447519Y-77076956D01*
X104233318Y-76988231D01*
X104005924Y-76943000D01*
X103774076Y-76943000D01*
X103546682Y-76988231D01*
X103332481Y-77076956D01*
X103139706Y-77205764D01*
X102975764Y-77369706D01*
X102846956Y-77562481D01*
X102758231Y-77776682D01*
X102713000Y-78004076D01*
X102527000Y-78004076D01*
X102481769Y-77776682D01*
X102393044Y-77562481D01*
X102264236Y-77369706D01*
X102100294Y-77205764D01*
X101907519Y-77076956D01*
X101693318Y-76988231D01*
X101465924Y-76943000D01*
X101234076Y-76943000D01*
X101006682Y-76988231D01*
X100792481Y-77076956D01*
X100599706Y-77205764D01*
X100435764Y-77369706D01*
X100306956Y-77562481D01*
X100218231Y-77776682D01*
X100173000Y-78004076D01*
X99987000Y-78004076D01*
X99941769Y-77776682D01*
X99853044Y-77562481D01*
X99724236Y-77369706D01*
X99560294Y-77205764D01*
X99367519Y-77076956D01*
X99153318Y-76988231D01*
X98925924Y-76943000D01*
X98694076Y-76943000D01*
X98466682Y-76988231D01*
X98361162Y-77031939D01*
X95872000Y-74542777D01*
X95872000Y-68324611D01*
X95882011Y-68309628D01*
X95921738Y-68213720D01*
X95941990Y-68111905D01*
X95941990Y-68008095D01*
X95921738Y-67906280D01*
X95882011Y-67810372D01*
X95824338Y-67724057D01*
X95750933Y-67650652D01*
X95664618Y-67592979D01*
X95568710Y-67553252D01*
X95466895Y-67533000D01*
X95363085Y-67533000D01*
X95261270Y-67553252D01*
X95165362Y-67592979D01*
X95079047Y-67650652D01*
X95005642Y-67724057D01*
X94952495Y-67803598D01*
X94899348Y-67724057D01*
X94825943Y-67650652D01*
X94739628Y-67592979D01*
X94643720Y-67553252D01*
X94541905Y-67533000D01*
X94438095Y-67533000D01*
X94336280Y-67553252D01*
X94240372Y-67592979D01*
X94182000Y-67631981D01*
X94182000Y-64942109D01*
X94197021Y-64919628D01*
X94236748Y-64823720D01*
X94257000Y-64721905D01*
X94257000Y-64618095D01*
X94236748Y-64516280D01*
X94197021Y-64420372D01*
X94139348Y-64334057D01*
X94065943Y-64260652D01*
X93979628Y-64202979D01*
X93883720Y-64163252D01*
X93781905Y-64143000D01*
X93678095Y-64143000D01*
X93576280Y-64163252D01*
X93480372Y-64202979D01*
X93394057Y-64260652D01*
X93343876Y-64310833D01*
X93339348Y-64304057D01*
X93265943Y-64230652D01*
X93179628Y-64172979D01*
X93083720Y-64133252D01*
X92981905Y-64113000D01*
X92878095Y-64113000D01*
X92776280Y-64133252D01*
X92680372Y-64172979D01*
X92594057Y-64230652D01*
X92520652Y-64304057D01*
X92462979Y-64390372D01*
X92423252Y-64486280D01*
X92403000Y-64588095D01*
X89432127Y-64588095D01*
X89432032Y-58873260D01*
X90715813Y-58873260D01*
X90718000Y-58895465D01*
X90718001Y-63237785D01*
X90715813Y-63260000D01*
X90724540Y-63348607D01*
X90750386Y-63433809D01*
X90750387Y-63433810D01*
X90792358Y-63512333D01*
X90848842Y-63581159D01*
X90866096Y-63595319D01*
X91237977Y-63967201D01*
X91243252Y-63993720D01*
X91282979Y-64089628D01*
X91340652Y-64175943D01*
X91414057Y-64249348D01*
X91500372Y-64307021D01*
X91596280Y-64346748D01*
X91698095Y-64367000D01*
X91801905Y-64367000D01*
X91903720Y-64346748D01*
X91999628Y-64307021D01*
X92085943Y-64249348D01*
X92159348Y-64175943D01*
X92217021Y-64089628D01*
X92256748Y-63993720D01*
X92277000Y-63891905D01*
X92277000Y-63788095D01*
X92256748Y-63686280D01*
X92217021Y-63590372D01*
X92159348Y-63504057D01*
X92085943Y-63430652D01*
X91999628Y-63372979D01*
X91903720Y-63333252D01*
X91877201Y-63327977D01*
X91622000Y-63072777D01*
X91622000Y-59060483D01*
X91673001Y-59009482D01*
X91673000Y-61109386D01*
X91669000Y-61150000D01*
X91673000Y-61190614D01*
X91673000Y-61190623D01*
X91684966Y-61312119D01*
X91732255Y-61468009D01*
X91732256Y-61468010D01*
X91809048Y-61611679D01*
X91837445Y-61646280D01*
X91912394Y-61737606D01*
X91943952Y-61763505D01*
X98786504Y-68606059D01*
X98812394Y-68637606D01*
X98843941Y-68663496D01*
X98843948Y-68663503D01*
X98938320Y-68740952D01*
X99081989Y-68817745D01*
X99123615Y-68830372D01*
X99237880Y-68865034D01*
X99359376Y-68877000D01*
X99359386Y-68877000D01*
X99400000Y-68881000D01*
X99440614Y-68877000D01*
X102223000Y-68877000D01*
X102223000Y-68919386D01*
X102219000Y-68960000D01*
X102223000Y-69000614D01*
X102223000Y-69120623D01*
X102223001Y-69120632D01*
X102223000Y-69779373D01*
X102223000Y-69779386D01*
X102219000Y-69820000D01*
X102223000Y-69860614D01*
X102223000Y-70039376D01*
X102218999Y-70080000D01*
X102234966Y-70242120D01*
X102282255Y-70398010D01*
X102359048Y-70541679D01*
X102448766Y-70651000D01*
X102462394Y-70667606D01*
X102484364Y-70685636D01*
X102502394Y-70707606D01*
X102628321Y-70810952D01*
X102771990Y-70887745D01*
X102927880Y-70935034D01*
X103049376Y-70947000D01*
X103049386Y-70947000D01*
X103090000Y-70951000D01*
X103130614Y-70947000D01*
X104079376Y-70947000D01*
X104120000Y-70951001D01*
X104282120Y-70935034D01*
X104438010Y-70887745D01*
X104581679Y-70810952D01*
X104707606Y-70707606D01*
X104810952Y-70581679D01*
X104887745Y-70438010D01*
X104935034Y-70282120D01*
X104947000Y-70160624D01*
X104951001Y-70120000D01*
X104947000Y-70079376D01*
X104947000Y-68090624D01*
X104951001Y-68050000D01*
X104935034Y-67887880D01*
X104887745Y-67731990D01*
X104810952Y-67588321D01*
X104707606Y-67462394D01*
X104581679Y-67359048D01*
X104438010Y-67282255D01*
X104282120Y-67234966D01*
X104160624Y-67223000D01*
X104120000Y-67218999D01*
X104079376Y-67223000D01*
X102940614Y-67223000D01*
X102900000Y-67219000D01*
X102859386Y-67223000D01*
X99742555Y-67223000D01*
X93327000Y-60807447D01*
X93327000Y-59666990D01*
X94619386Y-59666990D01*
X94660010Y-59670991D01*
X94700634Y-59666990D01*
X94822130Y-59655024D01*
X94978020Y-59607735D01*
X95121689Y-59530942D01*
X95247616Y-59427596D01*
X95350962Y-59301669D01*
X95403943Y-59202548D01*
X95404540Y-59208607D01*
X95430386Y-59293809D01*
X95469502Y-59366990D01*
X95472358Y-59372333D01*
X95528842Y-59441159D01*
X95546096Y-59455319D01*
X96298001Y-60207226D01*
X96298000Y-61527891D01*
X96282979Y-61550372D01*
X96243252Y-61646280D01*
X96223000Y-61748095D01*
X96223000Y-61851905D01*
X96243252Y-61953720D01*
X96282979Y-62049628D01*
X96340652Y-62135943D01*
X96414057Y-62209348D01*
X96500372Y-62267021D01*
X96596280Y-62306748D01*
X96698095Y-62327000D01*
X96801905Y-62327000D01*
X96903720Y-62306748D01*
X96999628Y-62267021D01*
X97085943Y-62209348D01*
X97159348Y-62135943D01*
X97217021Y-62049628D01*
X97256748Y-61953720D01*
X97277000Y-61851905D01*
X97277000Y-61748095D01*
X97256748Y-61646280D01*
X97217021Y-61550372D01*
X97202000Y-61527891D01*
X97202000Y-60042204D01*
X97204187Y-60019999D01*
X97195460Y-59931392D01*
X97189444Y-59911562D01*
X97169614Y-59846190D01*
X97127643Y-59767667D01*
X97071159Y-59698841D01*
X97053910Y-59684685D01*
X96302000Y-58932777D01*
X96302000Y-58172109D01*
X96317021Y-58149628D01*
X96356748Y-58053720D01*
X96377000Y-57951905D01*
X96377000Y-57848095D01*
X96356748Y-57746280D01*
X96332189Y-57686990D01*
X98657766Y-57686989D01*
X100067977Y-59097201D01*
X100073252Y-59123720D01*
X100112979Y-59219628D01*
X100170652Y-59305943D01*
X100244057Y-59379348D01*
X100330372Y-59437021D01*
X100426280Y-59476748D01*
X100528095Y-59497000D01*
X100631905Y-59497000D01*
X100733720Y-59476748D01*
X100829628Y-59437021D01*
X100915943Y-59379348D01*
X100989348Y-59305943D01*
X101047021Y-59219628D01*
X101086748Y-59123720D01*
X101107000Y-59021905D01*
X101107000Y-58918095D01*
X101086748Y-58816280D01*
X101047021Y-58720372D01*
X100989348Y-58634057D01*
X100915943Y-58560652D01*
X100829628Y-58502979D01*
X100733720Y-58463252D01*
X100707201Y-58457977D01*
X99180308Y-56931085D01*
X99166148Y-56913831D01*
X99097322Y-56857347D01*
X99018799Y-56815376D01*
X99006602Y-56811676D01*
X98933597Y-56789530D01*
X98844990Y-56780803D01*
X98822785Y-56782990D01*
X92830483Y-56782992D01*
X92808268Y-56780804D01*
X92719661Y-56789531D01*
X92634459Y-56815378D01*
X92555935Y-56857349D01*
X92504357Y-56899678D01*
X92504353Y-56899682D01*
X92487110Y-56913833D01*
X92472959Y-56931076D01*
X90866100Y-58537937D01*
X90848841Y-58552101D01*
X90792357Y-58620928D01*
X90768366Y-58665813D01*
X90750386Y-58699451D01*
X90724540Y-58784653D01*
X90715813Y-58873260D01*
X89432032Y-58873260D01*
X89432000Y-56983164D01*
X89812428Y-56950551D01*
X89825071Y-56948207D01*
X89837760Y-56946198D01*
X89839809Y-56945649D01*
X90361008Y-56802087D01*
X90373879Y-56797146D01*
X90386799Y-56792392D01*
X90388703Y-56791455D01*
X90872092Y-56549393D01*
X90883789Y-56542027D01*
X90895509Y-56534873D01*
X90897195Y-56533585D01*
X91324360Y-56202242D01*
X91334396Y-56192751D01*
X91344510Y-56183451D01*
X91345914Y-56181859D01*
X91700586Y-55773855D01*
X91708568Y-55762623D01*
X91716703Y-55751508D01*
X91717770Y-55749674D01*
X91986439Y-55280552D01*
X91992100Y-55267956D01*
X91997908Y-55255500D01*
X91998599Y-55253494D01*
X92171032Y-54741122D01*
X92174139Y-54727662D01*
X92177417Y-54714319D01*
X92177705Y-54712217D01*
X92245711Y-54188598D01*
X92246399Y-54186330D01*
X92248599Y-54163995D01*
X92248599Y-54135784D01*
X93998000Y-54135784D01*
X93998000Y-54264216D01*
X94023056Y-54390181D01*
X94072205Y-54508838D01*
X94143558Y-54615626D01*
X94234374Y-54706442D01*
X94341162Y-54777795D01*
X94459819Y-54826944D01*
X94585784Y-54852000D01*
X94714216Y-54852000D01*
X94840181Y-54826944D01*
X94958838Y-54777795D01*
X95065626Y-54706442D01*
X95156442Y-54615626D01*
X95227795Y-54508838D01*
X95276944Y-54390181D01*
X95302000Y-54264216D01*
X95302000Y-54135784D01*
X99778000Y-54135784D01*
X99778000Y-54264216D01*
X99803056Y-54390181D01*
X99852205Y-54508838D01*
X99923558Y-54615626D01*
X100014374Y-54706442D01*
X100121162Y-54777795D01*
X100239819Y-54826944D01*
X100365784Y-54852000D01*
X100494216Y-54852000D01*
X100620181Y-54826944D01*
X100738838Y-54777795D01*
X100845626Y-54706442D01*
X100936442Y-54615626D01*
X101007795Y-54508838D01*
X101056944Y-54390181D01*
X101082000Y-54264216D01*
X101082000Y-54135784D01*
X101056944Y-54009819D01*
X101007795Y-53891162D01*
X100936442Y-53784374D01*
X100845626Y-53693558D01*
X100738838Y-53622205D01*
X100620181Y-53573056D01*
X100494216Y-53548000D01*
X100365784Y-53548000D01*
X100239819Y-53573056D01*
X100121162Y-53622205D01*
X100014374Y-53693558D01*
X99923558Y-53784374D01*
X99852205Y-53891162D01*
X99803056Y-54009819D01*
X99778000Y-54135784D01*
X95302000Y-54135784D01*
X95276944Y-54009819D01*
X95227795Y-53891162D01*
X95156442Y-53784374D01*
X95065626Y-53693558D01*
X94958838Y-53622205D01*
X94840181Y-53573056D01*
X94714216Y-53548000D01*
X94585784Y-53548000D01*
X94459819Y-53573056D01*
X94341162Y-53622205D01*
X94234374Y-53693558D01*
X94143558Y-53784374D01*
X94072205Y-53891162D01*
X94023056Y-54009819D01*
X93998000Y-54135784D01*
X92248599Y-54135784D01*
X92248599Y-49572000D01*
X102925673Y-49572000D01*
X102925672Y-54081248D01*
G37*
%TD.AperFunction*%
%TD*%
M02*
